<?xml version="1.0" encoding="UTF-8" standalone="no"?>
<!DOCTYPE svg PUBLIC "-//W3C//DTD SVG 1.1//EN"
 "http://www.w3.org/Graphics/SVG/1.1/DTD/svg11.dtd">
<!-- Generated by graphviz version 8.0.5 (20230430.1635)
 -->
<!-- Pages: 1 -->
<svg width="680pt" height="418pt"
 viewBox="0.00 0.00 679.62 418.00" xmlns="http://www.w3.org/2000/svg" xmlns:xlink="http://www.w3.org/1999/xlink">
<g id="graph0" class="graph" transform="scale(1 1) rotate(0) translate(4 414)">
<polygon fill="white" stroke="none" points="-4,4 -4,-414 675.62,-414 675.62,4 -4,4"/>
<!-- 1 -->
<g id="node1" class="node">
<title>1</title>
<polygon fill="none" stroke="black" points="408.62,-410 349.88,-410 349.88,-370.5 408.62,-370.5 408.62,-410"/>
<text text-anchor="middle" x="379.25" y="-392.7" font-family="Times New Roman,serif" font-size="14.00">(1) root</text>
<text text-anchor="middle" x="379.25" y="-376.95" font-family="Times New Roman,serif" font-size="14.00">main </text>
</g>
<!-- 2 -->
<g id="node2" class="node">
<title>2</title>
<polygon fill="none" stroke="darkred" points="428.88,-334.5 329.62,-334.5 329.62,-298.5 428.88,-298.5 428.88,-334.5"/>
<text text-anchor="middle" x="379.25" y="-311.07" font-family="Times New Roman,serif" font-size="14.00">(2) r_sequence</text>
</g>
<!-- 1&#45;&gt;2 -->
<g id="edge1" class="edge">
<title>1&#45;&gt;2</title>
<path fill="none" stroke="black" d="M379.25,-370.02C379.25,-362.57 379.25,-353.9 379.25,-345.76"/>
<polygon fill="black" stroke="black" points="382.75,-345.82 379.25,-335.82 375.75,-345.82 382.75,-345.82"/>
</g>
<!-- 3 -->
<g id="node3" class="node">
<title>3</title>
<polygon fill="none" stroke="darkred" points="374.88,-262.5 275.62,-262.5 275.62,-223 374.88,-223 374.88,-262.5"/>
<text text-anchor="middle" x="325.25" y="-245.2" font-family="Times New Roman,serif" font-size="14.00">(3) r_sequence</text>
<text text-anchor="middle" x="325.25" y="-229.45" font-family="Times New Roman,serif" font-size="14.00">move </text>
</g>
<!-- 2&#45;&gt;3 -->
<g id="edge2" class="edge">
<title>2&#45;&gt;3</title>
<path fill="none" stroke="black" d="M366.18,-298.13C360.19,-290.17 352.93,-280.53 346.21,-271.59"/>
<polygon fill="black" stroke="black" points="348.53,-269.86 339.72,-263.98 342.94,-274.07 348.53,-269.86"/>
</g>
<!-- 4 -->
<g id="node4" class="node">
<title>4</title>
<polygon fill="none" stroke="green" points="473.5,-260.75 393,-260.75 393,-256.75 389,-256.75 389,-252.75 393,-252.75 393,-232.75 389,-232.75 389,-228.75 393,-228.75 393,-224.75 473.5,-224.75 473.5,-260.75"/>
<polyline fill="none" stroke="green" points="393,-256.75 397,-256.75 397,-252.75 393,-252.75"/>
<polyline fill="none" stroke="green" points="393,-232.75 397,-232.75 397,-228.75 393,-228.75"/>
<text text-anchor="middle" x="433.25" y="-237.32" font-family="Times New Roman,serif" font-size="14.00">(4) running </text>
</g>
<!-- 2&#45;&gt;4 -->
<g id="edge3" class="edge">
<title>2&#45;&gt;4</title>
<path fill="none" stroke="black" d="M392.32,-298.13C398.71,-289.65 406.53,-279.26 413.61,-269.84"/>
<polygon fill="black" stroke="black" points="416.89,-272.3 420.11,-262.21 411.3,-268.09 416.89,-272.3"/>
</g>
<!-- 5 -->
<g id="node5" class="node">
<title>5</title>
<polygon fill="none" stroke="purple" points="233.38,-185.25 125.12,-185.25 125.12,-189.25 113.12,-189.25 113.12,-149.25 233.38,-149.25 233.38,-185.25"/>
<polyline fill="none" stroke="purple" points="113.12,-185.25 125.12,-185.25"/>
<text text-anchor="middle" x="173.25" y="-161.82" font-family="Times New Roman,serif" font-size="14.00">(5) force_success </text>
</g>
<!-- 3&#45;&gt;5 -->
<g id="edge4" class="edge">
<title>3&#45;&gt;5</title>
<path fill="none" stroke="black" d="M285.71,-222.63C265.28,-212.75 240.25,-200.65 218.99,-190.37"/>
<polygon fill="black" stroke="black" points="220.74,-186.84 210.21,-185.64 217.69,-193.14 220.74,-186.84"/>
</g>
<!-- 6 -->
<g id="node6" class="node">
<title>6</title>
<polygon fill="none" stroke="blue" points="370.75,-187 279.75,-187 279.75,-147.5 370.75,-147.5 370.75,-187"/>
<text text-anchor="middle" x="325.25" y="-169.7" font-family="Times New Roman,serif" font-size="14.00">(6) r_fallback</text>
<text text-anchor="middle" x="325.25" y="-153.95" font-family="Times New Roman,serif" font-size="14.00">recover </text>
</g>
<!-- 3&#45;&gt;6 -->
<g id="edge5" class="edge">
<title>3&#45;&gt;6</title>
<path fill="none" stroke="black" d="M325.25,-222.82C325.25,-215.34 325.25,-206.55 325.25,-198.24"/>
<polygon fill="black" stroke="black" points="328.75,-198.37 325.25,-188.37 321.75,-198.37 328.75,-198.37"/>
</g>
<!-- 7 -->
<g id="node7" class="node">
<title>7</title>
<polygon fill="none" stroke="blue" points="548.75,-187 457.75,-187 457.75,-147.5 548.75,-147.5 548.75,-187"/>
<text text-anchor="middle" x="503.25" y="-169.7" font-family="Times New Roman,serif" font-size="14.00">(7) r_fallback</text>
<text text-anchor="middle" x="503.25" y="-153.95" font-family="Times New Roman,serif" font-size="14.00">place </text>
</g>
<!-- 3&#45;&gt;7 -->
<g id="edge6" class="edge">
<title>3&#45;&gt;7</title>
<path fill="none" stroke="black" d="M371.55,-222.63C394.82,-213.02 423.19,-201.31 447.63,-191.22"/>
<polygon fill="black" stroke="black" points="448.58,-194.2 456.49,-187.15 445.91,-187.73 448.58,-194.2"/>
</g>
<!-- 8 -->
<g id="node8" class="node">
<title>8</title>
<polygon fill="none" stroke="darkred" points="193.88,-111.5 94.62,-111.5 94.62,-72 193.88,-72 193.88,-111.5"/>
<text text-anchor="middle" x="144.25" y="-94.2" font-family="Times New Roman,serif" font-size="14.00">(8) r_sequence</text>
<text text-anchor="middle" x="144.25" y="-78.45" font-family="Times New Roman,serif" font-size="14.00">complex_pick </text>
</g>
<!-- 5&#45;&gt;8 -->
<g id="edge7" class="edge">
<title>5&#45;&gt;8</title>
<path fill="none" stroke="black" d="M166.38,-148.83C163.22,-140.84 159.4,-131.14 155.82,-122.07"/>
<polygon fill="black" stroke="black" points="158.71,-120.87 151.79,-112.85 152.2,-123.44 158.71,-120.87"/>
</g>
<!-- 9 -->
<g id="node9" class="node">
<title>9</title>
<polygon fill="none" stroke="green" points="304.88,-109.75 211.62,-109.75 211.62,-105.75 207.62,-105.75 207.62,-101.75 211.62,-101.75 211.62,-81.75 207.62,-81.75 207.62,-77.75 211.62,-77.75 211.62,-73.75 304.88,-73.75 304.88,-109.75"/>
<polyline fill="none" stroke="green" points="211.62,-105.75 215.62,-105.75 215.62,-101.75 211.62,-101.75"/>
<polyline fill="none" stroke="green" points="211.62,-81.75 215.62,-81.75 215.62,-77.75 211.62,-77.75"/>
<text text-anchor="middle" x="258.25" y="-86.33" font-family="Times New Roman,serif" font-size="14.00">(9) is_picked </text>
</g>
<!-- 6&#45;&gt;9 -->
<g id="edge8" class="edge">
<title>6&#45;&gt;9</title>
<path fill="none" stroke="black" d="M308,-147.32C299.9,-138.44 290.13,-127.72 281.4,-118.15"/>
<polygon fill="black" stroke="black" points="284.39,-116.14 275.07,-111.1 279.22,-120.85 284.39,-116.14"/>
</g>
<!-- 10 -->
<g id="node10" class="node">
<title>10</title>
<polygon fill="none" stroke="green" points="442,-109.75 322.5,-109.75 322.5,-105.75 318.5,-105.75 318.5,-101.75 322.5,-101.75 322.5,-81.75 318.5,-81.75 318.5,-77.75 322.5,-77.75 322.5,-73.75 442,-73.75 442,-109.75"/>
<polyline fill="none" stroke="green" points="322.5,-105.75 326.5,-105.75 326.5,-101.75 322.5,-101.75"/>
<polyline fill="none" stroke="green" points="322.5,-81.75 326.5,-81.75 326.5,-77.75 322.5,-77.75"/>
<text text-anchor="middle" x="382.25" y="-86.33" font-family="Times New Roman,serif" font-size="14.00">(10) recover_impl </text>
</g>
<!-- 6&#45;&gt;10 -->
<g id="edge9" class="edge">
<title>6&#45;&gt;10</title>
<path fill="none" stroke="black" d="M339.93,-147.32C346.68,-138.62 354.79,-128.16 362.1,-118.73"/>
<polygon fill="black" stroke="black" points="365.43,-121.15 368.79,-111.1 359.9,-116.86 365.43,-121.15"/>
</g>
<!-- 11 -->
<g id="node11" class="node">
<title>11</title>
<polygon fill="none" stroke="purple" points="546.88,-109.75 471.62,-109.75 471.62,-113.75 459.62,-113.75 459.62,-73.75 546.88,-73.75 546.88,-109.75"/>
<polyline fill="none" stroke="purple" points="459.62,-109.75 471.62,-109.75"/>
<text text-anchor="middle" x="503.25" y="-86.33" font-family="Times New Roman,serif" font-size="14.00">(11) inverter </text>
</g>
<!-- 7&#45;&gt;11 -->
<g id="edge10" class="edge">
<title>7&#45;&gt;11</title>
<path fill="none" stroke="black" d="M503.25,-147.32C503.25,-139.34 503.25,-129.87 503.25,-121.08"/>
<polygon fill="black" stroke="black" points="506.75,-121.1 503.25,-111.1 499.75,-121.1 506.75,-121.1"/>
</g>
<!-- 12 -->
<g id="node12" class="node">
<title>12</title>
<polygon fill="none" stroke="green" points="671.62,-109.75 564.88,-109.75 564.88,-105.75 560.88,-105.75 560.88,-101.75 564.88,-101.75 564.88,-81.75 560.88,-81.75 560.88,-77.75 564.88,-77.75 564.88,-73.75 671.62,-73.75 671.62,-109.75"/>
<polyline fill="none" stroke="green" points="564.88,-105.75 568.88,-105.75 568.88,-101.75 564.88,-101.75"/>
<polyline fill="none" stroke="green" points="564.88,-81.75 568.88,-81.75 568.88,-77.75 564.88,-77.75"/>
<text text-anchor="middle" x="618.25" y="-86.33" font-family="Times New Roman,serif" font-size="14.00">(12) place_impl </text>
</g>
<!-- 7&#45;&gt;12 -->
<g id="edge11" class="edge">
<title>7&#45;&gt;12</title>
<path fill="none" stroke="black" d="M533.16,-147.13C548.19,-137.53 566.5,-125.83 582.28,-115.74"/>
<polygon fill="black" stroke="black" points="583.7,-118.35 590.24,-110.02 579.93,-112.45 583.7,-118.35"/>
</g>
<!-- 14 -->
<g id="node13" class="node">
<title>14</title>
<polygon fill="none" stroke="green" points="146.5,-36 0,-36 0,-32 -4,-32 -4,-28 0,-28 0,-8 -4,-8 -4,-4 0,-4 0,0 146.5,0 146.5,-36"/>
<polyline fill="none" stroke="green" points="0,-32 4,-32 4,-28 0,-28"/>
<polyline fill="none" stroke="green" points="0,-8 4,-8 4,-4 0,-4"/>
<text text-anchor="middle" x="73.25" y="-12.57" font-family="Times New Roman,serif" font-size="14.00">(14) check_cond_pick </text>
</g>
<!-- 8&#45;&gt;14 -->
<g id="edge12" class="edge">
<title>8&#45;&gt;14</title>
<path fill="none" stroke="black" d="M125.22,-71.52C116.84,-63.05 106.87,-52.98 97.92,-43.93"/>
<polygon fill="black" stroke="black" points="100.91,-41.96 91.39,-37.32 95.93,-46.89 100.91,-41.96"/>
</g>
<!-- 15 -->
<g id="node14" class="node">
<title>15</title>
<polygon fill="none" stroke="green" points="266,-36 164.5,-36 164.5,-32 160.5,-32 160.5,-28 164.5,-28 164.5,-8 160.5,-8 160.5,-4 164.5,-4 164.5,0 266,0 266,-36"/>
<polyline fill="none" stroke="green" points="164.5,-32 168.5,-32 168.5,-28 164.5,-28"/>
<polyline fill="none" stroke="green" points="164.5,-8 168.5,-8 168.5,-4 164.5,-4"/>
<text text-anchor="middle" x="215.25" y="-12.57" font-family="Times New Roman,serif" font-size="14.00">(15) pick_impl </text>
</g>
<!-- 8&#45;&gt;15 -->
<g id="edge13" class="edge">
<title>8&#45;&gt;15</title>
<path fill="none" stroke="black" d="M163.28,-71.52C171.66,-63.05 181.63,-52.98 190.58,-43.93"/>
<polygon fill="black" stroke="black" points="192.57,-46.89 197.11,-37.32 187.59,-41.96 192.57,-46.89"/>
</g>
<!-- 13 -->
<g id="node15" class="node">
<title>13</title>
<polygon fill="none" stroke="green" points="553.25,-36 453.25,-36 453.25,-32 449.25,-32 449.25,-28 453.25,-28 453.25,-8 449.25,-8 449.25,-4 453.25,-4 453.25,0 553.25,0 553.25,-36"/>
<polyline fill="none" stroke="green" points="453.25,-32 457.25,-32 457.25,-28 453.25,-28"/>
<polyline fill="none" stroke="green" points="453.25,-8 457.25,-8 457.25,-4 453.25,-4"/>
<text text-anchor="middle" x="503.25" y="-12.57" font-family="Times New Roman,serif" font-size="14.00">(13) is_picked </text>
</g>
<!-- 11&#45;&gt;13 -->
<g id="edge14" class="edge">
<title>11&#45;&gt;13</title>
<path fill="none" stroke="black" d="M503.25,-73.38C503.25,-65.6 503.25,-56.21 503.25,-47.44"/>
<polygon fill="black" stroke="black" points="506.75,-47.46 503.25,-37.46 499.75,-47.46 506.75,-47.46"/>
</g>
</g>
</svg>
