<?xml version="1.0" encoding="UTF-8" standalone="no"?>
<!DOCTYPE svg PUBLIC "-//W3C//DTD SVG 1.1//EN"
 "http://www.w3.org/Graphics/SVG/1.1/DTD/svg11.dtd">
<!-- Generated by graphviz version 8.0.5 (20230430.1635)
 -->
<!-- Pages: 1 -->
<svg width="554pt" height="415pt"
 viewBox="0.00 0.00 553.50 414.50" xmlns="http://www.w3.org/2000/svg" xmlns:xlink="http://www.w3.org/1999/xlink">
<g id="graph0" class="graph" transform="scale(1 1) rotate(0) translate(4 410.5)">
<polygon fill="white" stroke="none" points="-4,4 -4,-410.5 549.5,-410.5 549.5,4 -4,4"/>
<!-- 1 -->
<g id="node1" class="node">
<title>1</title>
<polygon fill="none" stroke="black" points="291.5,-406.5 232.75,-406.5 232.75,-367 291.5,-367 291.5,-406.5"/>
<text text-anchor="middle" x="262.12" y="-389.2" font-family="Times New Roman,serif" font-size="14.00">(1) root</text>
<text text-anchor="middle" x="262.12" y="-373.45" font-family="Times New Roman,serif" font-size="14.00">main </text>
</g>
<!-- 2 -->
<g id="node2" class="node">
<title>2</title>
<polygon fill="none" stroke="darkred" points="311.75,-331 212.5,-331 212.5,-295 311.75,-295 311.75,-331"/>
<text text-anchor="middle" x="262.12" y="-307.57" font-family="Times New Roman,serif" font-size="14.00">(2) r_sequence</text>
</g>
<!-- 1&#45;&gt;2 -->
<g id="edge1" class="edge">
<title>1&#45;&gt;2</title>
<path fill="none" stroke="black" d="M262.12,-366.52C262.12,-359.07 262.12,-350.4 262.12,-342.26"/>
<polygon fill="black" stroke="black" points="265.63,-342.32 262.12,-332.32 258.63,-342.32 265.63,-342.32"/>
</g>
<!-- 3 -->
<g id="node3" class="node">
<title>3</title>
<polygon fill="none" stroke="darkred" points="257.75,-259 158.5,-259 158.5,-219.5 257.75,-219.5 257.75,-259"/>
<text text-anchor="middle" x="208.12" y="-241.7" font-family="Times New Roman,serif" font-size="14.00">(3) r_sequence</text>
<text text-anchor="middle" x="208.12" y="-225.95" font-family="Times New Roman,serif" font-size="14.00">move </text>
</g>
<!-- 2&#45;&gt;3 -->
<g id="edge2" class="edge">
<title>2&#45;&gt;3</title>
<path fill="none" stroke="black" d="M249.05,-294.63C243.06,-286.67 235.81,-277.03 229.08,-268.09"/>
<polygon fill="black" stroke="black" points="231.41,-266.36 222.6,-260.48 225.81,-270.57 231.41,-266.36"/>
</g>
<!-- 4 -->
<g id="node4" class="node">
<title>4</title>
<polygon fill="none" stroke="green" points="356.38,-257.25 275.88,-257.25 275.88,-253.25 271.88,-253.25 271.88,-249.25 275.88,-249.25 275.88,-229.25 271.88,-229.25 271.88,-225.25 275.88,-225.25 275.88,-221.25 356.38,-221.25 356.38,-257.25"/>
<polyline fill="none" stroke="green" points="275.88,-253.25 279.88,-253.25 279.88,-249.25 275.88,-249.25"/>
<polyline fill="none" stroke="green" points="275.88,-229.25 279.88,-229.25 279.88,-225.25 275.88,-225.25"/>
<text text-anchor="middle" x="316.12" y="-233.82" font-family="Times New Roman,serif" font-size="14.00">(4) running </text>
</g>
<!-- 2&#45;&gt;4 -->
<g id="edge3" class="edge">
<title>2&#45;&gt;4</title>
<path fill="none" stroke="black" d="M275.2,-294.63C281.58,-286.15 289.4,-275.76 296.49,-266.34"/>
<polygon fill="black" stroke="black" points="299.77,-268.8 302.99,-258.71 294.18,-264.59 299.77,-268.8"/>
</g>
<!-- 5 -->
<g id="node5" class="node">
<title>5</title>
<polygon fill="none" stroke="purple" points="120.25,-181.75 12,-181.75 12,-185.75 0,-185.75 0,-145.75 120.25,-145.75 120.25,-181.75"/>
<polyline fill="none" stroke="purple" points="0,-181.75 12,-181.75"/>
<text text-anchor="middle" x="60.12" y="-158.32" font-family="Times New Roman,serif" font-size="14.00">(5) force_success </text>
</g>
<!-- 3&#45;&gt;5 -->
<g id="edge4" class="edge">
<title>3&#45;&gt;5</title>
<path fill="none" stroke="black" d="M169.63,-219.13C149.75,-209.26 125.4,-197.17 104.72,-186.89"/>
<polygon fill="black" stroke="black" points="106.4,-183.33 95.89,-182.02 103.29,-189.6 106.4,-183.33"/>
</g>
<!-- 6 -->
<g id="node6" class="node">
<title>6</title>
<polygon fill="none" stroke="blue" points="253.62,-183.5 162.62,-183.5 162.62,-144 253.62,-144 253.62,-183.5"/>
<text text-anchor="middle" x="208.12" y="-166.2" font-family="Times New Roman,serif" font-size="14.00">(6) r_fallback</text>
<text text-anchor="middle" x="208.12" y="-150.45" font-family="Times New Roman,serif" font-size="14.00">recover </text>
</g>
<!-- 3&#45;&gt;6 -->
<g id="edge5" class="edge">
<title>3&#45;&gt;6</title>
<path fill="none" stroke="black" d="M208.12,-219.32C208.12,-211.84 208.12,-203.05 208.12,-194.74"/>
<polygon fill="black" stroke="black" points="211.63,-194.87 208.12,-184.87 204.63,-194.87 211.63,-194.87"/>
</g>
<!-- 7 -->
<g id="node7" class="node">
<title>7</title>
<polygon fill="none" stroke="blue" points="422.62,-183.5 331.62,-183.5 331.62,-144 422.62,-144 422.62,-183.5"/>
<text text-anchor="middle" x="377.12" y="-166.2" font-family="Times New Roman,serif" font-size="14.00">(7) r_fallback</text>
<text text-anchor="middle" x="377.12" y="-150.45" font-family="Times New Roman,serif" font-size="14.00">place </text>
</g>
<!-- 3&#45;&gt;7 -->
<g id="edge6" class="edge">
<title>3&#45;&gt;7</title>
<path fill="none" stroke="black" d="M252.09,-219.13C273.81,-209.68 300.22,-198.2 323.16,-188.22"/>
<polygon fill="black" stroke="black" points="324.32,-191.1 332.09,-183.9 321.52,-184.68 324.32,-191.1"/>
</g>
<!-- 8 -->
<g id="node8" class="node">
<title>8</title>
<polygon fill="none" stroke="green" points="67.75,-108 4.5,-108 4.5,-104 0.5,-104 0.5,-100 4.5,-100 4.5,-80 0.5,-80 0.5,-76 4.5,-76 4.5,-72 67.75,-72 67.75,-108"/>
<polyline fill="none" stroke="green" points="4.5,-104 8.5,-104 8.5,-100 4.5,-100"/>
<polyline fill="none" stroke="green" points="4.5,-80 8.5,-80 8.5,-76 4.5,-76"/>
<text text-anchor="middle" x="36.12" y="-84.58" font-family="Times New Roman,serif" font-size="14.00">(8) pick </text>
</g>
<!-- 5&#45;&gt;8 -->
<g id="edge7" class="edge">
<title>5&#45;&gt;8</title>
<path fill="none" stroke="black" d="M54.32,-145.38C51.65,-137.42 48.43,-127.78 45.44,-118.85"/>
<polygon fill="black" stroke="black" points="48.46,-117.83 41.96,-109.46 41.82,-120.05 48.46,-117.83"/>
</g>
<!-- 9 -->
<g id="node9" class="node">
<title>9</title>
<polygon fill="none" stroke="green" points="178.75,-108 85.5,-108 85.5,-104 81.5,-104 81.5,-100 85.5,-100 85.5,-80 81.5,-80 81.5,-76 85.5,-76 85.5,-72 178.75,-72 178.75,-108"/>
<polyline fill="none" stroke="green" points="85.5,-104 89.5,-104 89.5,-100 85.5,-100"/>
<polyline fill="none" stroke="green" points="85.5,-80 89.5,-80 89.5,-76 85.5,-76"/>
<text text-anchor="middle" x="132.12" y="-84.58" font-family="Times New Roman,serif" font-size="14.00">(9) is_picked </text>
</g>
<!-- 6&#45;&gt;9 -->
<g id="edge8" class="edge">
<title>6&#45;&gt;9</title>
<path fill="none" stroke="black" d="M187.76,-143.52C178.69,-134.96 167.9,-124.77 158.25,-115.66"/>
<polygon fill="black" stroke="black" points="161.14,-113.64 151.47,-109.32 156.34,-118.73 161.14,-113.64"/>
</g>
<!-- 10 -->
<g id="node10" class="node">
<title>10</title>
<polygon fill="none" stroke="green" points="315.88,-108 196.38,-108 196.38,-104 192.38,-104 192.38,-100 196.38,-100 196.38,-80 192.38,-80 192.38,-76 196.38,-76 196.38,-72 315.88,-72 315.88,-108"/>
<polyline fill="none" stroke="green" points="196.38,-104 200.38,-104 200.38,-100 196.38,-100"/>
<polyline fill="none" stroke="green" points="196.38,-80 200.38,-80 200.38,-76 196.38,-76"/>
<text text-anchor="middle" x="256.12" y="-84.58" font-family="Times New Roman,serif" font-size="14.00">(10) recover_impl </text>
</g>
<!-- 6&#45;&gt;10 -->
<g id="edge9" class="edge">
<title>6&#45;&gt;10</title>
<path fill="none" stroke="black" d="M220.99,-143.52C226.37,-135.47 232.72,-125.99 238.52,-117.31"/>
<polygon fill="black" stroke="black" points="241.89,-119.57 244.54,-109.32 236.07,-115.68 241.89,-119.57"/>
</g>
<!-- 11 -->
<g id="node11" class="node">
<title>11</title>
<polygon fill="none" stroke="purple" points="420.75,-108 345.5,-108 345.5,-112 333.5,-112 333.5,-72 420.75,-72 420.75,-108"/>
<polyline fill="none" stroke="purple" points="333.5,-108 345.5,-108"/>
<text text-anchor="middle" x="377.12" y="-84.58" font-family="Times New Roman,serif" font-size="14.00">(11) inverter </text>
</g>
<!-- 7&#45;&gt;11 -->
<g id="edge10" class="edge">
<title>7&#45;&gt;11</title>
<path fill="none" stroke="black" d="M377.12,-143.52C377.12,-136.07 377.12,-127.4 377.12,-119.26"/>
<polygon fill="black" stroke="black" points="380.63,-119.32 377.12,-109.32 373.63,-119.32 380.63,-119.32"/>
</g>
<!-- 12 -->
<g id="node12" class="node">
<title>12</title>
<polygon fill="none" stroke="green" points="545.5,-108 438.75,-108 438.75,-104 434.75,-104 434.75,-100 438.75,-100 438.75,-80 434.75,-80 434.75,-76 438.75,-76 438.75,-72 545.5,-72 545.5,-108"/>
<polyline fill="none" stroke="green" points="438.75,-104 442.75,-104 442.75,-100 438.75,-100"/>
<polyline fill="none" stroke="green" points="438.75,-80 442.75,-80 442.75,-76 438.75,-76"/>
<text text-anchor="middle" x="492.12" y="-84.58" font-family="Times New Roman,serif" font-size="14.00">(12) place_impl </text>
</g>
<!-- 7&#45;&gt;12 -->
<g id="edge11" class="edge">
<title>7&#45;&gt;12</title>
<path fill="none" stroke="black" d="M407.94,-143.52C422.49,-134.45 439.96,-123.55 455.21,-114.03"/>
<polygon fill="black" stroke="black" points="456.74,-116.58 463.37,-108.32 453.03,-110.64 456.74,-116.58"/>
</g>
<!-- 13 -->
<g id="node13" class="node">
<title>13</title>
<polygon fill="none" stroke="green" points="427.12,-36 327.12,-36 327.12,-32 323.12,-32 323.12,-28 327.12,-28 327.12,-8 323.12,-8 323.12,-4 327.12,-4 327.12,0 427.12,0 427.12,-36"/>
<polyline fill="none" stroke="green" points="327.12,-32 331.12,-32 331.12,-28 327.12,-28"/>
<polyline fill="none" stroke="green" points="327.12,-8 331.12,-8 331.12,-4 327.12,-4"/>
<text text-anchor="middle" x="377.12" y="-12.57" font-family="Times New Roman,serif" font-size="14.00">(13) is_picked </text>
</g>
<!-- 11&#45;&gt;13 -->
<g id="edge12" class="edge">
<title>11&#45;&gt;13</title>
<path fill="none" stroke="black" d="M377.12,-71.7C377.12,-64.24 377.12,-55.32 377.12,-46.97"/>
<polygon fill="black" stroke="black" points="380.63,-47.1 377.12,-37.1 373.63,-47.1 380.63,-47.1"/>
</g>
</g>
</svg>
