<?xml version="1.0" encoding="UTF-8" standalone="no"?>
<!DOCTYPE svg PUBLIC "-//W3C//DTD SVG 1.1//EN"
 "http://www.w3.org/Graphics/SVG/1.1/DTD/svg11.dtd">
<!-- Generated by graphviz version 8.0.5 (20230430.1635)
 -->
<!-- Pages: 1 -->
<svg width="1068pt" height="1077pt"
 viewBox="0.00 0.00 1067.88 1076.50" xmlns="http://www.w3.org/2000/svg" xmlns:xlink="http://www.w3.org/1999/xlink">
<g id="graph0" class="graph" transform="scale(1 1) rotate(0) translate(4 1072.5)">
<polygon fill="white" stroke="none" points="-4,4 -4,-1072.5 1063.88,-1072.5 1063.88,4 -4,4"/>
<!-- 1 -->
<g id="node1" class="node">
<title>1</title>
<polygon fill="none" stroke="black" points="568.88,-1068.5 510.12,-1068.5 510.12,-1029 568.88,-1029 568.88,-1068.5"/>
<text text-anchor="middle" x="539.5" y="-1051.2" font-family="Times New Roman,serif" font-size="14.00">(1) root</text>
<text text-anchor="middle" x="539.5" y="-1035.45" font-family="Times New Roman,serif" font-size="14.00">main </text>
</g>
<!-- 2 -->
<g id="node2" class="node">
<title>2</title>
<polygon fill="none" stroke="blue" points="585,-993 494,-993 494,-957 585,-957 585,-993"/>
<text text-anchor="middle" x="539.5" y="-969.58" font-family="Times New Roman,serif" font-size="14.00">(2) r_fallback</text>
</g>
<!-- 1&#45;&gt;2 -->
<g id="edge1" class="edge">
<title>1&#45;&gt;2</title>
<path fill="none" stroke="black" d="M539.5,-1028.52C539.5,-1021.07 539.5,-1012.4 539.5,-1004.26"/>
<polygon fill="black" stroke="black" points="543,-1004.32 539.5,-994.32 536,-1004.32 543,-1004.32"/>
</g>
<!-- 3 -->
<g id="node3" class="node">
<title>3</title>
<polygon fill="none" stroke="darkred" points="736.88,-921 342.12,-921 342.12,-881.5 736.88,-881.5 736.88,-921"/>
<text text-anchor="middle" x="539.5" y="-903.7" font-family="Times New Roman,serif" font-size="14.00">(3) r_sequence</text>
<text text-anchor="middle" x="539.5" y="-887.95" font-family="Times New Roman,serif" font-size="14.00">if_else (test=battery_low(&lt;&gt;),then=with_flag(&lt;&gt;),else=do_job(&lt;&gt;))</text>
</g>
<!-- 2&#45;&gt;3 -->
<g id="edge2" class="edge">
<title>2&#45;&gt;3</title>
<path fill="none" stroke="black" d="M539.5,-956.63C539.5,-949.33 539.5,-940.62 539.5,-932.34"/>
<polygon fill="black" stroke="black" points="543,-932.48 539.5,-922.48 536,-932.48 543,-932.48"/>
</g>
<!-- 4 -->
<g id="node4" class="node">
<title>4</title>
<polygon fill="none" stroke="blue" points="502,-843.75 411,-843.75 411,-807.75 502,-807.75 502,-843.75"/>
<text text-anchor="middle" x="456.5" y="-820.33" font-family="Times New Roman,serif" font-size="14.00">(4) r_fallback</text>
</g>
<!-- 3&#45;&gt;4 -->
<g id="edge3" class="edge">
<title>3&#45;&gt;4</title>
<path fill="none" stroke="black" d="M518.13,-881.32C507.79,-872.17 495.26,-861.07 484.2,-851.28"/>
<polygon fill="black" stroke="black" points="486.9,-849.11 477.1,-845.1 482.26,-854.35 486.9,-849.11"/>
</g>
<!-- 5 -->
<g id="node5" class="node">
<title>5</title>
<polygon fill="none" stroke="blue" points="727.12,-845.5 519.88,-845.5 519.88,-806 727.12,-806 727.12,-845.5"/>
<text text-anchor="middle" x="623.5" y="-828.2" font-family="Times New Roman,serif" font-size="14.00">(5) r_fallback</text>
<text text-anchor="middle" x="623.5" y="-812.45" font-family="Times New Roman,serif" font-size="14.00">with_flag (action=to_charger(&lt;&gt;))</text>
</g>
<!-- 3&#45;&gt;5 -->
<g id="edge4" class="edge">
<title>3&#45;&gt;5</title>
<path fill="none" stroke="black" d="M561.13,-881.32C570.95,-872.73 582.73,-862.42 593.39,-853.09"/>
<polygon fill="black" stroke="black" points="595.43,-855.09 600.65,-845.87 590.82,-849.82 595.43,-855.09"/>
</g>
<!-- 6 -->
<g id="node6" class="node">
<title>6</title>
<polygon fill="none" stroke="green" points="414.12,-768.25 308.88,-768.25 308.88,-764.25 304.88,-764.25 304.88,-760.25 308.88,-760.25 308.88,-740.25 304.88,-740.25 304.88,-736.25 308.88,-736.25 308.88,-732.25 414.12,-732.25 414.12,-768.25"/>
<polyline fill="none" stroke="green" points="308.88,-764.25 312.88,-764.25 312.88,-760.25 308.88,-760.25"/>
<polyline fill="none" stroke="green" points="308.88,-740.25 312.88,-740.25 312.88,-736.25 308.88,-736.25"/>
<text text-anchor="middle" x="361.5" y="-744.83" font-family="Times New Roman,serif" font-size="14.00">(6) battery_low </text>
</g>
<!-- 4&#45;&gt;6 -->
<g id="edge5" class="edge">
<title>4&#45;&gt;6</title>
<path fill="none" stroke="black" d="M433.99,-807.33C421.56,-797.72 405.95,-785.64 392.4,-775.16"/>
<polygon fill="black" stroke="black" points="394.9,-771.89 384.85,-768.54 390.62,-777.43 394.9,-771.89"/>
</g>
<!-- 7 -->
<g id="node7" class="node">
<title>7</title>
<polygon fill="none" stroke="green" points="512.38,-768.25 432.62,-768.25 432.62,-764.25 428.62,-764.25 428.62,-760.25 432.62,-760.25 432.62,-740.25 428.62,-740.25 428.62,-736.25 432.62,-736.25 432.62,-732.25 512.38,-732.25 512.38,-768.25"/>
<polyline fill="none" stroke="green" points="432.62,-764.25 436.62,-764.25 436.62,-760.25 432.62,-760.25"/>
<polyline fill="none" stroke="green" points="432.62,-740.25 436.62,-740.25 436.62,-736.25 432.62,-736.25"/>
<text text-anchor="middle" x="472.5" y="-744.83" font-family="Times New Roman,serif" font-size="14.00">(7) do_job </text>
</g>
<!-- 4&#45;&gt;7 -->
<g id="edge6" class="edge">
<title>4&#45;&gt;7</title>
<path fill="none" stroke="black" d="M460.29,-807.33C462.12,-798.91 464.37,-788.6 466.43,-779.12"/>
<polygon fill="black" stroke="black" points="470.03,-780.06 468.74,-769.54 463.19,-778.57 470.03,-780.06"/>
</g>
<!-- 8 -->
<g id="node8" class="node">
<title>8</title>
<polygon fill="none" stroke="green" points="653.38,-768.25 561.62,-768.25 561.62,-764.25 557.62,-764.25 557.62,-760.25 561.62,-760.25 561.62,-740.25 557.62,-740.25 557.62,-736.25 561.62,-736.25 561.62,-732.25 653.38,-732.25 653.38,-768.25"/>
<polyline fill="none" stroke="green" points="561.62,-764.25 565.62,-764.25 565.62,-760.25 561.62,-760.25"/>
<polyline fill="none" stroke="green" points="561.62,-740.25 565.62,-740.25 565.62,-736.25 561.62,-736.25"/>
<text text-anchor="middle" x="607.5" y="-744.83" font-family="Times New Roman,serif" font-size="14.00">(8) stop_flag </text>
</g>
<!-- 5&#45;&gt;8 -->
<g id="edge7" class="edge">
<title>5&#45;&gt;8</title>
<path fill="none" stroke="black" d="M619.38,-805.82C617.62,-797.75 615.53,-788.16 613.6,-779.29"/>
<polygon fill="black" stroke="black" points="616.82,-778.63 611.28,-769.6 609.98,-780.12 616.82,-778.63"/>
</g>
<!-- 9 -->
<g id="node9" class="node">
<title>9</title>
<polygon fill="none" stroke="blue" points="875.25,-770 671.75,-770 671.75,-730.5 875.25,-730.5 875.25,-770"/>
<text text-anchor="middle" x="773.5" y="-752.7" font-family="Times New Roman,serif" font-size="14.00">(9) r_fallback</text>
<text text-anchor="middle" x="773.5" y="-736.95" font-family="Times New Roman,serif" font-size="14.00">to_charger (charger_station={..})</text>
</g>
<!-- 5&#45;&gt;9 -->
<g id="edge8" class="edge">
<title>5&#45;&gt;9</title>
<path fill="none" stroke="black" d="M662.52,-805.63C681.54,-796.31 704.61,-785.01 724.78,-775.12"/>
<polygon fill="black" stroke="black" points="725.98,-777.94 733.42,-770.4 722.9,-771.66 725.98,-777.94"/>
</g>
<!-- 10 -->
<g id="node10" class="node">
<title>10</title>
<polygon fill="none" stroke="blue" points="815,-694.5 526,-694.5 526,-655 815,-655 815,-694.5"/>
<text text-anchor="middle" x="670.5" y="-677.2" font-family="Times New Roman,serif" font-size="14.00">(10) r_fallback</text>
<text text-anchor="middle" x="670.5" y="-661.45" font-family="Times New Roman,serif" font-size="14.00">retry_with_delay (attempts=10,trg=r_sequence..)</text>
</g>
<!-- 9&#45;&gt;10 -->
<g id="edge9" class="edge">
<title>9&#45;&gt;10</title>
<path fill="none" stroke="black" d="M746.71,-730.13C734.31,-721.28 719.41,-710.65 706.08,-701.14"/>
<polygon fill="black" stroke="black" points="708.33,-697.73 698.16,-694.77 704.27,-703.43 708.33,-697.73"/>
</g>
<!-- 11 -->
<g id="node11" class="node">
<title>11</title>
<polygon fill="none" stroke="green" points="920.12,-692.75 832.88,-692.75 832.88,-688.75 828.88,-688.75 828.88,-684.75 832.88,-684.75 832.88,-664.75 828.88,-664.75 828.88,-660.75 832.88,-660.75 832.88,-656.75 920.12,-656.75 920.12,-692.75"/>
<polyline fill="none" stroke="green" points="832.88,-688.75 836.88,-688.75 836.88,-684.75 832.88,-684.75"/>
<polyline fill="none" stroke="green" points="832.88,-664.75 836.88,-664.75 836.88,-660.75 832.88,-660.75"/>
<text text-anchor="middle" x="876.5" y="-669.33" font-family="Times New Roman,serif" font-size="14.00">(11) running </text>
</g>
<!-- 9&#45;&gt;11 -->
<g id="edge10" class="edge">
<title>9&#45;&gt;11</title>
<path fill="none" stroke="black" d="M800.29,-730.13C813.5,-720.71 829.54,-709.26 843.49,-699.31"/>
<polygon fill="black" stroke="black" points="845.2,-701.67 851.31,-693.02 841.13,-695.97 845.2,-701.67"/>
</g>
<!-- 12 -->
<g id="node12" class="node">
<title>12</title>
<polygon fill="none" stroke="purple" points="683.12,-619 541.88,-619 541.88,-623 529.88,-623 529.88,-583 683.12,-583 683.12,-619"/>
<polyline fill="none" stroke="purple" points="529.88,-619 541.88,-619"/>
<text text-anchor="middle" x="606.5" y="-595.58" font-family="Times New Roman,serif" font-size="14.00">(12) retry (arg=attempts)</text>
</g>
<!-- 10&#45;&gt;12 -->
<g id="edge11" class="edge">
<title>10&#45;&gt;12</title>
<path fill="none" stroke="black" d="M653.35,-654.52C645.94,-646.22 637.17,-636.38 629.23,-627.48"/>
<polygon fill="black" stroke="black" points="632.22,-625.45 622.95,-620.32 626.99,-630.11 632.22,-625.45"/>
</g>
<!-- 13 -->
<g id="node13" class="node">
<title>13</title>
<polygon fill="none" stroke="green" points="769.75,-619 701.25,-619 701.25,-615 697.25,-615 697.25,-611 701.25,-611 701.25,-591 697.25,-591 697.25,-587 701.25,-587 701.25,-583 769.75,-583 769.75,-619"/>
<polyline fill="none" stroke="green" points="701.25,-615 705.25,-615 705.25,-611 701.25,-611"/>
<polyline fill="none" stroke="green" points="701.25,-591 705.25,-591 705.25,-587 701.25,-587"/>
<text text-anchor="middle" x="735.5" y="-595.58" font-family="Times New Roman,serif" font-size="14.00">(13) wait </text>
</g>
<!-- 10&#45;&gt;13 -->
<g id="edge12" class="edge">
<title>10&#45;&gt;13</title>
<path fill="none" stroke="black" d="M687.92,-654.52C695.52,-646.13 704.53,-636.18 712.66,-627.21"/>
<polygon fill="black" stroke="black" points="714.69,-630.08 718.81,-620.32 709.5,-625.38 714.69,-630.08"/>
</g>
<!-- 14 -->
<g id="node14" class="node">
<title>14</title>
<polygon fill="none" stroke="blue" points="649.38,-547 563.62,-547 563.62,-511 649.38,-511 649.38,-547"/>
<text text-anchor="middle" x="606.5" y="-523.58" font-family="Times New Roman,serif" font-size="14.00">(14) fallback</text>
</g>
<!-- 12&#45;&gt;14 -->
<g id="edge13" class="edge">
<title>12&#45;&gt;14</title>
<path fill="none" stroke="black" d="M606.5,-582.7C606.5,-575.24 606.5,-566.32 606.5,-557.97"/>
<polygon fill="black" stroke="black" points="610,-558.1 606.5,-548.1 603,-558.1 610,-558.1"/>
</g>
<!-- 15 -->
<g id="node15" class="node">
<title>15</title>
<polygon fill="none" stroke="darkred" points="554.5,-475 448.5,-475 448.5,-439 554.5,-439 554.5,-475"/>
<text text-anchor="middle" x="501.5" y="-451.57" font-family="Times New Roman,serif" font-size="14.00">(15) r_sequence</text>
</g>
<!-- 14&#45;&gt;15 -->
<g id="edge14" class="edge">
<title>14&#45;&gt;15</title>
<path fill="none" stroke="black" d="M580.27,-510.52C567.02,-501.68 550.76,-490.84 536.45,-481.3"/>
<polygon fill="black" stroke="black" points="538.65,-477.9 528.39,-475.26 534.77,-483.72 538.65,-477.9"/>
</g>
<!-- 16 -->
<g id="node16" class="node">
<title>16</title>
<polygon fill="none" stroke="green" points="640.75,-475 572.25,-475 572.25,-471 568.25,-471 568.25,-467 572.25,-467 572.25,-447 568.25,-447 568.25,-443 572.25,-443 572.25,-439 640.75,-439 640.75,-475"/>
<polyline fill="none" stroke="green" points="572.25,-471 576.25,-471 576.25,-467 572.25,-467"/>
<polyline fill="none" stroke="green" points="572.25,-447 576.25,-447 576.25,-443 572.25,-443"/>
<text text-anchor="middle" x="606.5" y="-451.57" font-family="Times New Roman,serif" font-size="14.00">(16) wait </text>
</g>
<!-- 14&#45;&gt;16 -->
<g id="edge15" class="edge">
<title>14&#45;&gt;16</title>
<path fill="none" stroke="black" d="M606.5,-510.7C606.5,-503.24 606.5,-494.32 606.5,-485.97"/>
<polygon fill="black" stroke="black" points="610,-486.1 606.5,-476.1 603,-486.1 610,-486.1"/>
</g>
<!-- 17 -->
<g id="node17" class="node">
<title>17</title>
<polygon fill="none" stroke="green" points="763.75,-475 659.25,-475 659.25,-471 655.25,-471 655.25,-467 659.25,-467 659.25,-447 655.25,-447 655.25,-443 659.25,-443 659.25,-439 763.75,-439 763.75,-475"/>
<polyline fill="none" stroke="green" points="659.25,-471 663.25,-471 663.25,-467 659.25,-467"/>
<polyline fill="none" stroke="green" points="659.25,-447 663.25,-447 663.25,-443 659.25,-443"/>
<text text-anchor="middle" x="711.5" y="-451.57" font-family="Times New Roman,serif" font-size="14.00">(17) fail_empty </text>
</g>
<!-- 14&#45;&gt;17 -->
<g id="edge16" class="edge">
<title>14&#45;&gt;17</title>
<path fill="none" stroke="black" d="M632.73,-510.52C645.98,-501.68 662.24,-490.84 676.55,-481.3"/>
<polygon fill="black" stroke="black" points="678.23,-483.72 684.61,-475.26 674.35,-477.9 678.23,-483.72"/>
</g>
<!-- 18 -->
<g id="node18" class="node">
<title>18</title>
<polygon fill="none" stroke="darkred" points="501,-403 50,-403 50,-363.5 501,-363.5 501,-403"/>
<text text-anchor="middle" x="275.5" y="-385.7" font-family="Times New Roman,serif" font-size="14.00">(18) r_sequence</text>
<text text-anchor="middle" x="275.5" y="-369.95" font-family="Times New Roman,serif" font-size="14.00">if_else (test=is_hazard_nearby(&lt;&gt;),then=wait(&lt;&gt;),else=retry_with_delay(&lt;&gt;))</text>
</g>
<!-- 15&#45;&gt;18 -->
<g id="edge17" class="edge">
<title>15&#45;&gt;18</title>
<path fill="none" stroke="black" d="M448.23,-439.09C417.85,-429.44 379.38,-417.23 346.47,-406.78"/>
<polygon fill="black" stroke="black" points="347.58,-403.15 336.99,-403.46 345.47,-409.82 347.58,-403.15"/>
</g>
<!-- 19 -->
<g id="node19" class="node">
<title>19</title>
<polygon fill="none" stroke="darkred" points="938.25,-403 518.75,-403 518.75,-363.5 938.25,-363.5 938.25,-403"/>
<text text-anchor="middle" x="728.5" y="-385.7" font-family="Times New Roman,serif" font-size="14.00">(19) r_sequence</text>
<text text-anchor="middle" x="728.5" y="-369.95" font-family="Times New Roman,serif" font-size="14.00">if_else (test=on_target(&lt;&gt;),then=charge(&lt;&gt;),else=retry_with_delay(&lt;&gt;))</text>
</g>
<!-- 15&#45;&gt;19 -->
<g id="edge18" class="edge">
<title>15&#45;&gt;19</title>
<path fill="none" stroke="black" d="M554.72,-439.18C585.48,-429.46 624.56,-417.1 657.86,-406.58"/>
<polygon fill="black" stroke="black" points="658.52,-409.72 667,-403.37 656.41,-403.05 658.52,-409.72"/>
</g>
<!-- 20 -->
<g id="node20" class="node">
<title>20</title>
<polygon fill="none" stroke="blue" points="258.38,-327.5 160.62,-327.5 160.62,-291.5 258.38,-291.5 258.38,-327.5"/>
<text text-anchor="middle" x="209.5" y="-304.07" font-family="Times New Roman,serif" font-size="14.00">(20) r_fallback</text>
</g>
<!-- 18&#45;&gt;20 -->
<g id="edge19" class="edge">
<title>18&#45;&gt;20</title>
<path fill="none" stroke="black" d="M257.81,-363.02C250.1,-354.63 240.94,-344.68 232.69,-335.71"/>
<polygon fill="black" stroke="black" points="235.78,-333.81 226.43,-328.82 230.62,-338.55 235.78,-333.81"/>
</g>
<!-- 21 -->
<g id="node21" class="node">
<title>21</title>
<polygon fill="none" stroke="green" points="344.75,-327.5 276.25,-327.5 276.25,-323.5 272.25,-323.5 272.25,-319.5 276.25,-319.5 276.25,-299.5 272.25,-299.5 272.25,-295.5 276.25,-295.5 276.25,-291.5 344.75,-291.5 344.75,-327.5"/>
<polyline fill="none" stroke="green" points="276.25,-323.5 280.25,-323.5 280.25,-319.5 276.25,-319.5"/>
<polyline fill="none" stroke="green" points="276.25,-299.5 280.25,-299.5 280.25,-295.5 276.25,-295.5"/>
<text text-anchor="middle" x="310.5" y="-304.07" font-family="Times New Roman,serif" font-size="14.00">(21) wait </text>
</g>
<!-- 18&#45;&gt;21 -->
<g id="edge20" class="edge">
<title>18&#45;&gt;21</title>
<path fill="none" stroke="black" d="M284.88,-363.02C288.68,-355.23 293.14,-346.09 297.26,-337.65"/>
<polygon fill="black" stroke="black" points="300.81,-339.34 302.05,-328.82 294.52,-336.27 300.81,-339.34"/>
</g>
<!-- 22 -->
<g id="node22" class="node">
<title>22</title>
<polygon fill="none" stroke="blue" points="723.38,-327.5 625.62,-327.5 625.62,-291.5 723.38,-291.5 723.38,-327.5"/>
<text text-anchor="middle" x="674.5" y="-304.07" font-family="Times New Roman,serif" font-size="14.00">(22) r_fallback</text>
</g>
<!-- 19&#45;&gt;22 -->
<g id="edge21" class="edge">
<title>19&#45;&gt;22</title>
<path fill="none" stroke="black" d="M714.03,-363.02C707.91,-354.89 700.68,-345.29 694.09,-336.54"/>
<polygon fill="black" stroke="black" points="696.34,-334.7 687.53,-328.82 690.75,-338.91 696.34,-334.7"/>
</g>
<!-- 23 -->
<g id="node23" class="node">
<title>23</title>
<polygon fill="none" stroke="green" points="823.88,-327.5 741.12,-327.5 741.12,-323.5 737.12,-323.5 737.12,-319.5 741.12,-319.5 741.12,-299.5 737.12,-299.5 737.12,-295.5 741.12,-295.5 741.12,-291.5 823.88,-291.5 823.88,-327.5"/>
<polyline fill="none" stroke="green" points="741.12,-323.5 745.12,-323.5 745.12,-319.5 741.12,-319.5"/>
<polyline fill="none" stroke="green" points="741.12,-299.5 745.12,-299.5 745.12,-295.5 741.12,-295.5"/>
<text text-anchor="middle" x="782.5" y="-304.07" font-family="Times New Roman,serif" font-size="14.00">(23) charge </text>
</g>
<!-- 19&#45;&gt;23 -->
<g id="edge22" class="edge">
<title>19&#45;&gt;23</title>
<path fill="none" stroke="black" d="M742.97,-363.02C749.09,-354.89 756.32,-345.29 762.91,-336.54"/>
<polygon fill="black" stroke="black" points="766.25,-338.91 769.47,-328.82 760.66,-334.7 766.25,-338.91"/>
</g>
<!-- 24 -->
<g id="node24" class="node">
<title>24</title>
<polygon fill="none" stroke="green" points="164.62,-253.75 20.38,-253.75 20.38,-249.75 16.38,-249.75 16.38,-245.75 20.38,-245.75 20.38,-225.75 16.38,-225.75 16.38,-221.75 20.38,-221.75 20.38,-217.75 164.62,-217.75 164.62,-253.75"/>
<polyline fill="none" stroke="green" points="20.38,-249.75 24.38,-249.75 24.38,-245.75 20.38,-245.75"/>
<polyline fill="none" stroke="green" points="20.38,-225.75 24.38,-225.75 24.38,-221.75 20.38,-221.75"/>
<text text-anchor="middle" x="92.5" y="-230.32" font-family="Times New Roman,serif" font-size="14.00">(24) is_hazard_nearby </text>
</g>
<!-- 20&#45;&gt;24 -->
<g id="edge23" class="edge">
<title>20&#45;&gt;24</title>
<path fill="none" stroke="black" d="M181.18,-291.13C165.77,-281.68 146.52,-269.88 129.89,-259.68"/>
<polygon fill="black" stroke="black" points="132.32,-256.45 121.97,-254.21 128.66,-262.42 132.32,-256.45"/>
</g>
<!-- 25 -->
<g id="node25" class="node">
<title>25</title>
<polygon fill="none" stroke="blue" points="475.88,-255.5 183.12,-255.5 183.12,-216 475.88,-216 475.88,-255.5"/>
<text text-anchor="middle" x="329.5" y="-238.2" font-family="Times New Roman,serif" font-size="14.00">(25) r_fallback</text>
<text text-anchor="middle" x="329.5" y="-222.45" font-family="Times New Roman,serif" font-size="14.00">retry_with_delay (attempts=10,trg=move_to(&lt;&gt;))</text>
</g>
<!-- 20&#45;&gt;25 -->
<g id="edge24" class="edge">
<title>20&#45;&gt;25</title>
<path fill="none" stroke="black" d="M238.55,-291.13C253.39,-282.26 271.72,-271.3 288.02,-261.55"/>
<polygon fill="black" stroke="black" points="289.56,-264.11 296.34,-255.98 285.96,-258.11 289.56,-264.11"/>
</g>
<!-- 26 -->
<g id="node26" class="node">
<title>26</title>
<polygon fill="none" stroke="green" points="749.5,-253.75 517.5,-253.75 517.5,-249.75 513.5,-249.75 513.5,-245.75 517.5,-245.75 517.5,-225.75 513.5,-225.75 513.5,-221.75 517.5,-221.75 517.5,-217.75 749.5,-217.75 749.5,-253.75"/>
<polyline fill="none" stroke="green" points="517.5,-249.75 521.5,-249.75 521.5,-245.75 517.5,-245.75"/>
<polyline fill="none" stroke="green" points="517.5,-225.75 521.5,-225.75 521.5,-221.75 517.5,-221.75"/>
<text text-anchor="middle" x="633.5" y="-230.32" font-family="Times New Roman,serif" font-size="14.00">(26) on_target (target=charger_station)</text>
</g>
<!-- 22&#45;&gt;26 -->
<g id="edge25" class="edge">
<title>22&#45;&gt;26</title>
<path fill="none" stroke="black" d="M664.58,-291.13C659.88,-282.91 654.16,-272.9 648.91,-263.72"/>
<polygon fill="black" stroke="black" points="651.48,-262.15 643.48,-255.21 645.4,-265.63 651.48,-262.15"/>
</g>
<!-- 27 -->
<g id="node27" class="node">
<title>27</title>
<polygon fill="none" stroke="blue" points="1059.88,-255.5 767.12,-255.5 767.12,-216 1059.88,-216 1059.88,-255.5"/>
<text text-anchor="middle" x="913.5" y="-238.2" font-family="Times New Roman,serif" font-size="14.00">(27) r_fallback</text>
<text text-anchor="middle" x="913.5" y="-222.45" font-family="Times New Roman,serif" font-size="14.00">retry_with_delay (attempts=10,trg=move_to(&lt;&gt;))</text>
</g>
<!-- 22&#45;&gt;27 -->
<g id="edge26" class="edge">
<title>22&#45;&gt;27</title>
<path fill="none" stroke="black" d="M723.73,-293.72C757.08,-283.71 801.76,-270.3 839.38,-259"/>
<polygon fill="black" stroke="black" points="840.22,-262.1 848.79,-255.88 838.21,-255.4 840.22,-262.1"/>
</g>
<!-- 28 -->
<g id="node28" class="node">
<title>28</title>
<polygon fill="none" stroke="purple" points="358.12,-180 216.88,-180 216.88,-184 204.88,-184 204.88,-144 358.12,-144 358.12,-180"/>
<polyline fill="none" stroke="purple" points="204.88,-180 216.88,-180"/>
<text text-anchor="middle" x="281.5" y="-156.57" font-family="Times New Roman,serif" font-size="14.00">(28) retry (arg=attempts)</text>
</g>
<!-- 25&#45;&gt;28 -->
<g id="edge27" class="edge">
<title>25&#45;&gt;28</title>
<path fill="none" stroke="black" d="M316.64,-215.52C311.25,-207.47 304.91,-197.99 299.1,-189.31"/>
<polygon fill="black" stroke="black" points="301.55,-187.68 293.09,-181.32 295.74,-191.57 301.55,-187.68"/>
</g>
<!-- 29 -->
<g id="node29" class="node">
<title>29</title>
<polygon fill="none" stroke="green" points="444.75,-180 376.25,-180 376.25,-176 372.25,-176 372.25,-172 376.25,-172 376.25,-152 372.25,-152 372.25,-148 376.25,-148 376.25,-144 444.75,-144 444.75,-180"/>
<polyline fill="none" stroke="green" points="376.25,-176 380.25,-176 380.25,-172 376.25,-172"/>
<polyline fill="none" stroke="green" points="376.25,-152 380.25,-152 380.25,-148 376.25,-148"/>
<text text-anchor="middle" x="410.5" y="-156.57" font-family="Times New Roman,serif" font-size="14.00">(29) wait </text>
</g>
<!-- 25&#45;&gt;29 -->
<g id="edge28" class="edge">
<title>25&#45;&gt;29</title>
<path fill="none" stroke="black" d="M351.21,-215.52C360.97,-206.88 372.6,-196.57 382.97,-187.39"/>
<polygon fill="black" stroke="black" points="384.79,-190.57 389.95,-181.32 380.14,-185.33 384.79,-190.57"/>
</g>
<!-- 30 -->
<g id="node30" class="node">
<title>30</title>
<polygon fill="none" stroke="purple" points="885.12,-180 743.88,-180 743.88,-184 731.88,-184 731.88,-144 885.12,-144 885.12,-180"/>
<polyline fill="none" stroke="purple" points="731.88,-180 743.88,-180"/>
<text text-anchor="middle" x="808.5" y="-156.57" font-family="Times New Roman,serif" font-size="14.00">(30) retry (arg=attempts)</text>
</g>
<!-- 27&#45;&gt;30 -->
<g id="edge29" class="edge">
<title>27&#45;&gt;30</title>
<path fill="none" stroke="black" d="M885.36,-215.52C872.21,-206.53 856.43,-195.75 842.6,-186.3"/>
<polygon fill="black" stroke="black" points="845.07,-183.07 834.84,-180.32 841.12,-188.85 845.07,-183.07"/>
</g>
<!-- 31 -->
<g id="node31" class="node">
<title>31</title>
<polygon fill="none" stroke="green" points="971.75,-180 903.25,-180 903.25,-176 899.25,-176 899.25,-172 903.25,-172 903.25,-152 899.25,-152 899.25,-148 903.25,-148 903.25,-144 971.75,-144 971.75,-180"/>
<polyline fill="none" stroke="green" points="903.25,-176 907.25,-176 907.25,-172 903.25,-172"/>
<polyline fill="none" stroke="green" points="903.25,-152 907.25,-152 907.25,-148 903.25,-148"/>
<text text-anchor="middle" x="937.5" y="-156.57" font-family="Times New Roman,serif" font-size="14.00">(31) wait </text>
</g>
<!-- 27&#45;&gt;31 -->
<g id="edge30" class="edge">
<title>27&#45;&gt;31</title>
<path fill="none" stroke="black" d="M919.93,-215.52C922.48,-207.9 925.46,-199 928.23,-190.7"/>
<polygon fill="black" stroke="black" points="931.85,-191.91 931.71,-181.32 925.22,-189.69 931.85,-191.91"/>
</g>
<!-- 32 -->
<g id="node32" class="node">
<title>32</title>
<polygon fill="none" stroke="blue" points="324.38,-108 238.62,-108 238.62,-72 324.38,-72 324.38,-108"/>
<text text-anchor="middle" x="281.5" y="-84.58" font-family="Times New Roman,serif" font-size="14.00">(32) fallback</text>
</g>
<!-- 28&#45;&gt;32 -->
<g id="edge31" class="edge">
<title>28&#45;&gt;32</title>
<path fill="none" stroke="black" d="M281.5,-143.7C281.5,-136.24 281.5,-127.32 281.5,-118.97"/>
<polygon fill="black" stroke="black" points="285,-119.1 281.5,-109.1 278,-119.1 285,-119.1"/>
</g>
<!-- 33 -->
<g id="node33" class="node">
<title>33</title>
<polygon fill="none" stroke="blue" points="851.38,-108 765.62,-108 765.62,-72 851.38,-72 851.38,-108"/>
<text text-anchor="middle" x="808.5" y="-84.58" font-family="Times New Roman,serif" font-size="14.00">(33) fallback</text>
</g>
<!-- 30&#45;&gt;33 -->
<g id="edge32" class="edge">
<title>30&#45;&gt;33</title>
<path fill="none" stroke="black" d="M808.5,-143.7C808.5,-136.24 808.5,-127.32 808.5,-118.97"/>
<polygon fill="black" stroke="black" points="812,-119.1 808.5,-109.1 805,-119.1 812,-119.1"/>
</g>
<!-- 34 -->
<g id="node34" class="node">
<title>34</title>
<polygon fill="none" stroke="green" points="229,-36 0,-36 0,-32 -4,-32 -4,-28 0,-28 0,-8 -4,-8 -4,-4 0,-4 0,0 229,0 229,-36"/>
<polyline fill="none" stroke="green" points="0,-32 4,-32 4,-28 0,-28"/>
<polyline fill="none" stroke="green" points="0,-8 4,-8 4,-4 0,-4"/>
<text text-anchor="middle" x="114.5" y="-12.57" font-family="Times New Roman,serif" font-size="14.00">(34) move_to (target=charger_station)</text>
</g>
<!-- 32&#45;&gt;34 -->
<g id="edge33" class="edge">
<title>32&#45;&gt;34</title>
<path fill="none" stroke="black" d="M239.79,-71.52C217.39,-62.13 189.58,-50.47 165.86,-40.53"/>
<polygon fill="black" stroke="black" points="167.54,-37.02 156.97,-36.38 164.84,-43.48 167.54,-37.02"/>
</g>
<!-- 35 -->
<g id="node35" class="node">
<title>35</title>
<polygon fill="none" stroke="green" points="315.75,-36 247.25,-36 247.25,-32 243.25,-32 243.25,-28 247.25,-28 247.25,-8 243.25,-8 243.25,-4 247.25,-4 247.25,0 315.75,0 315.75,-36"/>
<polyline fill="none" stroke="green" points="247.25,-32 251.25,-32 251.25,-28 247.25,-28"/>
<polyline fill="none" stroke="green" points="247.25,-8 251.25,-8 251.25,-4 247.25,-4"/>
<text text-anchor="middle" x="281.5" y="-12.57" font-family="Times New Roman,serif" font-size="14.00">(35) wait </text>
</g>
<!-- 32&#45;&gt;35 -->
<g id="edge34" class="edge">
<title>32&#45;&gt;35</title>
<path fill="none" stroke="black" d="M281.5,-71.7C281.5,-64.24 281.5,-55.32 281.5,-46.97"/>
<polygon fill="black" stroke="black" points="285,-47.1 281.5,-37.1 278,-47.1 285,-47.1"/>
</g>
<!-- 36 -->
<g id="node36" class="node">
<title>36</title>
<polygon fill="none" stroke="green" points="438.75,-36 334.25,-36 334.25,-32 330.25,-32 330.25,-28 334.25,-28 334.25,-8 330.25,-8 330.25,-4 334.25,-4 334.25,0 438.75,0 438.75,-36"/>
<polyline fill="none" stroke="green" points="334.25,-32 338.25,-32 338.25,-28 334.25,-28"/>
<polyline fill="none" stroke="green" points="334.25,-8 338.25,-8 338.25,-4 334.25,-4"/>
<text text-anchor="middle" x="386.5" y="-12.57" font-family="Times New Roman,serif" font-size="14.00">(36) fail_empty </text>
</g>
<!-- 32&#45;&gt;36 -->
<g id="edge35" class="edge">
<title>32&#45;&gt;36</title>
<path fill="none" stroke="black" d="M307.73,-71.52C320.98,-62.68 337.24,-51.84 351.55,-42.3"/>
<polygon fill="black" stroke="black" points="353.23,-44.72 359.61,-36.26 349.35,-38.9 353.23,-44.72"/>
</g>
<!-- 37 -->
<g id="node37" class="node">
<title>37</title>
<polygon fill="none" stroke="green" points="756,-36 527,-36 527,-32 523,-32 523,-28 527,-28 527,-8 523,-8 523,-4 527,-4 527,0 756,0 756,-36"/>
<polyline fill="none" stroke="green" points="527,-32 531,-32 531,-28 527,-28"/>
<polyline fill="none" stroke="green" points="527,-8 531,-8 531,-4 527,-4"/>
<text text-anchor="middle" x="641.5" y="-12.57" font-family="Times New Roman,serif" font-size="14.00">(37) move_to (target=charger_station)</text>
</g>
<!-- 33&#45;&gt;37 -->
<g id="edge36" class="edge">
<title>33&#45;&gt;37</title>
<path fill="none" stroke="black" d="M766.79,-71.52C744.39,-62.13 716.58,-50.47 692.86,-40.53"/>
<polygon fill="black" stroke="black" points="694.54,-37.02 683.97,-36.38 691.84,-43.48 694.54,-37.02"/>
</g>
<!-- 38 -->
<g id="node38" class="node">
<title>38</title>
<polygon fill="none" stroke="green" points="842.75,-36 774.25,-36 774.25,-32 770.25,-32 770.25,-28 774.25,-28 774.25,-8 770.25,-8 770.25,-4 774.25,-4 774.25,0 842.75,0 842.75,-36"/>
<polyline fill="none" stroke="green" points="774.25,-32 778.25,-32 778.25,-28 774.25,-28"/>
<polyline fill="none" stroke="green" points="774.25,-8 778.25,-8 778.25,-4 774.25,-4"/>
<text text-anchor="middle" x="808.5" y="-12.57" font-family="Times New Roman,serif" font-size="14.00">(38) wait </text>
</g>
<!-- 33&#45;&gt;38 -->
<g id="edge37" class="edge">
<title>33&#45;&gt;38</title>
<path fill="none" stroke="black" d="M808.5,-71.7C808.5,-64.24 808.5,-55.32 808.5,-46.97"/>
<polygon fill="black" stroke="black" points="812,-47.1 808.5,-37.1 805,-47.1 812,-47.1"/>
</g>
<!-- 39 -->
<g id="node39" class="node">
<title>39</title>
<polygon fill="none" stroke="green" points="965.75,-36 861.25,-36 861.25,-32 857.25,-32 857.25,-28 861.25,-28 861.25,-8 857.25,-8 857.25,-4 861.25,-4 861.25,0 965.75,0 965.75,-36"/>
<polyline fill="none" stroke="green" points="861.25,-32 865.25,-32 865.25,-28 861.25,-28"/>
<polyline fill="none" stroke="green" points="861.25,-8 865.25,-8 865.25,-4 861.25,-4"/>
<text text-anchor="middle" x="913.5" y="-12.57" font-family="Times New Roman,serif" font-size="14.00">(39) fail_empty </text>
</g>
<!-- 33&#45;&gt;39 -->
<g id="edge38" class="edge">
<title>33&#45;&gt;39</title>
<path fill="none" stroke="black" d="M834.73,-71.52C847.98,-62.68 864.24,-51.84 878.55,-42.3"/>
<polygon fill="black" stroke="black" points="880.23,-44.72 886.61,-36.26 876.35,-38.9 880.23,-44.72"/>
</g>
</g>
</svg>
