<?xml version="1.0" encoding="UTF-8" standalone="no"?>
<!DOCTYPE svg PUBLIC "-//W3C//DTD SVG 1.1//EN"
 "http://www.w3.org/Graphics/SVG/1.1/DTD/svg11.dtd">
<!-- Generated by graphviz version 9.0.0 (20230911.1827)
 -->
<!-- Pages: 1 -->
<svg width="1747pt" height="415pt"
 viewBox="0.00 0.00 1747.38 414.50" xmlns="http://www.w3.org/2000/svg" xmlns:xlink="http://www.w3.org/1999/xlink">
<g id="graph0" class="graph" transform="scale(1 1) rotate(0) translate(4 410.5)">
<polygon fill="white" stroke="none" points="-4,4 -4,-410.5 1743.38,-410.5 1743.38,4 -4,4"/>
<!-- 1 -->
<g id="node1" class="node">
<title>1</title>
<polygon fill="none" stroke="black" points="835.38,-406.5 776.62,-406.5 776.62,-367 835.38,-367 835.38,-406.5"/>
<text text-anchor="middle" x="806" y="-389.2" font-family="Times New Roman,serif" font-size="14.00">(1) root</text>
<text text-anchor="middle" x="806" y="-373.45" font-family="Times New Roman,serif" font-size="14.00">main </text>
</g>
<!-- 2 -->
<g id="node2" class="node">
<title>2</title>
<polygon fill="none" stroke="purple" points="846.25,-331 777.75,-331 777.75,-335 765.75,-335 765.75,-295 846.25,-295 846.25,-331"/>
<polyline fill="none" stroke="purple" points="765.75,-331 777.75,-331"/>
<text text-anchor="middle" x="806" y="-307.57" font-family="Times New Roman,serif" font-size="14.00">(2) inverter </text>
</g>
<!-- 1&#45;&gt;2 -->
<g id="edge1" class="edge">
<title>1&#45;&gt;2</title>
<path fill="none" stroke="black" d="M806,-366.52C806,-359.25 806,-350.79 806,-342.83"/>
<polygon fill="black" stroke="black" points="809.5,-342.83 806,-332.83 802.5,-342.83 809.5,-342.83"/>
</g>
<!-- 3 -->
<g id="node3" class="node">
<title>3</title>
<polygon fill="none" stroke="darkred" points="855.62,-259 756.38,-259 756.38,-223 855.62,-223 855.62,-259"/>
<text text-anchor="middle" x="806" y="-235.57" font-family="Times New Roman,serif" font-size="14.00">(3) r_sequence</text>
</g>
<!-- 2&#45;&gt;3 -->
<g id="edge2" class="edge">
<title>2&#45;&gt;3</title>
<path fill="none" stroke="black" d="M806,-294.7C806,-287.41 806,-278.73 806,-270.54"/>
<polygon fill="black" stroke="black" points="809.5,-270.62 806,-260.62 802.5,-270.62 809.5,-270.62"/>
</g>
<!-- 4 -->
<g id="node4" class="node">
<title>4</title>
<polygon fill="none" stroke="blue" points="320.5,-187 229.5,-187 229.5,-147.5 320.5,-147.5 320.5,-187"/>
<text text-anchor="middle" x="275" y="-169.7" font-family="Times New Roman,serif" font-size="14.00">(4) r_fallback</text>
<text text-anchor="middle" x="275" y="-153.95" font-family="Times New Roman,serif" font-size="14.00">not_stopped </text>
</g>
<!-- 3&#45;&gt;4 -->
<g id="edge3" class="edge">
<title>3&#45;&gt;4</title>
<path fill="none" stroke="black" d="M756.04,-233.25C657,-219.87 436.33,-190.05 331.89,-175.94"/>
<polygon fill="black" stroke="black" points="332.52,-172.49 322.14,-174.62 331.58,-179.43 332.52,-172.49"/>
</g>
<!-- 5 -->
<g id="node5" class="node">
<title>5</title>
<polygon fill="none" stroke="blue" points="759.5,-187 668.5,-187 668.5,-147.5 759.5,-147.5 759.5,-187"/>
<text text-anchor="middle" x="714" y="-169.7" font-family="Times New Roman,serif" font-size="14.00">(5) r_fallback</text>
<text text-anchor="middle" x="714" y="-153.95" font-family="Times New Roman,serif" font-size="14.00">is_fresh </text>
</g>
<!-- 3&#45;&gt;5 -->
<g id="edge4" class="edge">
<title>3&#45;&gt;5</title>
<path fill="none" stroke="black" d="M783.73,-222.63C772.88,-214.17 759.61,-203.82 747.56,-194.43"/>
<polygon fill="black" stroke="black" points="749.89,-191.8 739.85,-188.41 745.58,-197.32 749.89,-191.8"/>
</g>
<!-- 6 -->
<g id="node6" class="node">
<title>6</title>
<polygon fill="none" stroke="blue" points="1071.88,-187 980.12,-187 980.12,-147.5 1071.88,-147.5 1071.88,-187"/>
<text text-anchor="middle" x="1026" y="-169.7" font-family="Times New Roman,serif" font-size="14.00">(6) r_fallback</text>
<text text-anchor="middle" x="1026" y="-153.95" font-family="Times New Roman,serif" font-size="14.00">handle_value </text>
</g>
<!-- 3&#45;&gt;6 -->
<g id="edge5" class="edge">
<title>3&#45;&gt;6</title>
<path fill="none" stroke="black" d="M855.92,-223.72C889.58,-212.74 934.08,-198.23 969.11,-186.8"/>
<polygon fill="black" stroke="black" points="969.8,-190.26 978.22,-183.83 967.63,-183.61 969.8,-190.26"/>
</g>
<!-- 7 -->
<g id="node7" class="node">
<title>7</title>
<polygon fill="none" stroke="darkred" points="1503.62,-187 1404.38,-187 1404.38,-147.5 1503.62,-147.5 1503.62,-187"/>
<text text-anchor="middle" x="1454" y="-169.7" font-family="Times New Roman,serif" font-size="14.00">(7) r_sequence</text>
<text text-anchor="middle" x="1454" y="-153.95" font-family="Times New Roman,serif" font-size="14.00">set_not_fresh </text>
</g>
<!-- 3&#45;&gt;7 -->
<g id="edge6" class="edge">
<title>3&#45;&gt;7</title>
<path fill="none" stroke="black" d="M856.04,-234.46C973.32,-221.47 1265.64,-189.11 1393.04,-175"/>
<polygon fill="black" stroke="black" points="1393.06,-178.52 1402.61,-173.94 1392.29,-171.56 1393.06,-178.52"/>
</g>
<!-- 8 -->
<g id="node8" class="node">
<title>8</title>
<polygon fill="none" stroke="green" points="154,-109.75 0,-109.75 0,-105.75 -4,-105.75 -4,-101.75 0,-101.75 0,-81.75 -4,-81.75 -4,-77.75 0,-77.75 0,-73.75 154,-73.75 154,-109.75"/>
<polyline fill="none" stroke="green" points="0,-105.75 4,-105.75 4,-101.75 0,-101.75"/>
<polyline fill="none" stroke="green" points="0,-81.75 4,-81.75 4,-77.75 0,-77.75"/>
<text text-anchor="middle" x="77" y="-86.33" font-family="Times New Roman,serif" font-size="14.00">(8) test (key=&amp;continue)</text>
</g>
<!-- 4&#45;&gt;8 -->
<g id="edge7" class="edge">
<title>4&#45;&gt;8</title>
<path fill="none" stroke="black" d="M229.08,-149.2C201,-138.78 164.82,-125.35 134.8,-114.21"/>
<polygon fill="black" stroke="black" points="136.06,-110.94 125.47,-110.74 133.62,-117.5 136.06,-110.94"/>
</g>
<!-- 9 -->
<g id="node9" class="node">
<title>9</title>
<polygon fill="none" stroke="green" points="378.25,-109.75 171.75,-109.75 171.75,-105.75 167.75,-105.75 167.75,-101.75 171.75,-101.75 171.75,-81.75 167.75,-81.75 167.75,-77.75 171.75,-77.75 171.75,-73.75 378.25,-73.75 378.25,-109.75"/>
<polyline fill="none" stroke="green" points="171.75,-105.75 175.75,-105.75 175.75,-101.75 171.75,-101.75"/>
<polyline fill="none" stroke="green" points="171.75,-81.75 175.75,-81.75 175.75,-77.75 171.75,-77.75"/>
<text text-anchor="middle" x="275" y="-86.33" font-family="Times New Roman,serif" font-size="14.00">(9) stop_daemon (s=file_watcher)</text>
</g>
<!-- 4&#45;&gt;9 -->
<g id="edge8" class="edge">
<title>4&#45;&gt;9</title>
<path fill="none" stroke="black" d="M275,-147.32C275,-139.43 275,-130.08 275,-121.38"/>
<polygon fill="black" stroke="black" points="278.5,-121.62 275,-111.62 271.5,-121.62 278.5,-121.62"/>
</g>
<!-- 10 -->
<g id="node10" class="node">
<title>10</title>
<polygon fill="none" stroke="darkred" points="648.12,-111.5 395.88,-111.5 395.88,-72 648.12,-72 648.12,-111.5"/>
<text text-anchor="middle" x="522" y="-94.2" font-family="Times New Roman,serif" font-size="14.00">(10) r_sequence</text>
<text text-anchor="middle" x="522" y="-78.45" font-family="Times New Roman,serif" font-size="14.00">when (cond=test(&lt;&gt;),action=running(&lt;&gt;))</text>
</g>
<!-- 5&#45;&gt;10 -->
<g id="edge9" class="edge">
<title>5&#45;&gt;10</title>
<path fill="none" stroke="black" d="M668.01,-148.64C642.45,-138.86 610.32,-126.56 582.72,-115.99"/>
<polygon fill="black" stroke="black" points="583.99,-112.73 573.4,-112.43 581.49,-119.27 583.99,-112.73"/>
</g>
<!-- 11 -->
<g id="node11" class="node">
<title>11</title>
<polygon fill="none" stroke="green" points="759.12,-109.75 668.88,-109.75 668.88,-105.75 664.88,-105.75 664.88,-101.75 668.88,-101.75 668.88,-81.75 664.88,-81.75 664.88,-77.75 668.88,-77.75 668.88,-73.75 759.12,-73.75 759.12,-109.75"/>
<polyline fill="none" stroke="green" points="668.88,-105.75 672.88,-105.75 672.88,-101.75 668.88,-101.75"/>
<polyline fill="none" stroke="green" points="668.88,-81.75 672.88,-81.75 672.88,-77.75 668.88,-77.75"/>
<text text-anchor="middle" x="714" y="-86.33" font-family="Times New Roman,serif" font-size="14.00">(11) success </text>
</g>
<!-- 5&#45;&gt;11 -->
<g id="edge10" class="edge">
<title>5&#45;&gt;11</title>
<path fill="none" stroke="black" d="M714,-147.32C714,-139.43 714,-130.08 714,-121.38"/>
<polygon fill="black" stroke="black" points="717.5,-121.62 714,-111.62 710.5,-121.62 717.5,-121.62"/>
</g>
<!-- 12 -->
<g id="node12" class="node">
<title>12</title>
<polygon fill="none" stroke="darkred" points="1019.5,-111.5 778.5,-111.5 778.5,-72 1019.5,-72 1019.5,-111.5"/>
<text text-anchor="middle" x="899" y="-94.2" font-family="Times New Roman,serif" font-size="14.00">(12) r_sequence</text>
<text text-anchor="middle" x="899" y="-78.45" font-family="Times New Roman,serif" font-size="14.00">when (cond=equal(&lt;&gt;),action=mul(&lt;&gt;))</text>
</g>
<!-- 6&#45;&gt;12 -->
<g id="edge11" class="edge">
<title>6&#45;&gt;12</title>
<path fill="none" stroke="black" d="M992.96,-147.13C977.24,-138.03 958.24,-127.03 941.46,-117.32"/>
<polygon fill="black" stroke="black" points="943.59,-114.51 933.18,-112.53 940.08,-120.57 943.59,-114.51"/>
</g>
<!-- 13 -->
<g id="node13" class="node">
<title>13</title>
<polygon fill="none" stroke="darkred" points="1270.75,-111.5 1037.25,-111.5 1037.25,-72 1270.75,-72 1270.75,-111.5"/>
<text text-anchor="middle" x="1154" y="-94.2" font-family="Times New Roman,serif" font-size="14.00">(13) r_sequence</text>
<text text-anchor="middle" x="1154" y="-78.45" font-family="Times New Roman,serif" font-size="14.00">when (cond=less(&lt;&gt;),action=add(&lt;&gt;))</text>
</g>
<!-- 6&#45;&gt;13 -->
<g id="edge12" class="edge">
<title>6&#45;&gt;13</title>
<path fill="none" stroke="black" d="M1059.3,-147.13C1075.15,-138.03 1094.29,-127.03 1111.21,-117.32"/>
<polygon fill="black" stroke="black" points="1112.63,-120.54 1119.56,-112.53 1109.14,-114.47 1112.63,-120.54"/>
</g>
<!-- 14 -->
<g id="node14" class="node">
<title>14</title>
<polygon fill="none" stroke="darkred" points="1524.38,-111.5 1291.62,-111.5 1291.62,-72 1524.38,-72 1524.38,-111.5"/>
<text text-anchor="middle" x="1408" y="-94.2" font-family="Times New Roman,serif" font-size="14.00">(14) r_sequence</text>
<text text-anchor="middle" x="1408" y="-78.45" font-family="Times New Roman,serif" font-size="14.00">when (cond=less(&lt;&gt;),action=sub(&lt;&gt;))</text>
</g>
<!-- 6&#45;&gt;14 -->
<g id="edge13" class="edge">
<title>6&#45;&gt;14</title>
<path fill="none" stroke="black" d="M1072.08,-157.38C1127.5,-146.72 1222.4,-128.46 1297.22,-114.06"/>
<polygon fill="black" stroke="black" points="1297.47,-117.58 1306.63,-112.26 1296.14,-110.71 1297.47,-117.58"/>
</g>
<!-- 15 -->
<g id="node15" class="node">
<title>15</title>
<polygon fill="none" stroke="green" points="1739.38,-109.75 1542.62,-109.75 1542.62,-105.75 1538.62,-105.75 1538.62,-101.75 1542.62,-101.75 1542.62,-81.75 1538.62,-81.75 1538.62,-77.75 1542.62,-77.75 1542.62,-73.75 1739.38,-73.75 1739.38,-109.75"/>
<polyline fill="none" stroke="green" points="1542.62,-105.75 1546.62,-105.75 1546.62,-101.75 1542.62,-101.75"/>
<polyline fill="none" stroke="green" points="1542.62,-81.75 1546.62,-81.75 1546.62,-77.75 1542.62,-77.75"/>
<text text-anchor="middle" x="1641" y="-86.33" font-family="Times New Roman,serif" font-size="14.00">(15) store (key=stale,value=true)</text>
</g>
<!-- 7&#45;&gt;15 -->
<g id="edge14" class="edge">
<title>7&#45;&gt;15</title>
<path fill="none" stroke="black" d="M1502.64,-147.13C1528.23,-137.07 1559.69,-124.71 1586.14,-114.31"/>
<polygon fill="black" stroke="black" points="1587.32,-117.61 1595.35,-110.69 1584.76,-111.09 1587.32,-117.61"/>
</g>
<!-- 16 -->
<g id="node16" class="node">
<title>16</title>
<polygon fill="none" stroke="green" points="459.12,-36 320.88,-36 320.88,-32 316.88,-32 316.88,-28 320.88,-28 320.88,-8 316.88,-8 316.88,-4 320.88,-4 320.88,0 459.12,0 459.12,-36"/>
<polyline fill="none" stroke="green" points="320.88,-32 324.88,-32 324.88,-28 320.88,-28"/>
<polyline fill="none" stroke="green" points="320.88,-8 324.88,-8 324.88,-4 320.88,-4"/>
<text text-anchor="middle" x="390" y="-12.57" font-family="Times New Roman,serif" font-size="14.00">(16) test (key=&amp;stale)</text>
</g>
<!-- 10&#45;&gt;16 -->
<g id="edge15" class="edge">
<title>10&#45;&gt;16</title>
<path fill="none" stroke="black" d="M486.63,-71.52C469.77,-62.36 449.5,-51.34 431.88,-41.76"/>
<polygon fill="black" stroke="black" points="433.65,-38.74 423.19,-37.04 430.3,-44.89 433.65,-38.74"/>
</g>
<!-- 17 -->
<g id="node17" class="node">
<title>17</title>
<polygon fill="none" stroke="green" points="564.62,-36 477.38,-36 477.38,-32 473.38,-32 473.38,-28 477.38,-28 477.38,-8 473.38,-8 473.38,-4 477.38,-4 477.38,0 564.62,0 564.62,-36"/>
<polyline fill="none" stroke="green" points="477.38,-32 481.38,-32 481.38,-28 477.38,-28"/>
<polyline fill="none" stroke="green" points="477.38,-8 481.38,-8 481.38,-4 477.38,-4"/>
<text text-anchor="middle" x="521" y="-12.57" font-family="Times New Roman,serif" font-size="14.00">(17) running </text>
</g>
<!-- 10&#45;&gt;17 -->
<g id="edge16" class="edge">
<title>10&#45;&gt;17</title>
<path fill="none" stroke="black" d="M521.73,-71.52C521.63,-64.25 521.51,-55.79 521.4,-47.83"/>
<polygon fill="black" stroke="black" points="524.9,-47.78 521.26,-37.83 517.9,-47.88 524.9,-47.78"/>
</g>
<!-- 18 -->
<g id="node18" class="node">
<title>18</title>
<polygon fill="none" stroke="green" points="833.38,-36 582.62,-36 582.62,-32 578.62,-32 578.62,-28 582.62,-28 582.62,-8 578.62,-8 578.62,-4 582.62,-4 582.62,0 833.38,0 833.38,-36"/>
<polyline fill="none" stroke="green" points="582.62,-32 586.62,-32 586.62,-28 582.62,-28"/>
<polyline fill="none" stroke="green" points="582.62,-8 586.62,-8 586.62,-4 582.62,-4"/>
<text text-anchor="middle" x="708" y="-12.57" font-family="Times New Roman,serif" font-size="14.00">(18) equal (key=&amp;threshold,expected=50)</text>
</g>
<!-- 12&#45;&gt;18 -->
<g id="edge17" class="edge">
<title>12&#45;&gt;18</title>
<path fill="none" stroke="black" d="M847.82,-71.52C822.27,-61.93 791.3,-50.29 765,-40.41"/>
<polygon fill="black" stroke="black" points="766.43,-37.21 755.84,-36.97 763.97,-43.76 766.43,-37.21"/>
</g>
<!-- 19 -->
<g id="node19" class="node">
<title>19</title>
<polygon fill="none" stroke="green" points="948.88,-36 851.12,-36 851.12,-32 847.12,-32 847.12,-28 851.12,-28 851.12,-8 847.12,-8 847.12,-4 851.12,-4 851.12,0 948.88,0 948.88,-36"/>
<polyline fill="none" stroke="green" points="851.12,-32 855.12,-32 855.12,-28 851.12,-28"/>
<polyline fill="none" stroke="green" points="851.12,-8 855.12,-8 855.12,-4 851.12,-4"/>
<text text-anchor="middle" x="900" y="-12.57" font-family="Times New Roman,serif" font-size="14.00">(19) mul (q=0)</text>
</g>
<!-- 12&#45;&gt;19 -->
<g id="edge18" class="edge">
<title>12&#45;&gt;19</title>
<path fill="none" stroke="black" d="M899.27,-71.52C899.37,-64.25 899.49,-55.79 899.6,-47.83"/>
<polygon fill="black" stroke="black" points="903.1,-47.88 899.74,-37.83 896.1,-47.78 903.1,-47.88"/>
</g>
<!-- 20 -->
<g id="node20" class="node">
<title>20</title>
<polygon fill="none" stroke="green" points="1172.88,-36 967.12,-36 967.12,-32 963.12,-32 963.12,-28 967.12,-28 967.12,-8 963.12,-8 963.12,-4 967.12,-4 967.12,0 1172.88,0 1172.88,-36"/>
<polyline fill="none" stroke="green" points="967.12,-32 971.12,-32 971.12,-28 967.12,-28"/>
<polyline fill="none" stroke="green" points="967.12,-8 971.12,-8 971.12,-4 967.12,-4"/>
<text text-anchor="middle" x="1070" y="-12.57" font-family="Times New Roman,serif" font-size="14.00">(20) less (lhs=&amp;threshold,rhs=50)</text>
</g>
<!-- 13&#45;&gt;20 -->
<g id="edge19" class="edge">
<title>13&#45;&gt;20</title>
<path fill="none" stroke="black" d="M1131.49,-71.52C1121.47,-62.96 1109.54,-52.77 1098.87,-43.66"/>
<polygon fill="black" stroke="black" points="1101.3,-41.13 1091.42,-37.3 1096.76,-46.46 1101.3,-41.13"/>
</g>
<!-- 21 -->
<g id="node21" class="node">
<title>21</title>
<polygon fill="none" stroke="green" points="1289.25,-36 1190.75,-36 1190.75,-32 1186.75,-32 1186.75,-28 1190.75,-28 1190.75,-8 1186.75,-8 1186.75,-4 1190.75,-4 1190.75,0 1289.25,0 1289.25,-36"/>
<polyline fill="none" stroke="green" points="1190.75,-32 1194.75,-32 1194.75,-28 1190.75,-28"/>
<polyline fill="none" stroke="green" points="1190.75,-8 1194.75,-8 1194.75,-4 1190.75,-4"/>
<text text-anchor="middle" x="1240" y="-12.57" font-family="Times New Roman,serif" font-size="14.00">(21) add (q=5)</text>
</g>
<!-- 13&#45;&gt;21 -->
<g id="edge20" class="edge">
<title>13&#45;&gt;21</title>
<path fill="none" stroke="black" d="M1177.05,-71.52C1187.31,-62.96 1199.52,-52.77 1210.44,-43.66"/>
<polygon fill="black" stroke="black" points="1212.64,-46.38 1218.08,-37.29 1208.16,-41.01 1212.64,-46.38"/>
</g>
<!-- 22 -->
<g id="node22" class="node">
<title>22</title>
<polygon fill="none" stroke="green" points="1512.88,-36 1307.12,-36 1307.12,-32 1303.12,-32 1303.12,-28 1307.12,-28 1307.12,-8 1303.12,-8 1303.12,-4 1307.12,-4 1307.12,0 1512.88,0 1512.88,-36"/>
<polyline fill="none" stroke="green" points="1307.12,-32 1311.12,-32 1311.12,-28 1307.12,-28"/>
<polyline fill="none" stroke="green" points="1307.12,-8 1311.12,-8 1311.12,-4 1307.12,-4"/>
<text text-anchor="middle" x="1410" y="-12.57" font-family="Times New Roman,serif" font-size="14.00">(22) less (lhs=50,rhs=&amp;threshold)</text>
</g>
<!-- 14&#45;&gt;22 -->
<g id="edge21" class="edge">
<title>14&#45;&gt;22</title>
<path fill="none" stroke="black" d="M1408.54,-71.52C1408.74,-64.25 1408.97,-55.79 1409.2,-47.83"/>
<polygon fill="black" stroke="black" points="1412.7,-47.92 1409.48,-37.83 1405.7,-47.73 1412.7,-47.92"/>
</g>
<!-- 23 -->
<g id="node23" class="node">
<title>23</title>
<polygon fill="none" stroke="green" points="1628.88,-36 1531.12,-36 1531.12,-32 1527.12,-32 1527.12,-28 1531.12,-28 1531.12,-8 1527.12,-8 1527.12,-4 1531.12,-4 1531.12,0 1628.88,0 1628.88,-36"/>
<polyline fill="none" stroke="green" points="1531.12,-32 1535.12,-32 1535.12,-28 1531.12,-28"/>
<polyline fill="none" stroke="green" points="1531.12,-8 1535.12,-8 1535.12,-4 1531.12,-4"/>
<text text-anchor="middle" x="1580" y="-12.57" font-family="Times New Roman,serif" font-size="14.00">(23) sub (q=5)</text>
</g>
<!-- 14&#45;&gt;23 -->
<g id="edge22" class="edge">
<title>14&#45;&gt;23</title>
<path fill="none" stroke="black" d="M1454.09,-71.52C1476.79,-62.06 1504.25,-50.6 1527.72,-40.81"/>
<polygon fill="black" stroke="black" points="1528.92,-44.1 1536.8,-37.02 1526.22,-37.64 1528.92,-44.1"/>
</g>
</g>
</svg>
