<?xml version="1.0" encoding="UTF-8" standalone="no"?>
<!DOCTYPE svg PUBLIC "-//W3C//DTD SVG 1.1//EN"
 "http://www.w3.org/Graphics/SVG/1.1/DTD/svg11.dtd">
<!-- Generated by graphviz version 9.0.0 (20230911.1827)
 -->
<!-- Pages: 1 -->
<svg width="1890pt" height="415pt"
 viewBox="0.00 0.00 1889.88 414.50" xmlns="http://www.w3.org/2000/svg" xmlns:xlink="http://www.w3.org/1999/xlink">
<g id="graph0" class="graph" transform="scale(1 1) rotate(0) translate(4 410.5)">
<polygon fill="white" stroke="none" points="-4,4 -4,-410.5 1885.88,-410.5 1885.88,4 -4,4"/>
<!-- 1 -->
<g id="node1" class="node">
<title>1</title>
<polygon fill="none" stroke="black" points="872.62,-406.5 813.88,-406.5 813.88,-367 872.62,-367 872.62,-406.5"/>
<text text-anchor="middle" x="843.25" y="-389.2" font-family="Times New Roman,serif" font-size="14.00">(1) root</text>
<text text-anchor="middle" x="843.25" y="-373.45" font-family="Times New Roman,serif" font-size="14.00">main </text>
</g>
<!-- 2 -->
<g id="node2" class="node">
<title>2</title>
<polygon fill="none" stroke="purple" points="883.5,-331 815,-331 815,-335 803,-335 803,-295 883.5,-295 883.5,-331"/>
<polyline fill="none" stroke="purple" points="803,-331 815,-331"/>
<text text-anchor="middle" x="843.25" y="-307.57" font-family="Times New Roman,serif" font-size="14.00">(2) inverter </text>
</g>
<!-- 1&#45;&gt;2 -->
<g id="edge1" class="edge">
<title>1&#45;&gt;2</title>
<path fill="none" stroke="black" d="M843.25,-366.52C843.25,-359.25 843.25,-350.79 843.25,-342.83"/>
<polygon fill="black" stroke="black" points="846.75,-342.83 843.25,-332.83 839.75,-342.83 846.75,-342.83"/>
</g>
<!-- 3 -->
<g id="node3" class="node">
<title>3</title>
<polygon fill="none" stroke="darkred" points="892.88,-259 793.62,-259 793.62,-223 892.88,-223 892.88,-259"/>
<text text-anchor="middle" x="843.25" y="-235.57" font-family="Times New Roman,serif" font-size="14.00">(3) r_sequence</text>
</g>
<!-- 2&#45;&gt;3 -->
<g id="edge2" class="edge">
<title>2&#45;&gt;3</title>
<path fill="none" stroke="black" d="M843.25,-294.7C843.25,-287.41 843.25,-278.73 843.25,-270.54"/>
<polygon fill="black" stroke="black" points="846.75,-270.62 843.25,-260.62 839.75,-270.62 846.75,-270.62"/>
</g>
<!-- 4 -->
<g id="node4" class="node">
<title>4</title>
<polygon fill="none" stroke="blue" points="334.75,-187 243.75,-187 243.75,-147.5 334.75,-147.5 334.75,-187"/>
<text text-anchor="middle" x="289.25" y="-169.7" font-family="Times New Roman,serif" font-size="14.00">(4) r_fallback</text>
<text text-anchor="middle" x="289.25" y="-153.95" font-family="Times New Roman,serif" font-size="14.00">not_stopped </text>
</g>
<!-- 3&#45;&gt;4 -->
<g id="edge3" class="edge">
<title>3&#45;&gt;4</title>
<path fill="none" stroke="black" d="M793.6,-233.57C690.84,-220.26 455.38,-189.77 346.46,-175.66"/>
<polygon fill="black" stroke="black" points="346.94,-172.19 336.57,-174.38 346.04,-179.13 346.94,-172.19"/>
</g>
<!-- 5 -->
<g id="node5" class="node">
<title>5</title>
<polygon fill="none" stroke="blue" points="796.75,-187 705.75,-187 705.75,-147.5 796.75,-147.5 796.75,-187"/>
<text text-anchor="middle" x="751.25" y="-169.7" font-family="Times New Roman,serif" font-size="14.00">(5) r_fallback</text>
<text text-anchor="middle" x="751.25" y="-153.95" font-family="Times New Roman,serif" font-size="14.00">is_fresh </text>
</g>
<!-- 3&#45;&gt;5 -->
<g id="edge4" class="edge">
<title>3&#45;&gt;5</title>
<path fill="none" stroke="black" d="M820.98,-222.63C810.13,-214.17 796.86,-203.82 784.81,-194.43"/>
<polygon fill="black" stroke="black" points="787.14,-191.8 777.1,-188.41 782.83,-197.32 787.14,-191.8"/>
</g>
<!-- 6 -->
<g id="node6" class="node">
<title>6</title>
<polygon fill="none" stroke="blue" points="1109.12,-187 1017.38,-187 1017.38,-147.5 1109.12,-147.5 1109.12,-187"/>
<text text-anchor="middle" x="1063.25" y="-169.7" font-family="Times New Roman,serif" font-size="14.00">(6) r_fallback</text>
<text text-anchor="middle" x="1063.25" y="-153.95" font-family="Times New Roman,serif" font-size="14.00">handle_value </text>
</g>
<!-- 3&#45;&gt;6 -->
<g id="edge5" class="edge">
<title>3&#45;&gt;6</title>
<path fill="none" stroke="black" d="M893.17,-223.72C926.83,-212.74 971.33,-198.23 1006.36,-186.8"/>
<polygon fill="black" stroke="black" points="1007.05,-190.26 1015.47,-183.83 1004.88,-183.61 1007.05,-190.26"/>
</g>
<!-- 7 -->
<g id="node7" class="node">
<title>7</title>
<polygon fill="none" stroke="darkred" points="1727.88,-187 1628.62,-187 1628.62,-147.5 1727.88,-147.5 1727.88,-187"/>
<text text-anchor="middle" x="1678.25" y="-169.7" font-family="Times New Roman,serif" font-size="14.00">(7) r_sequence</text>
<text text-anchor="middle" x="1678.25" y="-153.95" font-family="Times New Roman,serif" font-size="14.00">set_not_fresh </text>
</g>
<!-- 3&#45;&gt;7 -->
<g id="edge6" class="edge">
<title>3&#45;&gt;7</title>
<path fill="none" stroke="black" d="M893.29,-235.7C1038.32,-223.24 1458.57,-187.13 1616.92,-173.52"/>
<polygon fill="black" stroke="black" points="1617.13,-177.01 1626.8,-172.67 1616.53,-170.04 1617.13,-177.01"/>
</g>
<!-- 8 -->
<g id="node8" class="node">
<title>8</title>
<polygon fill="none" stroke="green" points="227.5,-109.75 75,-109.75 75,-105.75 71,-105.75 71,-101.75 75,-101.75 75,-81.75 71,-81.75 71,-77.75 75,-77.75 75,-73.75 227.5,-73.75 227.5,-109.75"/>
<polyline fill="none" stroke="green" points="75,-105.75 79,-105.75 79,-101.75 75,-101.75"/>
<polyline fill="none" stroke="green" points="75,-81.75 79,-81.75 79,-77.75 75,-77.75"/>
<text text-anchor="middle" x="151.25" y="-86.33" font-family="Times New Roman,serif" font-size="14.00">(8) test (key=&amp;proceed)</text>
</g>
<!-- 4&#45;&gt;8 -->
<g id="edge7" class="edge">
<title>4&#45;&gt;8</title>
<path fill="none" stroke="black" d="M253.35,-147.13C235.07,-137.4 212.74,-125.5 193.62,-115.32"/>
<polygon fill="black" stroke="black" points="195.47,-112.34 185,-110.73 192.18,-118.52 195.47,-112.34"/>
</g>
<!-- 9 -->
<g id="node9" class="node">
<title>9</title>
<polygon fill="none" stroke="darkred" points="332.88,-109.75 245.62,-109.75 245.62,-73.75 332.88,-73.75 332.88,-109.75"/>
<text text-anchor="middle" x="289.25" y="-86.33" font-family="Times New Roman,serif" font-size="14.00">(9) sequence</text>
</g>
<!-- 4&#45;&gt;9 -->
<g id="edge8" class="edge">
<title>4&#45;&gt;9</title>
<path fill="none" stroke="black" d="M289.25,-147.32C289.25,-139.43 289.25,-130.08 289.25,-121.38"/>
<polygon fill="black" stroke="black" points="292.75,-121.62 289.25,-111.62 285.75,-121.62 292.75,-121.62"/>
</g>
<!-- 10 -->
<g id="node10" class="node">
<title>10</title>
<polygon fill="none" stroke="darkred" points="685.38,-111.5 433.12,-111.5 433.12,-72 685.38,-72 685.38,-111.5"/>
<text text-anchor="middle" x="559.25" y="-94.2" font-family="Times New Roman,serif" font-size="14.00">(10) r_sequence</text>
<text text-anchor="middle" x="559.25" y="-78.45" font-family="Times New Roman,serif" font-size="14.00">when (cond=test(&lt;&gt;),action=running(&lt;&gt;))</text>
</g>
<!-- 5&#45;&gt;10 -->
<g id="edge9" class="edge">
<title>5&#45;&gt;10</title>
<path fill="none" stroke="black" d="M705.26,-148.64C679.7,-138.86 647.57,-126.56 619.97,-115.99"/>
<polygon fill="black" stroke="black" points="621.24,-112.73 610.65,-112.43 618.74,-119.27 621.24,-112.73"/>
</g>
<!-- 11 -->
<g id="node11" class="node">
<title>11</title>
<polygon fill="none" stroke="green" points="796.38,-109.75 706.12,-109.75 706.12,-105.75 702.12,-105.75 702.12,-101.75 706.12,-101.75 706.12,-81.75 702.12,-81.75 702.12,-77.75 706.12,-77.75 706.12,-73.75 796.38,-73.75 796.38,-109.75"/>
<polyline fill="none" stroke="green" points="706.12,-105.75 710.12,-105.75 710.12,-101.75 706.12,-101.75"/>
<polyline fill="none" stroke="green" points="706.12,-81.75 710.12,-81.75 710.12,-77.75 706.12,-77.75"/>
<text text-anchor="middle" x="751.25" y="-86.33" font-family="Times New Roman,serif" font-size="14.00">(11) success </text>
</g>
<!-- 5&#45;&gt;11 -->
<g id="edge10" class="edge">
<title>5&#45;&gt;11</title>
<path fill="none" stroke="black" d="M751.25,-147.32C751.25,-139.43 751.25,-130.08 751.25,-121.38"/>
<polygon fill="black" stroke="black" points="754.75,-121.62 751.25,-111.62 747.75,-121.62 754.75,-121.62"/>
</g>
<!-- 12 -->
<g id="node12" class="node">
<title>12</title>
<polygon fill="none" stroke="darkred" points="1056.75,-111.5 815.75,-111.5 815.75,-72 1056.75,-72 1056.75,-111.5"/>
<text text-anchor="middle" x="936.25" y="-94.2" font-family="Times New Roman,serif" font-size="14.00">(12) r_sequence</text>
<text text-anchor="middle" x="936.25" y="-78.45" font-family="Times New Roman,serif" font-size="14.00">when (cond=equal(&lt;&gt;),action=mul(&lt;&gt;))</text>
</g>
<!-- 6&#45;&gt;12 -->
<g id="edge11" class="edge">
<title>6&#45;&gt;12</title>
<path fill="none" stroke="black" d="M1030.21,-147.13C1014.49,-138.03 995.49,-127.03 978.71,-117.32"/>
<polygon fill="black" stroke="black" points="980.84,-114.51 970.43,-112.53 977.33,-120.57 980.84,-114.51"/>
</g>
<!-- 13 -->
<g id="node13" class="node">
<title>13</title>
<polygon fill="none" stroke="darkred" points="1308,-111.5 1074.5,-111.5 1074.5,-72 1308,-72 1308,-111.5"/>
<text text-anchor="middle" x="1191.25" y="-94.2" font-family="Times New Roman,serif" font-size="14.00">(13) r_sequence</text>
<text text-anchor="middle" x="1191.25" y="-78.45" font-family="Times New Roman,serif" font-size="14.00">when (cond=less(&lt;&gt;),action=add(&lt;&gt;))</text>
</g>
<!-- 6&#45;&gt;13 -->
<g id="edge12" class="edge">
<title>6&#45;&gt;13</title>
<path fill="none" stroke="black" d="M1096.55,-147.13C1112.4,-138.03 1131.54,-127.03 1148.46,-117.32"/>
<polygon fill="black" stroke="black" points="1149.88,-120.54 1156.81,-112.53 1146.39,-114.47 1149.88,-120.54"/>
</g>
<!-- 14 -->
<g id="node14" class="node">
<title>14</title>
<polygon fill="none" stroke="darkred" points="1561.62,-111.5 1328.88,-111.5 1328.88,-72 1561.62,-72 1561.62,-111.5"/>
<text text-anchor="middle" x="1445.25" y="-94.2" font-family="Times New Roman,serif" font-size="14.00">(14) r_sequence</text>
<text text-anchor="middle" x="1445.25" y="-78.45" font-family="Times New Roman,serif" font-size="14.00">when (cond=less(&lt;&gt;),action=sub(&lt;&gt;))</text>
</g>
<!-- 6&#45;&gt;14 -->
<g id="edge13" class="edge">
<title>6&#45;&gt;14</title>
<path fill="none" stroke="black" d="M1109.33,-157.38C1164.75,-146.72 1259.65,-128.46 1334.47,-114.06"/>
<polygon fill="black" stroke="black" points="1334.72,-117.58 1343.88,-112.26 1333.39,-110.71 1334.72,-117.58"/>
</g>
<!-- 15 -->
<g id="node15" class="node">
<title>15</title>
<polygon fill="none" stroke="green" points="1776.62,-109.75 1579.88,-109.75 1579.88,-105.75 1575.88,-105.75 1575.88,-101.75 1579.88,-101.75 1579.88,-81.75 1575.88,-81.75 1575.88,-77.75 1579.88,-77.75 1579.88,-73.75 1776.62,-73.75 1776.62,-109.75"/>
<polyline fill="none" stroke="green" points="1579.88,-105.75 1583.88,-105.75 1583.88,-101.75 1579.88,-101.75"/>
<polyline fill="none" stroke="green" points="1579.88,-81.75 1583.88,-81.75 1583.88,-77.75 1579.88,-77.75"/>
<text text-anchor="middle" x="1678.25" y="-86.33" font-family="Times New Roman,serif" font-size="14.00">(15) store (key=stale,value=true)</text>
</g>
<!-- 7&#45;&gt;15 -->
<g id="edge14" class="edge">
<title>7&#45;&gt;15</title>
<path fill="none" stroke="black" d="M1678.25,-147.32C1678.25,-139.43 1678.25,-130.08 1678.25,-121.38"/>
<polygon fill="black" stroke="black" points="1681.75,-121.62 1678.25,-111.62 1674.75,-121.62 1681.75,-121.62"/>
</g>
<!-- 16 -->
<g id="node16" class="node">
<title>16</title>
<polygon fill="none" stroke="green" points="1881.88,-109.75 1794.62,-109.75 1794.62,-105.75 1790.62,-105.75 1790.62,-101.75 1794.62,-101.75 1794.62,-81.75 1790.62,-81.75 1790.62,-77.75 1794.62,-77.75 1794.62,-73.75 1881.88,-73.75 1881.88,-109.75"/>
<polyline fill="none" stroke="green" points="1794.62,-105.75 1798.62,-105.75 1798.62,-101.75 1794.62,-101.75"/>
<polyline fill="none" stroke="green" points="1794.62,-81.75 1798.62,-81.75 1798.62,-77.75 1794.62,-77.75"/>
<text text-anchor="middle" x="1838.25" y="-86.33" font-family="Times New Roman,serif" font-size="14.00">(16) running </text>
</g>
<!-- 7&#45;&gt;16 -->
<g id="edge15" class="edge">
<title>7&#45;&gt;16</title>
<path fill="none" stroke="black" d="M1719.87,-147.13C1741.37,-137.25 1767.72,-125.15 1790.1,-114.87"/>
<polygon fill="black" stroke="black" points="1791.39,-118.13 1799.02,-110.77 1788.47,-111.76 1791.39,-118.13"/>
</g>
<!-- 17 -->
<g id="node17" class="node">
<title>17</title>
<polygon fill="none" stroke="green" points="218.5,-36 0,-36 0,-32 -4,-32 -4,-28 0,-28 0,-8 -4,-8 -4,-4 0,-4 0,0 218.5,0 218.5,-36"/>
<polyline fill="none" stroke="green" points="0,-32 4,-32 4,-28 0,-28"/>
<polyline fill="none" stroke="green" points="0,-8 4,-8 4,-4 0,-4"/>
<text text-anchor="middle" x="109.25" y="-12.57" font-family="Times New Roman,serif" font-size="14.00">(17) stop_daemon (s=http_watcher)</text>
</g>
<!-- 9&#45;&gt;17 -->
<g id="edge16" class="edge">
<title>9&#45;&gt;17</title>
<path fill="none" stroke="black" d="M245.68,-73.38C220.99,-63.54 189.88,-51.14 163.6,-40.66"/>
<polygon fill="black" stroke="black" points="165.04,-37.47 154.45,-37.02 162.44,-43.97 165.04,-37.47"/>
</g>
<!-- 18 -->
<g id="node18" class="node">
<title>18</title>
<polygon fill="none" stroke="green" points="341.5,-36 237,-36 237,-32 233,-32 233,-28 237,-28 237,-8 233,-8 233,-4 237,-4 237,0 341.5,0 341.5,-36"/>
<polyline fill="none" stroke="green" points="237,-32 241,-32 241,-28 237,-28"/>
<polyline fill="none" stroke="green" points="237,-8 241,-8 241,-4 237,-4"/>
<text text-anchor="middle" x="289.25" y="-12.57" font-family="Times New Roman,serif" font-size="14.00">(18) fail_empty </text>
</g>
<!-- 9&#45;&gt;18 -->
<g id="edge17" class="edge">
<title>9&#45;&gt;18</title>
<path fill="none" stroke="black" d="M289.25,-73.38C289.25,-65.68 289.25,-56.42 289.25,-47.74"/>
<polygon fill="black" stroke="black" points="292.75,-47.97 289.25,-37.97 285.75,-47.97 292.75,-47.97"/>
</g>
<!-- 19 -->
<g id="node19" class="node">
<title>19</title>
<polygon fill="none" stroke="green" points="497.38,-36 359.12,-36 359.12,-32 355.12,-32 355.12,-28 359.12,-28 359.12,-8 355.12,-8 355.12,-4 359.12,-4 359.12,0 497.38,0 497.38,-36"/>
<polyline fill="none" stroke="green" points="359.12,-32 363.12,-32 363.12,-28 359.12,-28"/>
<polyline fill="none" stroke="green" points="359.12,-8 363.12,-8 363.12,-4 359.12,-4"/>
<text text-anchor="middle" x="428.25" y="-12.57" font-family="Times New Roman,serif" font-size="14.00">(19) test (key=&amp;stale)</text>
</g>
<!-- 10&#45;&gt;19 -->
<g id="edge18" class="edge">
<title>10&#45;&gt;19</title>
<path fill="none" stroke="black" d="M524.14,-71.52C507.42,-62.36 487.3,-51.34 469.81,-41.76"/>
<polygon fill="black" stroke="black" points="471.65,-38.78 461.19,-37.04 468.28,-44.92 471.65,-38.78"/>
</g>
<!-- 20 -->
<g id="node20" class="node">
<title>20</title>
<polygon fill="none" stroke="green" points="602.88,-36 515.62,-36 515.62,-32 511.62,-32 511.62,-28 515.62,-28 515.62,-8 511.62,-8 511.62,-4 515.62,-4 515.62,0 602.88,0 602.88,-36"/>
<polyline fill="none" stroke="green" points="515.62,-32 519.62,-32 519.62,-28 515.62,-28"/>
<polyline fill="none" stroke="green" points="515.62,-8 519.62,-8 519.62,-4 515.62,-4"/>
<text text-anchor="middle" x="559.25" y="-12.57" font-family="Times New Roman,serif" font-size="14.00">(20) running </text>
</g>
<!-- 10&#45;&gt;20 -->
<g id="edge19" class="edge">
<title>10&#45;&gt;20</title>
<path fill="none" stroke="black" d="M559.25,-71.52C559.25,-64.25 559.25,-55.79 559.25,-47.83"/>
<polygon fill="black" stroke="black" points="562.75,-47.83 559.25,-37.83 555.75,-47.83 562.75,-47.83"/>
</g>
<!-- 21 -->
<g id="node21" class="node">
<title>21</title>
<polygon fill="none" stroke="green" points="871.62,-36 620.88,-36 620.88,-32 616.88,-32 616.88,-28 620.88,-28 620.88,-8 616.88,-8 616.88,-4 620.88,-4 620.88,0 871.62,0 871.62,-36"/>
<polyline fill="none" stroke="green" points="620.88,-32 624.88,-32 624.88,-28 620.88,-28"/>
<polyline fill="none" stroke="green" points="620.88,-8 624.88,-8 624.88,-4 620.88,-4"/>
<text text-anchor="middle" x="746.25" y="-12.57" font-family="Times New Roman,serif" font-size="14.00">(21) equal (key=&amp;threshold,expected=50)</text>
</g>
<!-- 12&#45;&gt;21 -->
<g id="edge20" class="edge">
<title>12&#45;&gt;21</title>
<path fill="none" stroke="black" d="M885.33,-71.52C859.92,-61.93 829.11,-50.29 802.95,-40.41"/>
<polygon fill="black" stroke="black" points="804.44,-37.23 793.84,-36.97 801.96,-43.78 804.44,-37.23"/>
</g>
<!-- 22 -->
<g id="node22" class="node">
<title>22</title>
<polygon fill="none" stroke="green" points="987.12,-36 889.38,-36 889.38,-32 885.38,-32 885.38,-28 889.38,-28 889.38,-8 885.38,-8 885.38,-4 889.38,-4 889.38,0 987.12,0 987.12,-36"/>
<polyline fill="none" stroke="green" points="889.38,-32 893.38,-32 893.38,-28 889.38,-28"/>
<polyline fill="none" stroke="green" points="889.38,-8 893.38,-8 893.38,-4 889.38,-4"/>
<text text-anchor="middle" x="938.25" y="-12.57" font-family="Times New Roman,serif" font-size="14.00">(22) mul (q=0)</text>
</g>
<!-- 12&#45;&gt;22 -->
<g id="edge21" class="edge">
<title>12&#45;&gt;22</title>
<path fill="none" stroke="black" d="M936.79,-71.52C936.99,-64.25 937.22,-55.79 937.45,-47.83"/>
<polygon fill="black" stroke="black" points="940.95,-47.92 937.73,-37.83 933.95,-47.73 940.95,-47.92"/>
</g>
<!-- 23 -->
<g id="node23" class="node">
<title>23</title>
<polygon fill="none" stroke="green" points="1211.12,-36 1005.38,-36 1005.38,-32 1001.38,-32 1001.38,-28 1005.38,-28 1005.38,-8 1001.38,-8 1001.38,-4 1005.38,-4 1005.38,0 1211.12,0 1211.12,-36"/>
<polyline fill="none" stroke="green" points="1005.38,-32 1009.38,-32 1009.38,-28 1005.38,-28"/>
<polyline fill="none" stroke="green" points="1005.38,-8 1009.38,-8 1009.38,-4 1005.38,-4"/>
<text text-anchor="middle" x="1108.25" y="-12.57" font-family="Times New Roman,serif" font-size="14.00">(23) less (lhs=&amp;threshold,rhs=50)</text>
</g>
<!-- 13&#45;&gt;23 -->
<g id="edge22" class="edge">
<title>13&#45;&gt;23</title>
<path fill="none" stroke="black" d="M1169.01,-71.52C1159.1,-62.96 1147.32,-52.77 1136.78,-43.66"/>
<polygon fill="black" stroke="black" points="1139.28,-41.2 1129.43,-37.31 1134.7,-46.49 1139.28,-41.2"/>
</g>
<!-- 24 -->
<g id="node24" class="node">
<title>24</title>
<polygon fill="none" stroke="green" points="1327.5,-36 1229,-36 1229,-32 1225,-32 1225,-28 1229,-28 1229,-8 1225,-8 1225,-4 1229,-4 1229,0 1327.5,0 1327.5,-36"/>
<polyline fill="none" stroke="green" points="1229,-32 1233,-32 1233,-28 1229,-28"/>
<polyline fill="none" stroke="green" points="1229,-8 1233,-8 1233,-4 1229,-4"/>
<text text-anchor="middle" x="1278.25" y="-12.57" font-family="Times New Roman,serif" font-size="14.00">(24) add (q=5)</text>
</g>
<!-- 13&#45;&gt;24 -->
<g id="edge23" class="edge">
<title>13&#45;&gt;24</title>
<path fill="none" stroke="black" d="M1214.56,-71.52C1225.05,-62.88 1237.54,-52.57 1248.68,-43.39"/>
<polygon fill="black" stroke="black" points="1250.6,-46.34 1256.08,-37.28 1246.14,-40.94 1250.6,-46.34"/>
</g>
<!-- 25 -->
<g id="node25" class="node">
<title>25</title>
<polygon fill="none" stroke="green" points="1551.12,-36 1345.38,-36 1345.38,-32 1341.38,-32 1341.38,-28 1345.38,-28 1345.38,-8 1341.38,-8 1341.38,-4 1345.38,-4 1345.38,0 1551.12,0 1551.12,-36"/>
<polyline fill="none" stroke="green" points="1345.38,-32 1349.38,-32 1349.38,-28 1345.38,-28"/>
<polyline fill="none" stroke="green" points="1345.38,-8 1349.38,-8 1349.38,-4 1345.38,-4"/>
<text text-anchor="middle" x="1448.25" y="-12.57" font-family="Times New Roman,serif" font-size="14.00">(25) less (lhs=50,rhs=&amp;threshold)</text>
</g>
<!-- 14&#45;&gt;25 -->
<g id="edge24" class="edge">
<title>14&#45;&gt;25</title>
<path fill="none" stroke="black" d="M1446.05,-71.52C1446.36,-64.16 1446.72,-55.59 1447.06,-47.54"/>
<polygon fill="black" stroke="black" points="1450.54,-47.97 1447.46,-37.83 1443.55,-47.67 1450.54,-47.97"/>
</g>
<!-- 26 -->
<g id="node26" class="node">
<title>26</title>
<polygon fill="none" stroke="green" points="1667.12,-36 1569.38,-36 1569.38,-32 1565.38,-32 1565.38,-28 1569.38,-28 1569.38,-8 1565.38,-8 1565.38,-4 1569.38,-4 1569.38,0 1667.12,0 1667.12,-36"/>
<polyline fill="none" stroke="green" points="1569.38,-32 1573.38,-32 1573.38,-28 1569.38,-28"/>
<polyline fill="none" stroke="green" points="1569.38,-8 1573.38,-8 1573.38,-4 1569.38,-4"/>
<text text-anchor="middle" x="1618.25" y="-12.57" font-family="Times New Roman,serif" font-size="14.00">(26) sub (q=5)</text>
</g>
<!-- 14&#45;&gt;26 -->
<g id="edge25" class="edge">
<title>14&#45;&gt;26</title>
<path fill="none" stroke="black" d="M1491.61,-71.52C1514.44,-62.06 1542.06,-50.6 1565.67,-40.81"/>
<polygon fill="black" stroke="black" points="1566.91,-44.08 1574.81,-37.02 1564.23,-37.62 1566.91,-44.08"/>
</g>
</g>
</svg>
