<?xml version="1.0" encoding="UTF-8" standalone="no"?>
<!DOCTYPE svg PUBLIC "-//W3C//DTD SVG 1.1//EN"
 "http://www.w3.org/Graphics/SVG/1.1/DTD/svg11.dtd">
<!-- Generated by graphviz version 8.0.5 (20230430.1635)
 -->
<!-- Pages: 1 -->
<svg width="1215pt" height="339pt"
 viewBox="0.00 0.00 1214.75 339.00" xmlns="http://www.w3.org/2000/svg" xmlns:xlink="http://www.w3.org/1999/xlink">
<g id="graph0" class="graph" transform="scale(1 1) rotate(0) translate(4 335)">
<polygon fill="white" stroke="none" points="-4,4 -4,-335 1210.75,-335 1210.75,4 -4,4"/>
<!-- 1 -->
<g id="node1" class="node">
<title>1</title>
<polygon fill="none" stroke="black" points="632.75,-331 574,-331 574,-291.5 632.75,-291.5 632.75,-331"/>
<text text-anchor="middle" x="603.38" y="-313.7" font-family="Times New Roman,serif" font-size="14.00">(1) root</text>
<text text-anchor="middle" x="603.38" y="-297.95" font-family="Times New Roman,serif" font-size="14.00">queue </text>
</g>
<!-- 2 -->
<g id="node2" class="node">
<title>2</title>
<polygon fill="none" stroke="purple" points="663.88,-255.5 554.88,-255.5 554.88,-259.5 542.88,-259.5 542.88,-219.5 663.88,-219.5 663.88,-255.5"/>
<polyline fill="none" stroke="purple" points="542.88,-255.5 554.88,-255.5"/>
<text text-anchor="middle" x="603.38" y="-232.07" font-family="Times New Roman,serif" font-size="14.00">(2) repeat (arg=10)</text>
</g>
<!-- 1&#45;&gt;2 -->
<g id="edge1" class="edge">
<title>1&#45;&gt;2</title>
<path fill="none" stroke="black" d="M603.38,-291.02C603.38,-283.57 603.38,-274.9 603.38,-266.76"/>
<polygon fill="black" stroke="black" points="606.88,-266.82 603.38,-256.82 599.88,-266.82 606.88,-266.82"/>
</g>
<!-- 3 -->
<g id="node3" class="node">
<title>3</title>
<polygon fill="none" stroke="blue" points="648.88,-183.5 557.88,-183.5 557.88,-147.5 648.88,-147.5 648.88,-183.5"/>
<text text-anchor="middle" x="603.38" y="-160.07" font-family="Times New Roman,serif" font-size="14.00">(3) r_fallback</text>
</g>
<!-- 2&#45;&gt;3 -->
<g id="edge2" class="edge">
<title>2&#45;&gt;3</title>
<path fill="none" stroke="black" d="M603.38,-219.2C603.38,-211.74 603.38,-202.82 603.38,-194.47"/>
<polygon fill="black" stroke="black" points="606.88,-194.6 603.38,-184.6 599.88,-194.6 606.88,-194.6"/>
</g>
<!-- 8 -->
<g id="node4" class="node">
<title>8</title>
<polygon fill="none" stroke="darkred" points="226.75,-111.5 0,-111.5 0,-72 226.75,-72 226.75,-111.5"/>
<text text-anchor="middle" x="113.38" y="-94.2" font-family="Times New Roman,serif" font-size="14.00">(8) r_sequence</text>
<text text-anchor="middle" x="113.38" y="-78.45" font-family="Times New Roman,serif" font-size="14.00">task (prep=env(&lt;&gt;),action=exec(&lt;&gt;))</text>
</g>
<!-- 3&#45;&gt;8 -->
<g id="edge3" class="edge">
<title>3&#45;&gt;8</title>
<path fill="none" stroke="black" d="M557.59,-158.01C490.09,-148.41 359.61,-129.75 237.61,-111.68"/>
<polygon fill="black" stroke="black" points="238.37,-108.1 227.96,-110.1 237.34,-115.03 238.37,-108.1"/>
</g>
<!-- 7 -->
<g id="node5" class="node">
<title>7</title>
<polygon fill="none" stroke="darkred" points="471.75,-111.5 245,-111.5 245,-72 471.75,-72 471.75,-111.5"/>
<text text-anchor="middle" x="358.38" y="-94.2" font-family="Times New Roman,serif" font-size="14.00">(7) r_sequence</text>
<text text-anchor="middle" x="358.38" y="-78.45" font-family="Times New Roman,serif" font-size="14.00">task (prep=env(&lt;&gt;),action=exec(&lt;&gt;))</text>
</g>
<!-- 3&#45;&gt;7 -->
<g id="edge4" class="edge">
<title>3&#45;&gt;7</title>
<path fill="none" stroke="black" d="M557.58,-151.09C522.92,-140.94 474.56,-126.78 434.17,-114.95"/>
<polygon fill="black" stroke="black" points="435.4,-111.37 424.82,-111.92 433.43,-118.09 435.4,-111.37"/>
</g>
<!-- 6 -->
<g id="node6" class="node">
<title>6</title>
<polygon fill="none" stroke="darkred" points="716.75,-111.5 490,-111.5 490,-72 716.75,-72 716.75,-111.5"/>
<text text-anchor="middle" x="603.38" y="-94.2" font-family="Times New Roman,serif" font-size="14.00">(6) r_sequence</text>
<text text-anchor="middle" x="603.38" y="-78.45" font-family="Times New Roman,serif" font-size="14.00">task (prep=env(&lt;&gt;),action=exec(&lt;&gt;))</text>
</g>
<!-- 3&#45;&gt;6 -->
<g id="edge5" class="edge">
<title>3&#45;&gt;6</title>
<path fill="none" stroke="black" d="M603.38,-147.13C603.38,-139.83 603.38,-131.12 603.38,-122.84"/>
<polygon fill="black" stroke="black" points="606.88,-122.98 603.38,-112.98 599.88,-122.98 606.88,-122.98"/>
</g>
<!-- 5 -->
<g id="node7" class="node">
<title>5</title>
<polygon fill="none" stroke="darkred" points="961.75,-111.5 735,-111.5 735,-72 961.75,-72 961.75,-111.5"/>
<text text-anchor="middle" x="848.38" y="-94.2" font-family="Times New Roman,serif" font-size="14.00">(5) r_sequence</text>
<text text-anchor="middle" x="848.38" y="-78.45" font-family="Times New Roman,serif" font-size="14.00">task (prep=env(&lt;&gt;),action=exec(&lt;&gt;))</text>
</g>
<!-- 3&#45;&gt;5 -->
<g id="edge6" class="edge">
<title>3&#45;&gt;5</title>
<path fill="none" stroke="black" d="M649.17,-151.09C683.83,-140.94 732.19,-126.78 772.58,-114.95"/>
<polygon fill="black" stroke="black" points="773.32,-118.09 781.93,-111.92 771.35,-111.37 773.32,-118.09"/>
</g>
<!-- 4 -->
<g id="node8" class="node">
<title>4</title>
<polygon fill="none" stroke="darkred" points="1206.75,-111.5 980,-111.5 980,-72 1206.75,-72 1206.75,-111.5"/>
<text text-anchor="middle" x="1093.38" y="-94.2" font-family="Times New Roman,serif" font-size="14.00">(4) r_sequence</text>
<text text-anchor="middle" x="1093.38" y="-78.45" font-family="Times New Roman,serif" font-size="14.00">task (prep=env(&lt;&gt;),action=exec(&lt;&gt;))</text>
</g>
<!-- 3&#45;&gt;4 -->
<g id="edge7" class="edge">
<title>3&#45;&gt;4</title>
<path fill="none" stroke="black" d="M649.16,-158.01C716.66,-148.41 847.14,-129.75 969.14,-111.68"/>
<polygon fill="black" stroke="black" points="969.41,-115.03 978.79,-110.1 968.38,-108.1 969.41,-115.03"/>
</g>
<!-- 17 -->
<g id="node9" class="node">
<title>17</title>
<polygon fill="none" stroke="green" points="113.75,-36 7,-36 7,-32 3,-32 3,-28 7,-28 7,-8 3,-8 3,-4 7,-4 7,0 113.75,0 113.75,-36"/>
<polyline fill="none" stroke="green" points="7,-32 11,-32 11,-28 7,-28"/>
<polyline fill="none" stroke="green" points="7,-8 11,-8 11,-4 7,-4"/>
<text text-anchor="middle" x="60.38" y="-12.57" font-family="Times New Roman,serif" font-size="14.00">(17) env (idx=5)</text>
</g>
<!-- 8&#45;&gt;17 -->
<g id="edge8" class="edge">
<title>8&#45;&gt;17</title>
<path fill="none" stroke="black" d="M99.17,-71.52C93.16,-63.39 86.07,-53.79 79.61,-45.04"/>
<polygon fill="black" stroke="black" points="81.92,-43.28 73.17,-37.32 76.29,-47.44 81.92,-43.28"/>
</g>
<!-- 18 -->
<g id="node10" class="node">
<title>18</title>
<polygon fill="none" stroke="green" points="203.12,-36 131.62,-36 131.62,-32 127.62,-32 127.62,-28 131.62,-28 131.62,-8 127.62,-8 127.62,-4 131.62,-4 131.62,0 203.12,0 203.12,-36"/>
<polyline fill="none" stroke="green" points="131.62,-32 135.62,-32 135.62,-28 131.62,-28"/>
<polyline fill="none" stroke="green" points="131.62,-8 135.62,-8 135.62,-4 131.62,-4"/>
<text text-anchor="middle" x="167.38" y="-12.57" font-family="Times New Roman,serif" font-size="14.00">(18) exec </text>
</g>
<!-- 8&#45;&gt;18 -->
<g id="edge9" class="edge">
<title>8&#45;&gt;18</title>
<path fill="none" stroke="black" d="M127.85,-71.52C133.97,-63.39 141.19,-53.79 147.78,-45.04"/>
<polygon fill="black" stroke="black" points="151.12,-47.41 154.34,-37.32 145.53,-43.2 151.12,-47.41"/>
</g>
<!-- 15 -->
<g id="node11" class="node">
<title>15</title>
<polygon fill="none" stroke="green" points="370.75,-36 264,-36 264,-32 260,-32 260,-28 264,-28 264,-8 260,-8 260,-4 264,-4 264,0 370.75,0 370.75,-36"/>
<polyline fill="none" stroke="green" points="264,-32 268,-32 268,-28 264,-28"/>
<polyline fill="none" stroke="green" points="264,-8 268,-8 268,-4 264,-4"/>
<text text-anchor="middle" x="317.38" y="-12.57" font-family="Times New Roman,serif" font-size="14.00">(15) env (idx=4)</text>
</g>
<!-- 7&#45;&gt;15 -->
<g id="edge10" class="edge">
<title>7&#45;&gt;15</title>
<path fill="none" stroke="black" d="M347.39,-71.52C342.89,-63.65 337.6,-54.39 332.73,-45.87"/>
<polygon fill="black" stroke="black" points="335.27,-44.26 327.27,-37.32 329.19,-47.74 335.27,-44.26"/>
</g>
<!-- 16 -->
<g id="node12" class="node">
<title>16</title>
<polygon fill="none" stroke="green" points="460.12,-36 388.62,-36 388.62,-32 384.62,-32 384.62,-28 388.62,-28 388.62,-8 384.62,-8 384.62,-4 388.62,-4 388.62,0 460.12,0 460.12,-36"/>
<polyline fill="none" stroke="green" points="388.62,-32 392.62,-32 392.62,-28 388.62,-28"/>
<polyline fill="none" stroke="green" points="388.62,-8 392.62,-8 392.62,-4 388.62,-4"/>
<text text-anchor="middle" x="424.38" y="-12.57" font-family="Times New Roman,serif" font-size="14.00">(16) exec </text>
</g>
<!-- 7&#45;&gt;16 -->
<g id="edge11" class="edge">
<title>7&#45;&gt;16</title>
<path fill="none" stroke="black" d="M376.06,-71.52C383.78,-63.13 392.93,-53.18 401.19,-44.21"/>
<polygon fill="black" stroke="black" points="403.25,-47.05 407.45,-37.32 398.1,-42.31 403.25,-47.05"/>
</g>
<!-- 13 -->
<g id="node13" class="node">
<title>13</title>
<polygon fill="none" stroke="green" points="622.75,-36 516,-36 516,-32 512,-32 512,-28 516,-28 516,-8 512,-8 512,-4 516,-4 516,0 622.75,0 622.75,-36"/>
<polyline fill="none" stroke="green" points="516,-32 520,-32 520,-28 516,-28"/>
<polyline fill="none" stroke="green" points="516,-8 520,-8 520,-4 516,-4"/>
<text text-anchor="middle" x="569.38" y="-12.57" font-family="Times New Roman,serif" font-size="14.00">(13) env (idx=3)</text>
</g>
<!-- 6&#45;&gt;13 -->
<g id="edge12" class="edge">
<title>6&#45;&gt;13</title>
<path fill="none" stroke="black" d="M594.26,-71.52C590.57,-63.73 586.24,-54.59 582.24,-46.15"/>
<polygon fill="black" stroke="black" points="585.03,-44.86 577.58,-37.32 578.7,-47.85 585.03,-44.86"/>
</g>
<!-- 14 -->
<g id="node14" class="node">
<title>14</title>
<polygon fill="none" stroke="green" points="712.12,-36 640.62,-36 640.62,-32 636.62,-32 636.62,-28 640.62,-28 640.62,-8 636.62,-8 636.62,-4 640.62,-4 640.62,0 712.12,0 712.12,-36"/>
<polyline fill="none" stroke="green" points="640.62,-32 644.62,-32 644.62,-28 640.62,-28"/>
<polyline fill="none" stroke="green" points="640.62,-8 644.62,-8 644.62,-4 640.62,-4"/>
<text text-anchor="middle" x="676.38" y="-12.57" font-family="Times New Roman,serif" font-size="14.00">(14) exec </text>
</g>
<!-- 6&#45;&gt;14 -->
<g id="edge13" class="edge">
<title>6&#45;&gt;14</title>
<path fill="none" stroke="black" d="M622.94,-71.52C631.56,-63.05 641.81,-52.98 651.01,-43.93"/>
<polygon fill="black" stroke="black" points="653.08,-46.82 657.76,-37.32 648.17,-41.83 653.08,-46.82"/>
</g>
<!-- 11 -->
<g id="node15" class="node">
<title>11</title>
<polygon fill="none" stroke="green" points="855.75,-36 749,-36 749,-32 745,-32 745,-28 749,-28 749,-8 745,-8 745,-4 749,-4 749,0 855.75,0 855.75,-36"/>
<polyline fill="none" stroke="green" points="749,-32 753,-32 753,-28 749,-28"/>
<polyline fill="none" stroke="green" points="749,-8 753,-8 753,-4 749,-4"/>
<text text-anchor="middle" x="802.38" y="-12.57" font-family="Times New Roman,serif" font-size="14.00">(11) env (idx=2)</text>
</g>
<!-- 5&#45;&gt;11 -->
<g id="edge14" class="edge">
<title>5&#45;&gt;11</title>
<path fill="none" stroke="black" d="M836.05,-71.52C830.89,-63.47 824.81,-53.99 819.24,-45.31"/>
<polygon fill="black" stroke="black" points="821.82,-43.85 813.48,-37.32 815.93,-47.62 821.82,-43.85"/>
</g>
<!-- 12 -->
<g id="node16" class="node">
<title>12</title>
<polygon fill="none" stroke="green" points="945.12,-36 873.62,-36 873.62,-32 869.62,-32 869.62,-28 873.62,-28 873.62,-8 869.62,-8 869.62,-4 873.62,-4 873.62,0 945.12,0 945.12,-36"/>
<polyline fill="none" stroke="green" points="873.62,-32 877.62,-32 877.62,-28 873.62,-28"/>
<polyline fill="none" stroke="green" points="873.62,-8 877.62,-8 877.62,-4 873.62,-4"/>
<text text-anchor="middle" x="909.38" y="-12.57" font-family="Times New Roman,serif" font-size="14.00">(12) exec </text>
</g>
<!-- 5&#45;&gt;12 -->
<g id="edge15" class="edge">
<title>5&#45;&gt;12</title>
<path fill="none" stroke="black" d="M864.72,-71.52C871.78,-63.22 880.14,-53.38 887.71,-44.48"/>
<polygon fill="black" stroke="black" points="890.84,-47.2 894.65,-37.32 885.51,-42.67 890.84,-47.2"/>
</g>
<!-- 9 -->
<g id="node17" class="node">
<title>9</title>
<polygon fill="none" stroke="green" points="1072.38,-36 972.38,-36 972.38,-32 968.38,-32 968.38,-28 972.38,-28 972.38,-8 968.38,-8 968.38,-4 972.38,-4 972.38,0 1072.38,0 1072.38,-36"/>
<polyline fill="none" stroke="green" points="972.38,-32 976.38,-32 976.38,-28 972.38,-28"/>
<polyline fill="none" stroke="green" points="972.38,-8 976.38,-8 976.38,-4 972.38,-4"/>
<text text-anchor="middle" x="1022.38" y="-12.57" font-family="Times New Roman,serif" font-size="14.00">(9) env (idx=1)</text>
</g>
<!-- 4&#45;&gt;9 -->
<g id="edge16" class="edge">
<title>4&#45;&gt;9</title>
<path fill="none" stroke="black" d="M1074.35,-71.52C1065.96,-63.05 1056,-52.98 1047.05,-43.93"/>
<polygon fill="black" stroke="black" points="1050.03,-41.96 1040.51,-37.32 1045.06,-46.89 1050.03,-41.96"/>
</g>
<!-- 10 -->
<g id="node18" class="node">
<title>10</title>
<polygon fill="none" stroke="green" points="1162.12,-36 1090.62,-36 1090.62,-32 1086.62,-32 1086.62,-28 1090.62,-28 1090.62,-8 1086.62,-8 1086.62,-4 1090.62,-4 1090.62,0 1162.12,0 1162.12,-36"/>
<polyline fill="none" stroke="green" points="1090.62,-32 1094.62,-32 1094.62,-28 1090.62,-28"/>
<polyline fill="none" stroke="green" points="1090.62,-8 1094.62,-8 1094.62,-4 1090.62,-4"/>
<text text-anchor="middle" x="1126.38" y="-12.57" font-family="Times New Roman,serif" font-size="14.00">(10) exec </text>
</g>
<!-- 4&#45;&gt;10 -->
<g id="edge17" class="edge">
<title>4&#45;&gt;10</title>
<path fill="none" stroke="black" d="M1102.22,-71.52C1105.8,-63.73 1110,-54.59 1113.89,-46.15"/>
<polygon fill="black" stroke="black" points="1117.41,-47.86 1118.41,-37.32 1111.05,-44.94 1117.41,-47.86"/>
</g>
</g>
</svg>
