<?xml version="1.0" encoding="UTF-8" standalone="no"?>
<!DOCTYPE svg PUBLIC "-//W3C//DTD SVG 1.1//EN"
 "http://www.w3.org/Graphics/SVG/1.1/DTD/svg11.dtd">
<!-- Generated by graphviz version 8.0.5 (20230430.1635)
 -->
<!-- Pages: 1 -->
<svg width="1215pt" height="339pt"
 viewBox="0.00 0.00 1214.75 339.00" xmlns="http://www.w3.org/2000/svg" xmlns:xlink="http://www.w3.org/1999/xlink">
<g id="graph0" class="graph" transform="scale(1 1) rotate(0) translate(4 335)">
<polygon fill="white" stroke="none" points="-4,4 -4,-335 1210.75,-335 1210.75,4 -4,4"/>
<!-- 1 -->
<g id="node1" class="node">
<title>1</title>
<polygon fill="none" stroke="black" points="632.75,-331 574,-331 574,-291.5 632.75,-291.5 632.75,-331"/>
<text text-anchor="middle" x="603.38" y="-313.7" font-family="Times New Roman,serif" font-size="14.00">(1) root</text>
<text text-anchor="middle" x="603.38" y="-297.95" font-family="Times New Roman,serif" font-size="14.00">queue </text>
</g>
<!-- 2 -->
<g id="node2" class="node">
<title>2</title>
<polygon fill="none" stroke="purple" points="663.88,-255.5 554.88,-255.5 554.88,-259.5 542.88,-259.5 542.88,-219.5 663.88,-219.5 663.88,-255.5"/>
<polyline fill="none" stroke="purple" points="542.88,-255.5 554.88,-255.5"/>
<text text-anchor="middle" x="603.38" y="-232.07" font-family="Times New Roman,serif" font-size="14.00">(2) repeat (arg=10)</text>
</g>
<!-- 1&#45;&gt;2 -->
<g id="edge1" class="edge">
<title>1&#45;&gt;2</title>
<path fill="none" stroke="black" d="M603.38,-291.02C603.38,-283.57 603.38,-274.9 603.38,-266.76"/>
<polygon fill="black" stroke="black" points="606.88,-266.82 603.38,-256.82 599.88,-266.82 606.88,-266.82"/>
</g>
<!-- 3 -->
<g id="node3" class="node">
<title>3</title>
<polygon fill="none" stroke="blue" points="648.88,-183.5 557.88,-183.5 557.88,-147.5 648.88,-147.5 648.88,-183.5"/>
<text text-anchor="middle" x="603.38" y="-160.07" font-family="Times New Roman,serif" font-size="14.00">(3) r_fallback</text>
</g>
<!-- 2&#45;&gt;3 -->
<g id="edge2" class="edge">
<title>2&#45;&gt;3</title>
<path fill="none" stroke="black" d="M603.38,-219.2C603.38,-211.74 603.38,-202.82 603.38,-194.47"/>
<polygon fill="black" stroke="black" points="606.88,-194.6 603.38,-184.6 599.88,-194.6 606.88,-194.6"/>
</g>
<!-- 4 -->
<g id="node4" class="node">
<title>4</title>
<polygon fill="none" stroke="darkred" points="226.75,-111.5 0,-111.5 0,-72 226.75,-72 226.75,-111.5"/>
<text text-anchor="middle" x="113.38" y="-94.2" font-family="Times New Roman,serif" font-size="14.00">(4) r_sequence</text>
<text text-anchor="middle" x="113.38" y="-78.45" font-family="Times New Roman,serif" font-size="14.00">task (prep=env(&lt;&gt;),action=exec(&lt;&gt;))</text>
</g>
<!-- 3&#45;&gt;4 -->
<g id="edge3" class="edge">
<title>3&#45;&gt;4</title>
<path fill="none" stroke="black" d="M557.59,-158.01C490.09,-148.41 359.61,-129.75 237.61,-111.68"/>
<polygon fill="black" stroke="black" points="238.37,-108.1 227.96,-110.1 237.34,-115.03 238.37,-108.1"/>
</g>
<!-- 5 -->
<g id="node5" class="node">
<title>5</title>
<polygon fill="none" stroke="darkred" points="471.75,-111.5 245,-111.5 245,-72 471.75,-72 471.75,-111.5"/>
<text text-anchor="middle" x="358.38" y="-94.2" font-family="Times New Roman,serif" font-size="14.00">(5) r_sequence</text>
<text text-anchor="middle" x="358.38" y="-78.45" font-family="Times New Roman,serif" font-size="14.00">task (prep=env(&lt;&gt;),action=exec(&lt;&gt;))</text>
</g>
<!-- 3&#45;&gt;5 -->
<g id="edge4" class="edge">
<title>3&#45;&gt;5</title>
<path fill="none" stroke="black" d="M557.58,-151.09C522.92,-140.94 474.56,-126.78 434.17,-114.95"/>
<polygon fill="black" stroke="black" points="435.4,-111.37 424.82,-111.92 433.43,-118.09 435.4,-111.37"/>
</g>
<!-- 6 -->
<g id="node6" class="node">
<title>6</title>
<polygon fill="none" stroke="darkred" points="716.75,-111.5 490,-111.5 490,-72 716.75,-72 716.75,-111.5"/>
<text text-anchor="middle" x="603.38" y="-94.2" font-family="Times New Roman,serif" font-size="14.00">(6) r_sequence</text>
<text text-anchor="middle" x="603.38" y="-78.45" font-family="Times New Roman,serif" font-size="14.00">task (prep=env(&lt;&gt;),action=exec(&lt;&gt;))</text>
</g>
<!-- 3&#45;&gt;6 -->
<g id="edge5" class="edge">
<title>3&#45;&gt;6</title>
<path fill="none" stroke="black" d="M603.38,-147.13C603.38,-139.83 603.38,-131.12 603.38,-122.84"/>
<polygon fill="black" stroke="black" points="606.88,-122.98 603.38,-112.98 599.88,-122.98 606.88,-122.98"/>
</g>
<!-- 7 -->
<g id="node7" class="node">
<title>7</title>
<polygon fill="none" stroke="darkred" points="961.75,-111.5 735,-111.5 735,-72 961.75,-72 961.75,-111.5"/>
<text text-anchor="middle" x="848.38" y="-94.2" font-family="Times New Roman,serif" font-size="14.00">(7) r_sequence</text>
<text text-anchor="middle" x="848.38" y="-78.45" font-family="Times New Roman,serif" font-size="14.00">task (prep=env(&lt;&gt;),action=exec(&lt;&gt;))</text>
</g>
<!-- 3&#45;&gt;7 -->
<g id="edge6" class="edge">
<title>3&#45;&gt;7</title>
<path fill="none" stroke="black" d="M649.17,-151.09C683.83,-140.94 732.19,-126.78 772.58,-114.95"/>
<polygon fill="black" stroke="black" points="773.32,-118.09 781.93,-111.92 771.35,-111.37 773.32,-118.09"/>
</g>
<!-- 8 -->
<g id="node8" class="node">
<title>8</title>
<polygon fill="none" stroke="darkred" points="1206.75,-111.5 980,-111.5 980,-72 1206.75,-72 1206.75,-111.5"/>
<text text-anchor="middle" x="1093.38" y="-94.2" font-family="Times New Roman,serif" font-size="14.00">(8) r_sequence</text>
<text text-anchor="middle" x="1093.38" y="-78.45" font-family="Times New Roman,serif" font-size="14.00">task (prep=env(&lt;&gt;),action=exec(&lt;&gt;))</text>
</g>
<!-- 3&#45;&gt;8 -->
<g id="edge7" class="edge">
<title>3&#45;&gt;8</title>
<path fill="none" stroke="black" d="M649.16,-158.01C716.66,-148.41 847.14,-129.75 969.14,-111.68"/>
<polygon fill="black" stroke="black" points="969.41,-115.03 978.79,-110.1 968.38,-108.1 969.41,-115.03"/>
</g>
<!-- 9 -->
<g id="node9" class="node">
<title>9</title>
<polygon fill="none" stroke="green" points="111.38,-36 11.38,-36 11.38,-32 7.38,-32 7.38,-28 11.38,-28 11.38,-8 7.38,-8 7.38,-4 11.38,-4 11.38,0 111.38,0 111.38,-36"/>
<polyline fill="none" stroke="green" points="11.38,-32 15.38,-32 15.38,-28 11.38,-28"/>
<polyline fill="none" stroke="green" points="11.38,-8 15.38,-8 15.38,-4 11.38,-4"/>
<text text-anchor="middle" x="61.38" y="-12.57" font-family="Times New Roman,serif" font-size="14.00">(9) env (idx=1)</text>
</g>
<!-- 4&#45;&gt;9 -->
<g id="edge8" class="edge">
<title>4&#45;&gt;9</title>
<path fill="none" stroke="black" d="M99.44,-71.52C93.55,-63.39 86.59,-53.79 80.24,-45.04"/>
<polygon fill="black" stroke="black" points="82.63,-43.36 73.93,-37.32 76.96,-47.47 82.63,-43.36"/>
</g>
<!-- 10 -->
<g id="node10" class="node">
<title>10</title>
<polygon fill="none" stroke="green" points="201.12,-36 129.62,-36 129.62,-32 125.62,-32 125.62,-28 129.62,-28 129.62,-8 125.62,-8 125.62,-4 129.62,-4 129.62,0 201.12,0 201.12,-36"/>
<polyline fill="none" stroke="green" points="129.62,-32 133.62,-32 133.62,-28 129.62,-28"/>
<polyline fill="none" stroke="green" points="129.62,-8 133.62,-8 133.62,-4 129.62,-4"/>
<text text-anchor="middle" x="165.38" y="-12.57" font-family="Times New Roman,serif" font-size="14.00">(10) exec </text>
</g>
<!-- 4&#45;&gt;10 -->
<g id="edge9" class="edge">
<title>4&#45;&gt;10</title>
<path fill="none" stroke="black" d="M127.31,-71.52C133.2,-63.39 140.16,-53.79 146.51,-45.04"/>
<polygon fill="black" stroke="black" points="149.79,-47.47 152.82,-37.32 144.12,-43.36 149.79,-47.47"/>
</g>
<!-- 11 -->
<g id="node11" class="node">
<title>11</title>
<polygon fill="none" stroke="green" points="370.75,-36 264,-36 264,-32 260,-32 260,-28 264,-28 264,-8 260,-8 260,-4 264,-4 264,0 370.75,0 370.75,-36"/>
<polyline fill="none" stroke="green" points="264,-32 268,-32 268,-28 264,-28"/>
<polyline fill="none" stroke="green" points="264,-8 268,-8 268,-4 264,-4"/>
<text text-anchor="middle" x="317.38" y="-12.57" font-family="Times New Roman,serif" font-size="14.00">(11) env (idx=2)</text>
</g>
<!-- 5&#45;&gt;11 -->
<g id="edge10" class="edge">
<title>5&#45;&gt;11</title>
<path fill="none" stroke="black" d="M347.39,-71.52C342.89,-63.65 337.6,-54.39 332.73,-45.87"/>
<polygon fill="black" stroke="black" points="335.27,-44.26 327.27,-37.32 329.19,-47.74 335.27,-44.26"/>
</g>
<!-- 12 -->
<g id="node12" class="node">
<title>12</title>
<polygon fill="none" stroke="green" points="460.12,-36 388.62,-36 388.62,-32 384.62,-32 384.62,-28 388.62,-28 388.62,-8 384.62,-8 384.62,-4 388.62,-4 388.62,0 460.12,0 460.12,-36"/>
<polyline fill="none" stroke="green" points="388.62,-32 392.62,-32 392.62,-28 388.62,-28"/>
<polyline fill="none" stroke="green" points="388.62,-8 392.62,-8 392.62,-4 388.62,-4"/>
<text text-anchor="middle" x="424.38" y="-12.57" font-family="Times New Roman,serif" font-size="14.00">(12) exec </text>
</g>
<!-- 5&#45;&gt;12 -->
<g id="edge11" class="edge">
<title>5&#45;&gt;12</title>
<path fill="none" stroke="black" d="M376.06,-71.52C383.78,-63.13 392.93,-53.18 401.19,-44.21"/>
<polygon fill="black" stroke="black" points="403.25,-47.05 407.45,-37.32 398.1,-42.31 403.25,-47.05"/>
</g>
<!-- 13 -->
<g id="node13" class="node">
<title>13</title>
<polygon fill="none" stroke="green" points="620.75,-36 514,-36 514,-32 510,-32 510,-28 514,-28 514,-8 510,-8 510,-4 514,-4 514,0 620.75,0 620.75,-36"/>
<polyline fill="none" stroke="green" points="514,-32 518,-32 518,-28 514,-28"/>
<polyline fill="none" stroke="green" points="514,-8 518,-8 518,-4 514,-4"/>
<text text-anchor="middle" x="567.38" y="-12.57" font-family="Times New Roman,serif" font-size="14.00">(13) env (idx=3)</text>
</g>
<!-- 6&#45;&gt;13 -->
<g id="edge12" class="edge">
<title>6&#45;&gt;13</title>
<path fill="none" stroke="black" d="M593.73,-71.52C589.82,-63.73 585.23,-54.59 581,-46.15"/>
<polygon fill="black" stroke="black" points="583.68,-44.69 576.06,-37.32 577.42,-47.82 583.68,-44.69"/>
</g>
<!-- 14 -->
<g id="node14" class="node">
<title>14</title>
<polygon fill="none" stroke="green" points="710.12,-36 638.62,-36 638.62,-32 634.62,-32 634.62,-28 638.62,-28 638.62,-8 634.62,-8 634.62,-4 638.62,-4 638.62,0 710.12,0 710.12,-36"/>
<polyline fill="none" stroke="green" points="638.62,-32 642.62,-32 642.62,-28 638.62,-28"/>
<polyline fill="none" stroke="green" points="638.62,-8 642.62,-8 642.62,-4 638.62,-4"/>
<text text-anchor="middle" x="674.38" y="-12.57" font-family="Times New Roman,serif" font-size="14.00">(14) exec </text>
</g>
<!-- 6&#45;&gt;14 -->
<g id="edge13" class="edge">
<title>6&#45;&gt;14</title>
<path fill="none" stroke="black" d="M622.4,-71.52C630.79,-63.05 640.75,-52.98 649.7,-43.93"/>
<polygon fill="black" stroke="black" points="651.69,-46.89 656.24,-37.32 646.72,-41.96 651.69,-46.89"/>
</g>
<!-- 15 -->
<g id="node15" class="node">
<title>15</title>
<polygon fill="none" stroke="green" points="852.75,-36 746,-36 746,-32 742,-32 742,-28 746,-28 746,-8 742,-8 742,-4 746,-4 746,0 852.75,0 852.75,-36"/>
<polyline fill="none" stroke="green" points="746,-32 750,-32 750,-28 746,-28"/>
<polyline fill="none" stroke="green" points="746,-8 750,-8 750,-4 746,-4"/>
<text text-anchor="middle" x="799.38" y="-12.57" font-family="Times New Roman,serif" font-size="14.00">(15) env (idx=4)</text>
</g>
<!-- 7&#45;&gt;15 -->
<g id="edge14" class="edge">
<title>7&#45;&gt;15</title>
<path fill="none" stroke="black" d="M835.24,-71.52C829.75,-63.47 823.27,-53.99 817.34,-45.31"/>
<polygon fill="black" stroke="black" points="819.73,-43.6 811.2,-37.32 813.95,-47.55 819.73,-43.6"/>
</g>
<!-- 16 -->
<g id="node16" class="node">
<title>16</title>
<polygon fill="none" stroke="green" points="942.12,-36 870.62,-36 870.62,-32 866.62,-32 866.62,-28 870.62,-28 870.62,-8 866.62,-8 866.62,-4 870.62,-4 870.62,0 942.12,0 942.12,-36"/>
<polyline fill="none" stroke="green" points="870.62,-32 874.62,-32 874.62,-28 870.62,-28"/>
<polyline fill="none" stroke="green" points="870.62,-8 874.62,-8 874.62,-4 870.62,-4"/>
<text text-anchor="middle" x="906.38" y="-12.57" font-family="Times New Roman,serif" font-size="14.00">(16) exec </text>
</g>
<!-- 7&#45;&gt;16 -->
<g id="edge15" class="edge">
<title>7&#45;&gt;16</title>
<path fill="none" stroke="black" d="M863.92,-71.52C870.56,-63.3 878.42,-53.59 885.55,-44.76"/>
<polygon fill="black" stroke="black" points="888.81,-47.29 892.38,-37.32 883.37,-42.89 888.81,-47.29"/>
</g>
<!-- 17 -->
<g id="node17" class="node">
<title>17</title>
<polygon fill="none" stroke="green" points="1075.75,-36 969,-36 969,-32 965,-32 965,-28 969,-28 969,-8 965,-8 965,-4 969,-4 969,0 1075.75,0 1075.75,-36"/>
<polyline fill="none" stroke="green" points="969,-32 973,-32 973,-28 969,-28"/>
<polyline fill="none" stroke="green" points="969,-8 973,-8 973,-4 969,-4"/>
<text text-anchor="middle" x="1022.38" y="-12.57" font-family="Times New Roman,serif" font-size="14.00">(17) env (idx=5)</text>
</g>
<!-- 8&#45;&gt;17 -->
<g id="edge16" class="edge">
<title>8&#45;&gt;17</title>
<path fill="none" stroke="black" d="M1074.35,-71.52C1065.96,-63.05 1056,-52.98 1047.05,-43.93"/>
<polygon fill="black" stroke="black" points="1050.03,-41.96 1040.51,-37.32 1045.06,-46.89 1050.03,-41.96"/>
</g>
<!-- 18 -->
<g id="node18" class="node">
<title>18</title>
<polygon fill="none" stroke="green" points="1165.12,-36 1093.62,-36 1093.62,-32 1089.62,-32 1089.62,-28 1093.62,-28 1093.62,-8 1089.62,-8 1089.62,-4 1093.62,-4 1093.62,0 1165.12,0 1165.12,-36"/>
<polyline fill="none" stroke="green" points="1093.62,-32 1097.62,-32 1097.62,-28 1093.62,-28"/>
<polyline fill="none" stroke="green" points="1093.62,-8 1097.62,-8 1097.62,-4 1093.62,-4"/>
<text text-anchor="middle" x="1129.38" y="-12.57" font-family="Times New Roman,serif" font-size="14.00">(18) exec </text>
</g>
<!-- 8&#45;&gt;18 -->
<g id="edge17" class="edge">
<title>8&#45;&gt;18</title>
<path fill="none" stroke="black" d="M1103.02,-71.52C1106.93,-63.73 1111.52,-54.59 1115.75,-46.15"/>
<polygon fill="black" stroke="black" points="1119.33,-47.82 1120.69,-37.32 1113.07,-44.69 1119.33,-47.82"/>
</g>
</g>
</svg>
