<?xml version="1.0" encoding="UTF-8" standalone="no"?>
<!DOCTYPE svg PUBLIC "-//W3C//DTD SVG 1.1//EN"
 "http://www.w3.org/Graphics/SVG/1.1/DTD/svg11.dtd">
<!-- Generated by graphviz version 10.0.1 (20240210.2158)
 -->
<!-- Pages: 1 -->
<svg width="2792pt" height="568pt"
 viewBox="0.00 0.00 2792.12 568.00" xmlns="http://www.w3.org/2000/svg" xmlns:xlink="http://www.w3.org/1999/xlink">
<g id="graph0" class="graph" transform="scale(1 1) rotate(0) translate(4 564)">
<polygon fill="white" stroke="none" points="-4,4 -4,-564 2788.12,-564 2788.12,4 -4,4"/>
<!-- 1 -->
<g id="node1" class="node">
<title>1</title>
<polygon fill="none" stroke="black" points="1071.12,-560 1013.88,-560 1013.88,-519 1071.12,-519 1071.12,-560"/>
<text text-anchor="middle" x="1042.5" y="-542.7" font-family="Times,serif" font-size="14.00">(1) root</text>
<text text-anchor="middle" x="1042.5" y="-526.2" font-family="Times,serif" font-size="14.00">main </text>
</g>
<!-- 2 -->
<g id="node2" class="node">
<title>2</title>
<polygon fill="none" stroke="darkred" points="1085,-483 1000,-483 1000,-447 1085,-447 1085,-483"/>
<text text-anchor="middle" x="1042.5" y="-459.95" font-family="Times,serif" font-size="14.00">(2) sequence</text>
</g>
<!-- 1&#45;&gt;2 -->
<g id="edge1" class="edge">
<title>1&#45;&gt;2</title>
<path fill="none" stroke="black" d="M1042.5,-518.69C1042.5,-511.25 1042.5,-502.64 1042.5,-494.57"/>
<polygon fill="black" stroke="black" points="1046,-494.83 1042.5,-484.83 1039,-494.83 1046,-494.83"/>
</g>
<!-- 3 -->
<g id="node3" class="node">
<title>3</title>
<polygon fill="none" stroke="darkred" points="1028,-411 943,-411 943,-370 1028,-370 1028,-411"/>
<text text-anchor="middle" x="985.5" y="-393.7" font-family="Times,serif" font-size="14.00">(3) sequence</text>
<text text-anchor="middle" x="985.5" y="-377.2" font-family="Times,serif" font-size="14.00">init </text>
</g>
<!-- 2&#45;&gt;3 -->
<g id="edge2" class="edge">
<title>2&#45;&gt;3</title>
<path fill="none" stroke="black" d="M1028.99,-446.82C1022.79,-438.92 1015.25,-429.34 1008.21,-420.39"/>
<polygon fill="black" stroke="black" points="1011,-418.27 1002.07,-412.57 1005.5,-422.6 1011,-418.27"/>
</g>
<!-- 4 -->
<g id="node4" class="node">
<title>4</title>
<polygon fill="none" stroke="purple" points="1376.5,-408.5 1282.5,-408.5 1282.5,-412.5 1270.5,-412.5 1270.5,-372.5 1376.5,-372.5 1376.5,-408.5"/>
<polyline fill="none" stroke="purple" points="1270.5,-408.5 1282.5,-408.5"/>
<text text-anchor="middle" x="1323.5" y="-385.45" font-family="Times,serif" font-size="14.00">(4) retry (arg=0)</text>
</g>
<!-- 2&#45;&gt;4 -->
<g id="edge3" class="edge">
<title>2&#45;&gt;4</title>
<path fill="none" stroke="black" d="M1085.48,-452.91C1131.85,-440.95 1206.16,-421.77 1259.42,-408.03"/>
<polygon fill="black" stroke="black" points="1260.17,-411.45 1268.98,-405.57 1258.42,-404.68 1260.17,-411.45"/>
</g>
<!-- 5 -->
<g id="node5" class="node">
<title>5</title>
<polygon fill="none" stroke="green" points="304.5,-334 114.5,-334 114.5,-330 110.5,-330 110.5,-326 114.5,-326 114.5,-306 110.5,-306 110.5,-302 114.5,-302 114.5,-298 304.5,-298 304.5,-334"/>
<polyline fill="none" stroke="green" points="114.5,-330 118.5,-330 118.5,-326 114.5,-326"/>
<polyline fill="none" stroke="green" points="114.5,-306 118.5,-306 118.5,-302 114.5,-302"/>
<text text-anchor="middle" x="209.5" y="-310.95" font-family="Times,serif" font-size="14.00">(5) store (key=wall,value=wall)</text>
</g>
<!-- 3&#45;&gt;5 -->
<g id="edge4" class="edge">
<title>3&#45;&gt;5</title>
<path fill="none" stroke="black" d="M942.53,-387.14C837.43,-381.12 558.84,-363.62 316.12,-334.27"/>
<polygon fill="black" stroke="black" points="316.8,-330.82 306.45,-333.09 315.96,-337.77 316.8,-330.82"/>
</g>
<!-- 6 -->
<g id="node6" class="node">
<title>6</title>
<polygon fill="none" stroke="green" points="502.25,-334 322.75,-334 322.75,-330 318.75,-330 318.75,-326 322.75,-326 322.75,-306 318.75,-306 318.75,-302 322.75,-302 322.75,-298 502.25,-298 502.25,-334"/>
<polyline fill="none" stroke="green" points="322.75,-330 326.75,-330 326.75,-326 322.75,-326"/>
<polyline fill="none" stroke="green" points="322.75,-306 326.75,-306 326.75,-302 322.75,-302"/>
<text text-anchor="middle" x="412.5" y="-310.95" font-family="Times,serif" font-size="14.00">(6) store (key=left,value=left)</text>
</g>
<!-- 3&#45;&gt;6 -->
<g id="edge5" class="edge">
<title>3&#45;&gt;6</title>
<path fill="none" stroke="black" d="M942.59,-385.25C861.17,-377.03 678.42,-357.76 513.89,-334.3"/>
<polygon fill="black" stroke="black" points="514.47,-330.85 504.07,-332.89 513.48,-337.78 514.47,-330.85"/>
</g>
<!-- 7 -->
<g id="node7" class="node">
<title>7</title>
<polygon fill="none" stroke="green" points="714.75,-334 520.25,-334 520.25,-330 516.25,-330 516.25,-326 520.25,-326 520.25,-306 516.25,-306 516.25,-302 520.25,-302 520.25,-298 714.75,-298 714.75,-334"/>
<polyline fill="none" stroke="green" points="520.25,-330 524.25,-330 524.25,-326 520.25,-326"/>
<polyline fill="none" stroke="green" points="520.25,-306 524.25,-306 524.25,-302 520.25,-302"/>
<text text-anchor="middle" x="617.5" y="-310.95" font-family="Times,serif" font-size="14.00">(7) store (key=right,value=right)</text>
</g>
<!-- 3&#45;&gt;7 -->
<g id="edge6" class="edge">
<title>3&#45;&gt;7</title>
<path fill="none" stroke="black" d="M942.57,-381.04C887.74,-370.24 791.16,-351.21 717.48,-336.7"/>
<polygon fill="black" stroke="black" points="718.29,-333.29 707.8,-334.79 716.94,-340.16 718.29,-333.29"/>
</g>
<!-- 8 -->
<g id="node8" class="node">
<title>8</title>
<polygon fill="none" stroke="green" points="981.75,-334 733.25,-334 733.25,-330 729.25,-330 729.25,-326 733.25,-326 733.25,-306 729.25,-306 729.25,-302 733.25,-302 733.25,-298 981.75,-298 981.75,-334"/>
<polyline fill="none" stroke="green" points="733.25,-330 737.25,-330 737.25,-326 733.25,-326"/>
<polyline fill="none" stroke="green" points="733.25,-306 737.25,-306 737.25,-302 733.25,-302"/>
<text text-anchor="middle" x="857.5" y="-310.95" font-family="Times,serif" font-size="14.00">(8) store (key=backward,value=backward)</text>
</g>
<!-- 3&#45;&gt;8 -->
<g id="edge7" class="edge">
<title>3&#45;&gt;8</title>
<path fill="none" stroke="black" d="M950.52,-369.69C934.19,-360.44 914.65,-349.37 897.71,-339.78"/>
<polygon fill="black" stroke="black" points="899.82,-336.95 889.39,-335.07 896.37,-343.04 899.82,-336.95"/>
</g>
<!-- 9 -->
<g id="node9" class="node">
<title>9</title>
<polygon fill="none" stroke="green" points="1229,-334 1000,-334 1000,-330 996,-330 996,-326 1000,-326 1000,-306 996,-306 996,-302 1000,-302 1000,-298 1229,-298 1229,-334"/>
<polyline fill="none" stroke="green" points="1000,-330 1004,-330 1004,-326 1000,-326"/>
<polyline fill="none" stroke="green" points="1000,-306 1004,-306 1004,-302 1000,-302"/>
<text text-anchor="middle" x="1114.5" y="-310.95" font-family="Times,serif" font-size="14.00">(9) store (key=forward,value=forward)</text>
</g>
<!-- 3&#45;&gt;9 -->
<g id="edge8" class="edge">
<title>3&#45;&gt;9</title>
<path fill="none" stroke="black" d="M1020.75,-369.69C1037.21,-360.44 1056.9,-349.37 1073.98,-339.78"/>
<polygon fill="black" stroke="black" points="1075.36,-343.01 1082.36,-335.06 1071.93,-336.91 1075.36,-343.01"/>
</g>
<!-- 10 -->
<g id="node10" class="node">
<title>10</title>
<polygon fill="none" stroke="green" points="1346.12,-334 1246.88,-334 1246.88,-330 1242.88,-330 1242.88,-326 1246.88,-326 1246.88,-306 1242.88,-306 1242.88,-302 1246.88,-302 1246.88,-298 1346.12,-298 1346.12,-334"/>
<polyline fill="none" stroke="green" points="1246.88,-330 1250.88,-330 1250.88,-326 1246.88,-326"/>
<polyline fill="none" stroke="green" points="1246.88,-306 1250.88,-306 1250.88,-302 1246.88,-302"/>
<text text-anchor="middle" x="1296.5" y="-310.95" font-family="Times,serif" font-size="14.00">(10) init_robot </text>
</g>
<!-- 3&#45;&gt;10 -->
<g id="edge9" class="edge">
<title>3&#45;&gt;10</title>
<path fill="none" stroke="black" d="M1028.05,-380.99C1076.05,-371.2 1156.68,-354.19 1235.55,-334.41"/>
<polygon fill="black" stroke="black" points="1236.36,-337.82 1245.2,-331.97 1234.65,-331.03 1236.36,-337.82"/>
</g>
<!-- 11 -->
<g id="node11" class="node">
<title>11</title>
<polygon fill="none" stroke="green" points="1485,-334 1364,-334 1364,-330 1360,-330 1360,-326 1364,-326 1364,-306 1360,-306 1360,-302 1364,-302 1364,-298 1485,-298 1485,-334"/>
<polyline fill="none" stroke="green" points="1364,-330 1368,-330 1368,-326 1364,-326"/>
<polyline fill="none" stroke="green" points="1364,-306 1368,-306 1368,-302 1364,-302"/>
<text text-anchor="middle" x="1424.5" y="-310.95" font-family="Times,serif" font-size="14.00">(11) wait (sec=0.5)</text>
</g>
<!-- 3&#45;&gt;11 -->
<g id="edge10" class="edge">
<title>3&#45;&gt;11</title>
<path fill="none" stroke="black" d="M1028.45,-384.37C1095.62,-376.06 1229.78,-358.33 1352.53,-334.5"/>
<polygon fill="black" stroke="black" points="1352.99,-337.98 1362.13,-332.62 1351.64,-331.11 1352.99,-337.98"/>
</g>
<!-- 12 -->
<g id="node12" class="node">
<title>12</title>
<polygon fill="none" stroke="darkred" points="1594.38,-334 1502.62,-334 1502.62,-298 1594.38,-298 1594.38,-334"/>
<text text-anchor="middle" x="1548.5" y="-310.95" font-family="Times,serif" font-size="14.00">(12) sequence</text>
</g>
<!-- 4&#45;&gt;12 -->
<g id="edge11" class="edge">
<title>4&#45;&gt;12</title>
<path fill="none" stroke="black" d="M1376.82,-372.32C1411.45,-361.16 1456.52,-346.64 1491.8,-335.27"/>
<polygon fill="black" stroke="black" points="1492.53,-338.71 1500.97,-332.31 1490.38,-332.05 1492.53,-338.71"/>
</g>
<!-- 13 -->
<g id="node13" class="node">
<title>13</title>
<polygon fill="none" stroke="green" points="1534.38,-262 1466.62,-262 1466.62,-258 1462.62,-258 1462.62,-254 1466.62,-254 1466.62,-234 1462.62,-234 1462.62,-230 1466.62,-230 1466.62,-226 1534.38,-226 1534.38,-262"/>
<polyline fill="none" stroke="green" points="1466.62,-258 1470.62,-258 1470.62,-254 1466.62,-254"/>
<polyline fill="none" stroke="green" points="1466.62,-234 1470.62,-234 1470.62,-230 1466.62,-230"/>
<text text-anchor="middle" x="1500.5" y="-238.95" font-family="Times,serif" font-size="14.00">(13) step </text>
</g>
<!-- 12&#45;&gt;13 -->
<g id="edge12" class="edge">
<title>12&#45;&gt;13</title>
<path fill="none" stroke="black" d="M1536.63,-297.7C1531.23,-289.81 1524.71,-280.3 1518.7,-271.55"/>
<polygon fill="black" stroke="black" points="1521.63,-269.62 1513.08,-263.35 1515.85,-273.58 1521.63,-269.62"/>
</g>
<!-- 14 -->
<g id="node14" class="node">
<title>14</title>
<polygon fill="none" stroke="purple" points="1640.5,-262 1564.5,-262 1564.5,-266 1552.5,-266 1552.5,-226 1640.5,-226 1640.5,-262"/>
<polyline fill="none" stroke="purple" points="1552.5,-262 1564.5,-262"/>
<text text-anchor="middle" x="1596.5" y="-238.95" font-family="Times,serif" font-size="14.00">(14) inverter </text>
</g>
<!-- 12&#45;&gt;14 -->
<g id="edge13" class="edge">
<title>12&#45;&gt;14</title>
<path fill="none" stroke="black" d="M1560.37,-297.7C1565.77,-289.81 1572.29,-280.3 1578.3,-271.55"/>
<polygon fill="black" stroke="black" points="1581.15,-273.58 1583.92,-263.35 1575.37,-269.62 1581.15,-273.58"/>
</g>
<!-- 15 -->
<g id="node15" class="node">
<title>15</title>
<polygon fill="none" stroke="blue" points="1639.38,-190 1553.62,-190 1553.62,-149 1639.38,-149 1639.38,-190"/>
<text text-anchor="middle" x="1596.5" y="-172.7" font-family="Times,serif" font-size="14.00">(15) fallback</text>
<text text-anchor="middle" x="1596.5" y="-156.2" font-family="Times,serif" font-size="14.00">moving </text>
</g>
<!-- 14&#45;&gt;15 -->
<g id="edge14" class="edge">
<title>14&#45;&gt;15</title>
<path fill="none" stroke="black" d="M1596.5,-225.82C1596.5,-218.59 1596.5,-209.95 1596.5,-201.66"/>
<polygon fill="black" stroke="black" points="1600,-201.89 1596.5,-191.89 1593,-201.89 1600,-201.89"/>
</g>
<!-- 16 -->
<g id="node16" class="node">
<title>16</title>
<polygon fill="none" stroke="darkred" points="354.38,-113 262.62,-113 262.62,-72 354.38,-72 354.38,-113"/>
<text text-anchor="middle" x="308.5" y="-95.7" font-family="Times,serif" font-size="14.00">(16) sequence</text>
<text text-anchor="middle" x="308.5" y="-79.2" font-family="Times,serif" font-size="14.00">when_wall </text>
</g>
<!-- 15&#45;&gt;16 -->
<g id="edge15" class="edge">
<title>15&#45;&gt;16</title>
<path fill="none" stroke="black" d="M1553.28,-165.98C1361.16,-154.8 584.56,-109.57 365.99,-96.85"/>
<polygon fill="black" stroke="black" points="366.5,-93.37 356.31,-96.28 366.09,-100.36 366.5,-93.37"/>
</g>
<!-- 17 -->
<g id="node17" class="node">
<title>17</title>
<polygon fill="none" stroke="darkred" points="959.88,-113 835.12,-113 835.12,-72 959.88,-72 959.88,-113"/>
<text text-anchor="middle" x="897.5" y="-95.7" font-family="Times,serif" font-size="14.00">(17) sequence</text>
<text text-anchor="middle" x="897.5" y="-79.2" font-family="Times,serif" font-size="14.00">when_left_obstacle </text>
</g>
<!-- 15&#45;&gt;17 -->
<g id="edge16" class="edge">
<title>15&#45;&gt;17</title>
<path fill="none" stroke="black" d="M1553.3,-163.87C1437.12,-151.4 1116.93,-117.04 971.32,-101.42"/>
<polygon fill="black" stroke="black" points="972.12,-97.99 961.8,-100.4 971.37,-104.95 972.12,-97.99"/>
</g>
<!-- 18 -->
<g id="node18" class="node">
<title>18</title>
<polygon fill="none" stroke="darkred" points="1662.62,-113 1530.38,-113 1530.38,-72 1662.62,-72 1662.62,-113"/>
<text text-anchor="middle" x="1596.5" y="-95.7" font-family="Times,serif" font-size="14.00">(18) sequence</text>
<text text-anchor="middle" x="1596.5" y="-79.2" font-family="Times,serif" font-size="14.00">when_right_obstacle </text>
</g>
<!-- 15&#45;&gt;18 -->
<g id="edge17" class="edge">
<title>15&#45;&gt;18</title>
<path fill="none" stroke="black" d="M1596.5,-148.79C1596.5,-141.45 1596.5,-132.91 1596.5,-124.78"/>
<polygon fill="black" stroke="black" points="1600,-124.85 1596.5,-114.85 1593,-124.85 1600,-124.85"/>
</g>
<!-- 19 -->
<g id="node19" class="node">
<title>19</title>
<polygon fill="none" stroke="darkred" points="2267,-113 2134,-113 2134,-72 2267,-72 2267,-113"/>
<text text-anchor="middle" x="2200.5" y="-95.7" font-family="Times,serif" font-size="14.00">(19) sequence</text>
<text text-anchor="middle" x="2200.5" y="-79.2" font-family="Times,serif" font-size="14.00">when_front_obstacle </text>
</g>
<!-- 15&#45;&gt;19 -->
<g id="edge18" class="edge">
<title>15&#45;&gt;19</title>
<path fill="none" stroke="black" d="M1639.45,-163.17C1740.31,-150.64 1993.43,-119.21 2122.38,-103.2"/>
<polygon fill="black" stroke="black" points="2122.71,-106.69 2132.2,-101.98 2121.85,-99.74 2122.71,-106.69"/>
</g>
<!-- 20 -->
<g id="node20" class="node">
<title>20</title>
<polygon fill="none" stroke="green" points="2463.88,-110.5 2285.12,-110.5 2285.12,-106.5 2281.12,-106.5 2281.12,-102.5 2285.12,-102.5 2285.12,-82.5 2281.12,-82.5 2281.12,-78.5 2285.12,-78.5 2285.12,-74.5 2463.88,-74.5 2463.88,-110.5"/>
<polyline fill="none" stroke="green" points="2285.12,-106.5 2289.12,-106.5 2289.12,-102.5 2285.12,-102.5"/>
<polyline fill="none" stroke="green" points="2285.12,-82.5 2289.12,-82.5 2289.12,-78.5 2285.12,-78.5"/>
<text text-anchor="middle" x="2374.5" y="-87.45" font-family="Times,serif" font-size="14.00">(20) move (target=&amp;forward)</text>
</g>
<!-- 15&#45;&gt;20 -->
<g id="edge19" class="edge">
<title>15&#45;&gt;20</title>
<path fill="none" stroke="black" d="M1639.65,-166.7C1747.48,-161.84 2037.19,-146.46 2276.5,-113 2277.18,-112.9 2277.87,-112.81 2278.56,-112.71"/>
<polygon fill="black" stroke="black" points="2279.03,-116.18 2288.38,-111.2 2277.97,-109.26 2279.03,-116.18"/>
</g>
<!-- 21 -->
<g id="node21" class="node">
<title>21</title>
<polygon fill="none" stroke="green" points="175,-36 0,-36 0,-32 -4,-32 -4,-28 0,-28 0,-8 -4,-8 -4,-4 0,-4 0,0 175,0 175,-36"/>
<polyline fill="none" stroke="green" points="0,-32 4,-32 4,-28 0,-28"/>
<polyline fill="none" stroke="green" points="0,-8 4,-8 4,-4 0,-4"/>
<text text-anchor="middle" x="87.5" y="-12.95" font-family="Times,serif" font-size="14.00">(21) collision (target=&amp;wall)</text>
</g>
<!-- 16&#45;&gt;21 -->
<g id="edge20" class="edge">
<title>16&#45;&gt;21</title>
<path fill="none" stroke="black" d="M262.17,-76.3C230.05,-65.77 186.87,-51.6 151.47,-39.99"/>
<polygon fill="black" stroke="black" points="152.79,-36.74 142.2,-36.94 150.61,-43.39 152.79,-36.74"/>
</g>
<!-- 22 -->
<g id="node22" class="node">
<title>22</title>
<polygon fill="none" stroke="green" points="424.12,-36 192.88,-36 192.88,-32 188.88,-32 188.88,-28 192.88,-28 192.88,-8 188.88,-8 188.88,-4 192.88,-4 192.88,0 424.12,0 424.12,-36"/>
<polyline fill="none" stroke="green" points="192.88,-32 196.88,-32 196.88,-28 192.88,-28"/>
<polyline fill="none" stroke="green" points="192.88,-8 196.88,-8 196.88,-4 192.88,-4"/>
<text text-anchor="middle" x="308.5" y="-12.95" font-family="Times,serif" font-size="14.00">(22) turn (angle=2,with_random=false)</text>
</g>
<!-- 16&#45;&gt;22 -->
<g id="edge21" class="edge">
<title>16&#45;&gt;22</title>
<path fill="none" stroke="black" d="M308.5,-71.69C308.5,-64.25 308.5,-55.64 308.5,-47.57"/>
<polygon fill="black" stroke="black" points="312,-47.83 308.5,-37.83 305,-47.83 312,-47.83"/>
</g>
<!-- 23 -->
<g id="node23" class="node">
<title>23</title>
<polygon fill="none" stroke="green" points="612.38,-36 442.62,-36 442.62,-32 438.62,-32 438.62,-28 442.62,-28 442.62,-8 438.62,-8 438.62,-4 442.62,-4 442.62,0 612.38,0 612.38,-36"/>
<polyline fill="none" stroke="green" points="442.62,-32 446.62,-32 446.62,-28 442.62,-28"/>
<polyline fill="none" stroke="green" points="442.62,-8 446.62,-8 446.62,-4 442.62,-4"/>
<text text-anchor="middle" x="527.5" y="-12.95" font-family="Times,serif" font-size="14.00">(23) collision (target=&amp;left)</text>
</g>
<!-- 17&#45;&gt;23 -->
<g id="edge22" class="edge">
<title>17&#45;&gt;23</title>
<path fill="none" stroke="black" d="M834.73,-79.2C776.92,-67.87 690.29,-50.9 623.74,-37.86"/>
<polygon fill="black" stroke="black" points="624.79,-34.5 614.31,-36.01 623.45,-41.37 624.79,-34.5"/>
</g>
<!-- 24 -->
<g id="node24" class="node">
<title>24</title>
<polygon fill="none" stroke="green" points="818.75,-36 630.25,-36 630.25,-32 626.25,-32 626.25,-28 630.25,-28 630.25,-8 626.25,-8 626.25,-4 630.25,-4 630.25,0 818.75,0 818.75,-36"/>
<polyline fill="none" stroke="green" points="630.25,-32 634.25,-32 634.25,-28 630.25,-28"/>
<polyline fill="none" stroke="green" points="630.25,-8 634.25,-8 634.25,-4 630.25,-4"/>
<text text-anchor="middle" x="724.5" y="-12.95" font-family="Times,serif" font-size="14.00">(24) move (target=&amp;backward)</text>
</g>
<!-- 17&#45;&gt;24 -->
<g id="edge23" class="edge">
<title>17&#45;&gt;24</title>
<path fill="none" stroke="black" d="M850.23,-71.69C827.41,-62.13 799.97,-50.63 776.56,-40.82"/>
<polygon fill="black" stroke="black" points="778.09,-37.66 767.51,-37.03 775.38,-44.12 778.09,-37.66"/>
</g>
<!-- 25 -->
<g id="node25" class="node">
<title>25</title>
<polygon fill="none" stroke="green" points="958,-36 837,-36 837,-32 833,-32 833,-28 837,-28 837,-8 833,-8 833,-4 837,-4 837,0 958,0 958,-36"/>
<polyline fill="none" stroke="green" points="837,-32 841,-32 841,-28 837,-28"/>
<polyline fill="none" stroke="green" points="837,-8 841,-8 841,-4 837,-4"/>
<text text-anchor="middle" x="897.5" y="-12.95" font-family="Times,serif" font-size="14.00">(25) wait (sec=0.5)</text>
</g>
<!-- 17&#45;&gt;25 -->
<g id="edge24" class="edge">
<title>17&#45;&gt;25</title>
<path fill="none" stroke="black" d="M897.5,-71.69C897.5,-64.25 897.5,-55.64 897.5,-47.57"/>
<polygon fill="black" stroke="black" points="901,-47.83 897.5,-37.83 894,-47.83 901,-47.83"/>
</g>
<!-- 26 -->
<g id="node26" class="node">
<title>26</title>
<polygon fill="none" stroke="green" points="1202.88,-36 976.12,-36 976.12,-32 972.12,-32 972.12,-28 976.12,-28 976.12,-8 972.12,-8 972.12,-4 976.12,-4 976.12,0 1202.88,0 1202.88,-36"/>
<polyline fill="none" stroke="green" points="976.12,-32 980.12,-32 980.12,-28 976.12,-28"/>
<polyline fill="none" stroke="green" points="976.12,-8 980.12,-8 980.12,-4 976.12,-4"/>
<text text-anchor="middle" x="1089.5" y="-12.95" font-family="Times,serif" font-size="14.00">(26) turn (angle=1,with_random=true)</text>
</g>
<!-- 17&#45;&gt;26 -->
<g id="edge25" class="edge">
<title>17&#45;&gt;26</title>
<path fill="none" stroke="black" d="M950.22,-71.59C975.88,-61.9 1006.76,-50.24 1032.92,-40.37"/>
<polygon fill="black" stroke="black" points="1033.9,-43.74 1042.02,-36.93 1031.42,-37.19 1033.9,-43.74"/>
</g>
<!-- 27 -->
<g id="node27" class="node">
<title>27</title>
<polygon fill="none" stroke="green" points="1398.12,-36 1220.88,-36 1220.88,-32 1216.88,-32 1216.88,-28 1220.88,-28 1220.88,-8 1216.88,-8 1216.88,-4 1220.88,-4 1220.88,0 1398.12,0 1398.12,-36"/>
<polyline fill="none" stroke="green" points="1220.88,-32 1224.88,-32 1224.88,-28 1220.88,-28"/>
<polyline fill="none" stroke="green" points="1220.88,-8 1224.88,-8 1224.88,-4 1220.88,-4"/>
<text text-anchor="middle" x="1309.5" y="-12.95" font-family="Times,serif" font-size="14.00">(27) collision (target=&amp;right)</text>
</g>
<!-- 18&#45;&gt;27 -->
<g id="edge26" class="edge">
<title>18&#45;&gt;27</title>
<path fill="none" stroke="black" d="M1529.94,-74.68C1488.11,-64.12 1433.9,-50.42 1389.71,-39.26"/>
<polygon fill="black" stroke="black" points="1390.72,-35.91 1380.17,-36.85 1389.01,-42.69 1390.72,-35.91"/>
</g>
<!-- 28 -->
<g id="node28" class="node">
<title>28</title>
<polygon fill="none" stroke="green" points="1604.75,-36 1416.25,-36 1416.25,-32 1412.25,-32 1412.25,-28 1416.25,-28 1416.25,-8 1412.25,-8 1412.25,-4 1416.25,-4 1416.25,0 1604.75,0 1604.75,-36"/>
<polyline fill="none" stroke="green" points="1416.25,-32 1420.25,-32 1420.25,-28 1416.25,-28"/>
<polyline fill="none" stroke="green" points="1416.25,-8 1420.25,-8 1420.25,-4 1416.25,-4"/>
<text text-anchor="middle" x="1510.5" y="-12.95" font-family="Times,serif" font-size="14.00">(28) move (target=&amp;backward)</text>
</g>
<!-- 18&#45;&gt;28 -->
<g id="edge27" class="edge">
<title>18&#45;&gt;28</title>
<path fill="none" stroke="black" d="M1573,-71.69C1562.74,-63.04 1550.61,-52.81 1539.77,-43.68"/>
<polygon fill="black" stroke="black" points="1542.1,-41.06 1532.2,-37.3 1537.59,-46.42 1542.1,-41.06"/>
</g>
<!-- 29 -->
<g id="node29" class="node">
<title>29</title>
<polygon fill="none" stroke="green" points="1744,-36 1623,-36 1623,-32 1619,-32 1619,-28 1623,-28 1623,-8 1619,-8 1619,-4 1623,-4 1623,0 1744,0 1744,-36"/>
<polyline fill="none" stroke="green" points="1623,-32 1627,-32 1627,-28 1623,-28"/>
<polyline fill="none" stroke="green" points="1623,-8 1627,-8 1627,-4 1623,-4"/>
<text text-anchor="middle" x="1683.5" y="-12.95" font-family="Times,serif" font-size="14.00">(29) wait (sec=0.5)</text>
</g>
<!-- 18&#45;&gt;29 -->
<g id="edge28" class="edge">
<title>18&#45;&gt;29</title>
<path fill="none" stroke="black" d="M1620.27,-71.69C1630.65,-63.04 1642.93,-52.81 1653.89,-43.68"/>
<polygon fill="black" stroke="black" points="1656.11,-46.38 1661.55,-37.29 1651.63,-41 1656.11,-46.38"/>
</g>
<!-- 30 -->
<g id="node30" class="node">
<title>30</title>
<polygon fill="none" stroke="green" points="1993.12,-36 1761.88,-36 1761.88,-32 1757.88,-32 1757.88,-28 1761.88,-28 1761.88,-8 1757.88,-8 1757.88,-4 1761.88,-4 1761.88,0 1993.12,0 1993.12,-36"/>
<polyline fill="none" stroke="green" points="1761.88,-32 1765.88,-32 1765.88,-28 1761.88,-28"/>
<polyline fill="none" stroke="green" points="1761.88,-8 1765.88,-8 1765.88,-4 1761.88,-4"/>
<text text-anchor="middle" x="1877.5" y="-12.95" font-family="Times,serif" font-size="14.00">(30) turn (angle=&#45;1,with_random=true)</text>
</g>
<!-- 18&#45;&gt;30 -->
<g id="edge29" class="edge">
<title>18&#45;&gt;30</title>
<path fill="none" stroke="black" d="M1663.09,-74.32C1703.85,-63.8 1756.21,-50.29 1798.98,-39.26"/>
<polygon fill="black" stroke="black" points="1799.65,-42.7 1808.46,-36.81 1797.9,-35.92 1799.65,-42.7"/>
</g>
<!-- 31 -->
<g id="node31" class="node">
<title>31</title>
<polygon fill="none" stroke="green" points="2189.5,-36 2011.5,-36 2011.5,-32 2007.5,-32 2007.5,-28 2011.5,-28 2011.5,-8 2007.5,-8 2007.5,-4 2011.5,-4 2011.5,0 2189.5,0 2189.5,-36"/>
<polyline fill="none" stroke="green" points="2011.5,-32 2015.5,-32 2015.5,-28 2011.5,-28"/>
<polyline fill="none" stroke="green" points="2011.5,-8 2015.5,-8 2015.5,-4 2011.5,-4"/>
<text text-anchor="middle" x="2100.5" y="-12.95" font-family="Times,serif" font-size="14.00">(31) collision (target=&amp;front)</text>
</g>
<!-- 19&#45;&gt;31 -->
<g id="edge30" class="edge">
<title>19&#45;&gt;31</title>
<path fill="none" stroke="black" d="M2173.17,-71.69C2160.89,-62.78 2146.29,-52.2 2133.41,-42.86"/>
<polygon fill="black" stroke="black" points="2135.76,-40.24 2125.61,-37.21 2131.66,-45.91 2135.76,-40.24"/>
</g>
<!-- 32 -->
<g id="node32" class="node">
<title>32</title>
<polygon fill="none" stroke="green" points="2395.75,-36 2207.25,-36 2207.25,-32 2203.25,-32 2203.25,-28 2207.25,-28 2207.25,-8 2203.25,-8 2203.25,-4 2207.25,-4 2207.25,0 2395.75,0 2395.75,-36"/>
<polyline fill="none" stroke="green" points="2207.25,-32 2211.25,-32 2211.25,-28 2207.25,-28"/>
<polyline fill="none" stroke="green" points="2207.25,-8 2211.25,-8 2211.25,-4 2207.25,-4"/>
<text text-anchor="middle" x="2301.5" y="-12.95" font-family="Times,serif" font-size="14.00">(32) move (target=&amp;backward)</text>
</g>
<!-- 19&#45;&gt;32 -->
<g id="edge31" class="edge">
<title>19&#45;&gt;32</title>
<path fill="none" stroke="black" d="M2228.1,-71.69C2240.51,-62.78 2255.25,-52.2 2268.26,-42.86"/>
<polygon fill="black" stroke="black" points="2270.06,-45.88 2276.14,-37.2 2265.98,-40.19 2270.06,-45.88"/>
</g>
<!-- 33 -->
<g id="node33" class="node">
<title>33</title>
<polygon fill="none" stroke="green" points="2535,-36 2414,-36 2414,-32 2410,-32 2410,-28 2414,-28 2414,-8 2410,-8 2410,-4 2414,-4 2414,0 2535,0 2535,-36"/>
<polyline fill="none" stroke="green" points="2414,-32 2418,-32 2418,-28 2414,-28"/>
<polyline fill="none" stroke="green" points="2414,-8 2418,-8 2418,-4 2414,-4"/>
<text text-anchor="middle" x="2474.5" y="-12.95" font-family="Times,serif" font-size="14.00">(33) wait (sec=0.5)</text>
</g>
<!-- 19&#45;&gt;33 -->
<g id="edge32" class="edge">
<title>19&#45;&gt;33</title>
<path fill="none" stroke="black" d="M2267.18,-73.86C2308.18,-63.01 2360.72,-49.11 2402.65,-38.01"/>
<polygon fill="black" stroke="black" points="2403.38,-41.44 2412.16,-35.5 2401.59,-34.67 2403.38,-41.44"/>
</g>
<!-- 34 -->
<g id="node34" class="node">
<title>34</title>
<polygon fill="none" stroke="green" points="2784.12,-36 2552.88,-36 2552.88,-32 2548.88,-32 2548.88,-28 2552.88,-28 2552.88,-8 2548.88,-8 2548.88,-4 2552.88,-4 2552.88,0 2784.12,0 2784.12,-36"/>
<polyline fill="none" stroke="green" points="2552.88,-32 2556.88,-32 2556.88,-28 2552.88,-28"/>
<polyline fill="none" stroke="green" points="2552.88,-8 2556.88,-8 2556.88,-4 2552.88,-4"/>
<text text-anchor="middle" x="2668.5" y="-12.95" font-family="Times,serif" font-size="14.00">(34) turn (angle=2,with_random=false)</text>
</g>
<!-- 19&#45;&gt;34 -->
<g id="edge33" class="edge">
<title>19&#45;&gt;34</title>
<path fill="none" stroke="black" d="M2267.13,-73.93C2270.29,-73.25 2273.42,-72.6 2276.5,-72 2390.89,-49.72 2423.46,-52 2541.37,-36.4"/>
<polygon fill="black" stroke="black" points="2541.72,-39.89 2551.16,-35.09 2540.79,-32.95 2541.72,-39.89"/>
</g>
</g>
</svg>
