<?xml version="1.0" encoding="UTF-8" standalone="no"?>
<!DOCTYPE svg PUBLIC "-//W3C//DTD SVG 1.1//EN"
 "http://www.w3.org/Graphics/SVG/1.1/DTD/svg11.dtd">
<!-- Generated by graphviz version 8.0.5 (20230430.1635)
 -->
<!-- Pages: 1 -->
<svg width="716pt" height="566pt"
 viewBox="0.00 0.00 716.25 565.50" xmlns="http://www.w3.org/2000/svg" xmlns:xlink="http://www.w3.org/1999/xlink">
<g id="graph0" class="graph" transform="scale(1 1) rotate(0) translate(4 561.5)">
<polygon fill="white" stroke="none" points="-4,4 -4,-561.5 712.25,-561.5 712.25,4 -4,4"/>
<!-- 1 -->
<g id="node1" class="node">
<title>1</title>
<polygon fill="none" stroke="black" points="501,-557.5 442.25,-557.5 442.25,-518 501,-518 501,-557.5"/>
<text text-anchor="middle" x="471.62" y="-540.2" font-family="Times New Roman,serif" font-size="14.00">(1) root</text>
<text text-anchor="middle" x="471.62" y="-524.45" font-family="Times New Roman,serif" font-size="14.00">main </text>
</g>
<!-- 2 -->
<g id="node2" class="node">
<title>2</title>
<polygon fill="none" stroke="darkred" points="521.25,-482 422,-482 422,-446 521.25,-446 521.25,-482"/>
<text text-anchor="middle" x="471.62" y="-458.57" font-family="Times New Roman,serif" font-size="14.00">(2) r_sequence</text>
</g>
<!-- 1&#45;&gt;2 -->
<g id="edge1" class="edge">
<title>1&#45;&gt;2</title>
<path fill="none" stroke="black" d="M471.62,-517.52C471.62,-510.07 471.62,-501.4 471.62,-493.26"/>
<polygon fill="black" stroke="black" points="475.13,-493.32 471.62,-483.32 468.13,-493.32 475.13,-493.32"/>
</g>
<!-- 3 -->
<g id="node3" class="node">
<title>3</title>
<polygon fill="none" stroke="darkred" points="648.38,-410 294.88,-410 294.88,-370.5 648.38,-370.5 648.38,-410"/>
<text text-anchor="middle" x="471.62" y="-392.7" font-family="Times New Roman,serif" font-size="14.00">(3) r_sequence</text>
<text text-anchor="middle" x="471.62" y="-376.95" font-family="Times New Roman,serif" font-size="14.00">if_else (test=test(&lt;&gt;),then=move_to(&lt;&gt;),else=set_path(&lt;&gt;))</text>
</g>
<!-- 2&#45;&gt;3 -->
<g id="edge2" class="edge">
<title>2&#45;&gt;3</title>
<path fill="none" stroke="black" d="M471.62,-445.63C471.62,-438.33 471.62,-429.62 471.62,-421.34"/>
<polygon fill="black" stroke="black" points="475.13,-421.48 471.62,-411.48 468.13,-421.48 475.13,-421.48"/>
</g>
<!-- 4 -->
<g id="node4" class="node">
<title>4</title>
<polygon fill="none" stroke="blue" points="417.12,-334.5 326.12,-334.5 326.12,-298.5 417.12,-298.5 417.12,-334.5"/>
<text text-anchor="middle" x="371.62" y="-311.07" font-family="Times New Roman,serif" font-size="14.00">(4) r_fallback</text>
</g>
<!-- 3&#45;&gt;4 -->
<g id="edge3" class="edge">
<title>3&#45;&gt;4</title>
<path fill="none" stroke="black" d="M444.83,-370.02C432.42,-361.12 417.56,-350.46 404.48,-341.07"/>
<polygon fill="black" stroke="black" points="406.93,-337.8 396.76,-334.82 402.85,-343.49 406.93,-337.8"/>
</g>
<!-- 5 -->
<g id="node5" class="node">
<title>5</title>
<polygon fill="none" stroke="green" points="708.25,-334.5 435,-334.5 435,-330.5 431,-330.5 431,-326.5 435,-326.5 435,-306.5 431,-306.5 431,-302.5 435,-302.5 435,-298.5 708.25,-298.5 708.25,-334.5"/>
<polyline fill="none" stroke="green" points="435,-330.5 439,-330.5 439,-326.5 435,-326.5"/>
<polyline fill="none" stroke="green" points="435,-306.5 439,-306.5 439,-302.5 435,-302.5"/>
<text text-anchor="middle" x="571.62" y="-311.07" font-family="Times New Roman,serif" font-size="14.00">(5) move_to (path=path,flag=path_calculated)</text>
</g>
<!-- 3&#45;&gt;5 -->
<g id="edge4" class="edge">
<title>3&#45;&gt;5</title>
<path fill="none" stroke="black" d="M498.42,-370.02C510.83,-361.12 525.69,-350.46 538.77,-341.07"/>
<polygon fill="black" stroke="black" points="540.4,-343.49 546.49,-334.82 536.32,-337.8 540.4,-343.49"/>
</g>
<!-- 6 -->
<g id="node6" class="node">
<title>6</title>
<polygon fill="none" stroke="green" points="383.88,-260.75 201.38,-260.75 201.38,-256.75 197.38,-256.75 197.38,-252.75 201.38,-252.75 201.38,-232.75 197.38,-232.75 197.38,-228.75 201.38,-228.75 201.38,-224.75 383.88,-224.75 383.88,-260.75"/>
<polyline fill="none" stroke="green" points="201.38,-256.75 205.38,-256.75 205.38,-252.75 201.38,-252.75"/>
<polyline fill="none" stroke="green" points="201.38,-232.75 205.38,-232.75 205.38,-228.75 201.38,-228.75"/>
<text text-anchor="middle" x="292.62" y="-237.32" font-family="Times New Roman,serif" font-size="14.00">(6) test (key=path_calculated)</text>
</g>
<!-- 4&#45;&gt;6 -->
<g id="edge5" class="edge">
<title>4&#45;&gt;6</title>
<path fill="none" stroke="black" d="M352.5,-298.13C342.68,-289.21 330.54,-278.18 319.76,-268.39"/>
<polygon fill="black" stroke="black" points="322.6,-266.34 312.85,-262.21 317.9,-271.52 322.6,-266.34"/>
</g>
<!-- 7 -->
<g id="node7" class="node">
<title>7</title>
<polygon fill="none" stroke="darkred" points="501.25,-262.5 402,-262.5 402,-223 501.25,-223 501.25,-262.5"/>
<text text-anchor="middle" x="451.62" y="-245.2" font-family="Times New Roman,serif" font-size="14.00">(7) r_sequence</text>
<text text-anchor="middle" x="451.62" y="-229.45" font-family="Times New Roman,serif" font-size="14.00">set_path </text>
</g>
<!-- 4&#45;&gt;7 -->
<g id="edge6" class="edge">
<title>4&#45;&gt;7</title>
<path fill="none" stroke="black" d="M390.99,-298.13C400.33,-289.75 411.74,-279.52 422.13,-270.2"/>
<polygon fill="black" stroke="black" points="424.08,-273.26 429.19,-263.98 419.41,-268.05 424.08,-273.26"/>
</g>
<!-- 8 -->
<g id="node8" class="node">
<title>8</title>
<polygon fill="none" stroke="darkred" points="624.25,-187 279,-187 279,-147.5 624.25,-147.5 624.25,-187"/>
<text text-anchor="middle" x="451.62" y="-169.7" font-family="Times New Roman,serif" font-size="14.00">(8) r_sequence</text>
<text text-anchor="middle" x="451.62" y="-153.95" font-family="Times New Roman,serif" font-size="14.00">if_else (test=locked(&lt;&gt;),then=wait(&lt;&gt;),else=calculate(&lt;&gt;))</text>
</g>
<!-- 7&#45;&gt;8 -->
<g id="edge7" class="edge">
<title>7&#45;&gt;8</title>
<path fill="none" stroke="black" d="M451.62,-222.82C451.62,-215.34 451.62,-206.55 451.62,-198.24"/>
<polygon fill="black" stroke="black" points="455.13,-198.37 451.62,-188.37 448.13,-198.37 455.13,-198.37"/>
</g>
<!-- 9 -->
<g id="node9" class="node">
<title>9</title>
<polygon fill="none" stroke="blue" points="439.12,-109.75 348.12,-109.75 348.12,-73.75 439.12,-73.75 439.12,-109.75"/>
<text text-anchor="middle" x="393.62" y="-86.33" font-family="Times New Roman,serif" font-size="14.00">(9) r_fallback</text>
</g>
<!-- 8&#45;&gt;9 -->
<g id="edge8" class="edge">
<title>8&#45;&gt;9</title>
<path fill="none" stroke="black" d="M436.69,-147.32C429.82,-138.62 421.56,-128.16 414.13,-118.73"/>
<polygon fill="black" stroke="black" points="416.26,-116.79 407.32,-111.1 410.77,-121.12 416.26,-116.79"/>
</g>
<!-- 10 -->
<g id="node10" class="node">
<title>10</title>
<polygon fill="none" stroke="darkred" points="631.62,-111.5 525.62,-111.5 525.62,-72 631.62,-72 631.62,-111.5"/>
<text text-anchor="middle" x="578.62" y="-94.2" font-family="Times New Roman,serif" font-size="14.00">(10) r_sequence</text>
<text text-anchor="middle" x="578.62" y="-78.45" font-family="Times New Roman,serif" font-size="14.00">wait </text>
</g>
<!-- 8&#45;&gt;10 -->
<g id="edge9" class="edge">
<title>8&#45;&gt;10</title>
<path fill="none" stroke="black" d="M484.66,-147.13C500.54,-137.94 519.74,-126.83 536.64,-117.05"/>
<polygon fill="black" stroke="black" points="537.85,-119.81 544.75,-111.77 534.35,-113.75 537.85,-119.81"/>
</g>
<!-- 11 -->
<g id="node11" class="node">
<title>11</title>
<polygon fill="none" stroke="green" points="183.25,-36 0,-36 0,-32 -4,-32 -4,-28 0,-28 0,-8 -4,-8 -4,-4 0,-4 0,0 183.25,0 183.25,-36"/>
<polyline fill="none" stroke="green" points="0,-32 4,-32 4,-28 0,-28"/>
<polyline fill="none" stroke="green" points="0,-8 4,-8 4,-4 0,-4"/>
<text text-anchor="middle" x="91.62" y="-12.57" font-family="Times New Roman,serif" font-size="14.00">(11) locked (key=path_guard)</text>
</g>
<!-- 9&#45;&gt;11 -->
<g id="edge10" class="edge">
<title>9&#45;&gt;11</title>
<path fill="none" stroke="black" d="M347.76,-79.85C302.18,-69.02 231.24,-52.17 175.57,-38.94"/>
<polygon fill="black" stroke="black" points="176.54,-35.34 166,-36.43 174.92,-42.15 176.54,-35.34"/>
</g>
<!-- 12 -->
<g id="node12" class="node">
<title>12</title>
<polygon fill="none" stroke="green" points="586.12,-36 201.12,-36 201.12,-32 197.12,-32 197.12,-28 201.12,-28 201.12,-8 197.12,-8 197.12,-4 201.12,-4 201.12,0 586.12,0 586.12,-36"/>
<polyline fill="none" stroke="green" points="201.12,-32 205.12,-32 205.12,-28 201.12,-28"/>
<polyline fill="none" stroke="green" points="201.12,-8 205.12,-8 205.12,-4 201.12,-4"/>
<text text-anchor="middle" x="393.62" y="-12.57" font-family="Times New Roman,serif" font-size="14.00">(12) calculate (path=path,flag=path_calculated,guard=path_guard)</text>
</g>
<!-- 9&#45;&gt;12 -->
<g id="edge11" class="edge">
<title>9&#45;&gt;12</title>
<path fill="none" stroke="black" d="M393.62,-73.38C393.62,-65.6 393.62,-56.21 393.62,-47.44"/>
<polygon fill="black" stroke="black" points="397.13,-47.46 393.62,-37.46 390.13,-47.46 397.13,-47.46"/>
</g>
<!-- 13 -->
<g id="node13" class="node">
<title>13</title>
<polygon fill="none" stroke="green" points="691.25,-36 604,-36 604,-32 600,-32 600,-28 604,-28 604,-8 600,-8 600,-4 604,-4 604,0 691.25,0 691.25,-36"/>
<polyline fill="none" stroke="green" points="604,-32 608,-32 608,-28 604,-28"/>
<polyline fill="none" stroke="green" points="604,-8 608,-8 608,-4 604,-4"/>
<text text-anchor="middle" x="647.62" y="-12.57" font-family="Times New Roman,serif" font-size="14.00">(13) running </text>
</g>
<!-- 10&#45;&gt;13 -->
<g id="edge12" class="edge">
<title>10&#45;&gt;13</title>
<path fill="none" stroke="black" d="M597.12,-71.52C605.18,-63.13 614.75,-53.18 623.38,-44.21"/>
<polygon fill="black" stroke="black" points="625.56,-46.95 629.97,-37.32 620.52,-42.1 625.56,-46.95"/>
</g>
</g>
</svg>
