<?xml version="1.0" encoding="UTF-8" standalone="no"?>
<!DOCTYPE svg PUBLIC "-//W3C//DTD SVG 1.1//EN"
 "http://www.w3.org/Graphics/SVG/1.1/DTD/svg11.dtd">
<!-- Generated by graphviz version 8.0.5 (20230430.1635)
 -->
<!-- Pages: 1 -->
<svg width="847pt" height="422pt"
 viewBox="0.00 0.00 847.12 421.50" xmlns="http://www.w3.org/2000/svg" xmlns:xlink="http://www.w3.org/1999/xlink">
<g id="graph0" class="graph" transform="scale(1 1) rotate(0) translate(4 417.5)">
<polygon fill="white" stroke="none" points="-4,4 -4,-417.5 843.12,-417.5 843.12,4 -4,4"/>
<!-- 1 -->
<g id="node1" class="node">
<title>1</title>
<polygon fill="none" stroke="black" points="346.88,-413.5 288.12,-413.5 288.12,-374 346.88,-374 346.88,-413.5"/>
<text text-anchor="middle" x="317.5" y="-396.2" font-family="Times New Roman,serif" font-size="14.00">(1) root</text>
<text text-anchor="middle" x="317.5" y="-380.45" font-family="Times New Roman,serif" font-size="14.00">main </text>
</g>
<!-- 2 -->
<g id="node2" class="node">
<title>2</title>
<polygon fill="none" stroke="blue" points="510.38,-338 124.62,-338 124.62,-298.5 510.38,-298.5 510.38,-338"/>
<text text-anchor="middle" x="317.5" y="-320.7" font-family="Times New Roman,serif" font-size="14.00">(2) r_fallback</text>
<text text-anchor="middle" x="317.5" y="-304.95" font-family="Times New Roman,serif" font-size="14.00">if_else (test=test(&lt;&gt;),then=move_to(&lt;&gt;),else=calculate_path(&lt;&gt;))</text>
</g>
<!-- 1&#45;&gt;2 -->
<g id="edge1" class="edge">
<title>1&#45;&gt;2</title>
<path fill="none" stroke="black" d="M317.5,-373.82C317.5,-366.34 317.5,-357.55 317.5,-349.24"/>
<polygon fill="black" stroke="black" points="321,-349.37 317.5,-339.37 314,-349.37 321,-349.37"/>
</g>
<!-- 3 -->
<g id="node3" class="node">
<title>3</title>
<polygon fill="none" stroke="darkred" points="309.12,-260.75 209.88,-260.75 209.88,-224.75 309.12,-224.75 309.12,-260.75"/>
<text text-anchor="middle" x="259.5" y="-237.32" font-family="Times New Roman,serif" font-size="14.00">(3) r_sequence</text>
</g>
<!-- 2&#45;&gt;3 -->
<g id="edge2" class="edge">
<title>2&#45;&gt;3</title>
<path fill="none" stroke="black" d="M302.56,-298.32C295.7,-289.62 287.44,-279.16 280,-269.73"/>
<polygon fill="black" stroke="black" points="282.14,-267.79 273.19,-262.1 276.64,-272.12 282.14,-267.79"/>
</g>
<!-- 4 -->
<g id="node4" class="node">
<title>4</title>
<polygon fill="none" stroke="darkred" points="514.12,-262.5 414.88,-262.5 414.88,-223 514.12,-223 514.12,-262.5"/>
<text text-anchor="middle" x="464.5" y="-245.2" font-family="Times New Roman,serif" font-size="14.00">(4) r_sequence</text>
<text text-anchor="middle" x="464.5" y="-229.45" font-family="Times New Roman,serif" font-size="14.00">calculate_path </text>
</g>
<!-- 2&#45;&gt;4 -->
<g id="edge3" class="edge">
<title>2&#45;&gt;4</title>
<path fill="none" stroke="black" d="M355.74,-298.13C374.3,-288.85 396.78,-277.61 416.48,-267.76"/>
<polygon fill="black" stroke="black" points="417.82,-270.5 425.2,-262.9 414.69,-264.24 417.82,-270.5"/>
</g>
<!-- 5 -->
<g id="node5" class="node">
<title>5</title>
<polygon fill="none" stroke="green" points="151,-185.25 0,-185.25 0,-181.25 -4,-181.25 -4,-177.25 0,-177.25 0,-157.25 -4,-157.25 -4,-153.25 0,-153.25 0,-149.25 151,-149.25 151,-185.25"/>
<polyline fill="none" stroke="green" points="0,-181.25 4,-181.25 4,-177.25 0,-177.25"/>
<polyline fill="none" stroke="green" points="0,-157.25 4,-157.25 4,-153.25 0,-153.25"/>
<text text-anchor="middle" x="75.5" y="-161.82" font-family="Times New Roman,serif" font-size="14.00">(5) test (key=calculated)</text>
</g>
<!-- 3&#45;&gt;5 -->
<g id="edge4" class="edge">
<title>3&#45;&gt;5</title>
<path fill="none" stroke="black" d="M215.89,-224.33C189.87,-213.93 156.61,-200.65 129,-189.62"/>
<polygon fill="black" stroke="black" points="130.7,-186.13 120.11,-185.67 128.1,-192.63 130.7,-186.13"/>
</g>
<!-- 6 -->
<g id="node6" class="node">
<title>6</title>
<polygon fill="none" stroke="green" points="350.38,-185.25 168.62,-185.25 168.62,-181.25 164.62,-181.25 164.62,-177.25 168.62,-177.25 168.62,-157.25 164.62,-157.25 164.62,-153.25 168.62,-153.25 168.62,-149.25 350.38,-149.25 350.38,-185.25"/>
<polyline fill="none" stroke="green" points="168.62,-181.25 172.62,-181.25 172.62,-177.25 168.62,-177.25"/>
<polyline fill="none" stroke="green" points="168.62,-157.25 172.62,-157.25 172.62,-153.25 168.62,-153.25"/>
<text text-anchor="middle" x="259.5" y="-161.82" font-family="Times New Roman,serif" font-size="14.00">(6) move_to (flag=calculated)</text>
</g>
<!-- 3&#45;&gt;6 -->
<g id="edge5" class="edge">
<title>3&#45;&gt;6</title>
<path fill="none" stroke="black" d="M259.5,-224.33C259.5,-216 259.5,-205.82 259.5,-196.43"/>
<polygon fill="black" stroke="black" points="263,-196.54 259.5,-186.54 256,-196.54 263,-196.54"/>
</g>
<!-- 7 -->
<g id="node7" class="node">
<title>7</title>
<polygon fill="none" stroke="blue" points="736.38,-187 368.62,-187 368.62,-147.5 736.38,-147.5 736.38,-187"/>
<text text-anchor="middle" x="552.5" y="-169.7" font-family="Times New Roman,serif" font-size="14.00">(7) r_fallback</text>
<text text-anchor="middle" x="552.5" y="-153.95" font-family="Times New Roman,serif" font-size="14.00">if_else (test=locked(&lt;&gt;),then=running(&lt;&gt;),else=keep_run(&lt;&gt;))</text>
</g>
<!-- 4&#45;&gt;7 -->
<g id="edge6" class="edge">
<title>4&#45;&gt;7</title>
<path fill="none" stroke="black" d="M487.16,-222.82C497.55,-214.14 510.03,-203.72 521.29,-194.32"/>
<polygon fill="black" stroke="black" points="523.18,-196.47 528.61,-187.37 518.69,-191.09 523.18,-196.47"/>
</g>
<!-- 8 -->
<g id="node8" class="node">
<title>8</title>
<polygon fill="none" stroke="darkred" points="519.12,-109.75 419.88,-109.75 419.88,-73.75 519.12,-73.75 519.12,-109.75"/>
<text text-anchor="middle" x="469.5" y="-86.33" font-family="Times New Roman,serif" font-size="14.00">(8) r_sequence</text>
</g>
<!-- 7&#45;&gt;8 -->
<g id="edge7" class="edge">
<title>7&#45;&gt;8</title>
<path fill="none" stroke="black" d="M531.13,-147.32C520.79,-138.17 508.26,-127.07 497.2,-117.28"/>
<polygon fill="black" stroke="black" points="499.9,-115.11 490.1,-111.1 495.26,-120.35 499.9,-115.11"/>
</g>
<!-- 9 -->
<g id="node9" class="node">
<title>9</title>
<polygon fill="none" stroke="darkred" points="733.5,-111.5 537.5,-111.5 537.5,-72 733.5,-72 733.5,-111.5"/>
<text text-anchor="middle" x="635.5" y="-94.2" font-family="Times New Roman,serif" font-size="14.00">(9) r_sequence</text>
<text text-anchor="middle" x="635.5" y="-78.45" font-family="Times New Roman,serif" font-size="14.00">keep_run (action=calculate(&lt;&gt;))</text>
</g>
<!-- 7&#45;&gt;9 -->
<g id="edge8" class="edge">
<title>7&#45;&gt;9</title>
<path fill="none" stroke="black" d="M573.87,-147.32C583.58,-138.73 595.22,-128.42 605.75,-119.09"/>
<polygon fill="black" stroke="black" points="607.74,-122.12 612.91,-112.87 603.1,-116.88 607.74,-122.12"/>
</g>
<!-- 10 -->
<g id="node10" class="node">
<title>10</title>
<polygon fill="none" stroke="green" points="409.38,-36 233.62,-36 233.62,-32 229.62,-32 229.62,-28 233.62,-28 233.62,-8 229.62,-8 229.62,-4 233.62,-4 233.62,0 409.38,0 409.38,-36"/>
<polyline fill="none" stroke="green" points="233.62,-32 237.62,-32 237.62,-28 233.62,-28"/>
<polyline fill="none" stroke="green" points="233.62,-8 237.62,-8 237.62,-4 233.62,-4"/>
<text text-anchor="middle" x="321.5" y="-12.57" font-family="Times New Roman,serif" font-size="14.00">(10) locked (key=calculated)</text>
</g>
<!-- 8&#45;&gt;10 -->
<g id="edge9" class="edge">
<title>8&#45;&gt;10</title>
<path fill="none" stroke="black" d="M433.67,-73.38C413.73,-63.71 388.7,-51.58 367.34,-41.23"/>
<polygon fill="black" stroke="black" points="369.03,-37.67 358.51,-36.46 365.98,-43.97 369.03,-37.67"/>
</g>
<!-- 11 -->
<g id="node11" class="node">
<title>11</title>
<polygon fill="none" stroke="green" points="515.12,-36 427.88,-36 427.88,-32 423.88,-32 423.88,-28 427.88,-28 427.88,-8 423.88,-8 423.88,-4 427.88,-4 427.88,0 515.12,0 515.12,-36"/>
<polyline fill="none" stroke="green" points="427.88,-32 431.88,-32 431.88,-28 427.88,-28"/>
<polyline fill="none" stroke="green" points="427.88,-8 431.88,-8 431.88,-4 427.88,-4"/>
<text text-anchor="middle" x="471.5" y="-12.57" font-family="Times New Roman,serif" font-size="14.00">(11) running </text>
</g>
<!-- 8&#45;&gt;11 -->
<g id="edge10" class="edge">
<title>8&#45;&gt;11</title>
<path fill="none" stroke="black" d="M469.98,-73.38C470.2,-65.6 470.46,-56.21 470.71,-47.44"/>
<polygon fill="black" stroke="black" points="474.23,-47.55 471.01,-37.46 467.24,-47.36 474.23,-47.55"/>
</g>
<!-- 12 -->
<g id="node12" class="node">
<title>12</title>
<polygon fill="none" stroke="green" points="733.62,-36 535.38,-36 535.38,-32 531.38,-32 531.38,-28 535.38,-28 535.38,-8 531.38,-8 531.38,-4 535.38,-4 535.38,0 733.62,0 733.62,-36"/>
<polyline fill="none" stroke="green" points="535.38,-32 539.38,-32 539.38,-28 535.38,-28"/>
<polyline fill="none" stroke="green" points="535.38,-8 539.38,-8 539.38,-4 535.38,-4"/>
<text text-anchor="middle" x="634.5" y="-12.57" font-family="Times New Roman,serif" font-size="14.00">(12) calculate (guard=calculated)</text>
</g>
<!-- 9&#45;&gt;12 -->
<g id="edge11" class="edge">
<title>9&#45;&gt;12</title>
<path fill="none" stroke="black" d="M635.23,-71.52C635.13,-64.07 635.01,-55.4 634.89,-47.26"/>
<polygon fill="black" stroke="black" points="638.38,-47.27 634.74,-37.32 631.38,-47.37 638.38,-47.27"/>
</g>
<!-- 13 -->
<g id="node13" class="node">
<title>13</title>
<polygon fill="none" stroke="green" points="839.12,-36 751.88,-36 751.88,-32 747.88,-32 747.88,-28 751.88,-28 751.88,-8 747.88,-8 747.88,-4 751.88,-4 751.88,0 839.12,0 839.12,-36"/>
<polyline fill="none" stroke="green" points="751.88,-32 755.88,-32 755.88,-28 751.88,-28"/>
<polyline fill="none" stroke="green" points="751.88,-8 755.88,-8 755.88,-4 751.88,-4"/>
<text text-anchor="middle" x="795.5" y="-12.57" font-family="Times New Roman,serif" font-size="14.00">(13) running </text>
</g>
<!-- 9&#45;&gt;13 -->
<g id="edge12" class="edge">
<title>9&#45;&gt;13</title>
<path fill="none" stroke="black" d="M678.38,-71.52C699.49,-62.06 725.03,-50.6 746.87,-40.81"/>
<polygon fill="black" stroke="black" points="747.92,-43.72 755.61,-36.44 745.06,-37.34 747.92,-43.72"/>
</g>
</g>
</svg>
