<?xml version="1.0" encoding="UTF-8" standalone="no"?>
<!DOCTYPE svg PUBLIC "-//W3C//DTD SVG 1.1//EN"
 "http://www.w3.org/Graphics/SVG/1.1/DTD/svg11.dtd">
<!-- Generated by graphviz version 9.0.0 (20230911.1827)
 -->
<!-- Pages: 1 -->
<svg width="1346pt" height="569pt"
 viewBox="0.00 0.00 1346.12 569.00" xmlns="http://www.w3.org/2000/svg" xmlns:xlink="http://www.w3.org/1999/xlink">
<g id="graph0" class="graph" transform="scale(1 1) rotate(0) translate(4 565)">
<polygon fill="white" stroke="none" points="-4,4 -4,-565 1342.12,-565 1342.12,4 -4,4"/>
<!-- 1 -->
<g id="node1" class="node">
<title>1</title>
<polygon fill="none" stroke="black" points="638,-561 565,-561 565,-521.5 638,-521.5 638,-561"/>
<text text-anchor="middle" x="601.5" y="-543.7" font-family="Times New Roman,serif" font-size="14.00">(1) root</text>
<text text-anchor="middle" x="601.5" y="-527.95" font-family="Times New Roman,serif" font-size="14.00">MainTree </text>
</g>
<!-- 2 -->
<g id="node2" class="node">
<title>2</title>
<polygon fill="none" stroke="darkred" points="886.25,-485.5 316.75,-485.5 316.75,-446 886.25,-446 886.25,-485.5"/>
<text text-anchor="middle" x="601.5" y="-468.2" font-family="Times New Roman,serif" font-size="14.00">(2) sequence</text>
<text text-anchor="middle" x="601.5" y="-452.45" font-family="Times New Roman,serif" font-size="14.00">RecoveryNode (number_of_retries=6,name=NavigateRecovery,sub=NavigateWithReplanning(&lt;&gt;))</text>
</g>
<!-- 1&#45;&gt;2 -->
<g id="edge1" class="edge">
<title>1&#45;&gt;2</title>
<path fill="none" stroke="black" d="M601.5,-521.32C601.5,-514.01 601.5,-505.45 601.5,-497.31"/>
<polygon fill="black" stroke="black" points="605,-497.38 601.5,-487.38 598,-497.38 605,-497.38"/>
</g>
<!-- 3 -->
<g id="node3" class="node">
<title>3</title>
<polygon fill="none" stroke="darkred" points="680,-410 523,-410 523,-370.5 680,-370.5 680,-410"/>
<text text-anchor="middle" x="601.5" y="-392.7" font-family="Times New Roman,serif" font-size="14.00">(3) sequence</text>
<text text-anchor="middle" x="601.5" y="-376.95" font-family="Times New Roman,serif" font-size="14.00">NavigateWithReplanning </text>
</g>
<!-- 2&#45;&gt;3 -->
<g id="edge2" class="edge">
<title>2&#45;&gt;3</title>
<path fill="none" stroke="black" d="M601.5,-445.82C601.5,-438.51 601.5,-429.95 601.5,-421.81"/>
<polygon fill="black" stroke="black" points="605,-421.88 601.5,-411.88 598,-421.88 605,-421.88"/>
</g>
<!-- 4 -->
<g id="node4" class="node">
<title>4</title>
<polygon fill="none" stroke="darkred" points="618.75,-334.5 400.25,-334.5 400.25,-295 618.75,-295 618.75,-334.5"/>
<text text-anchor="middle" x="509.5" y="-317.2" font-family="Times New Roman,serif" font-size="14.00">(4) sequence</text>
<text text-anchor="middle" x="509.5" y="-301.45" font-family="Times New Roman,serif" font-size="14.00">RateController (hz=1,sub=retry(10))</text>
</g>
<!-- 3&#45;&gt;4 -->
<g id="edge3" class="edge">
<title>3&#45;&gt;4</title>
<path fill="none" stroke="black" d="M577.81,-370.32C566.95,-361.64 553.9,-351.22 542.13,-341.82"/>
<polygon fill="black" stroke="black" points="544.61,-339.32 534.61,-335.81 540.24,-344.79 544.61,-339.32"/>
</g>
<!-- 5 -->
<g id="node5" class="node">
<title>5</title>
<polygon fill="none" stroke="purple" points="758.88,-332.75 658.12,-332.75 658.12,-336.75 646.12,-336.75 646.12,-296.75 758.88,-296.75 758.88,-332.75"/>
<polyline fill="none" stroke="purple" points="646.12,-332.75 658.12,-332.75"/>
<text text-anchor="middle" x="702.5" y="-309.32" font-family="Times New Roman,serif" font-size="14.00">(5) retry (arg=10)</text>
</g>
<!-- 3&#45;&gt;5 -->
<g id="edge4" class="edge">
<title>3&#45;&gt;5</title>
<path fill="none" stroke="black" d="M627.77,-370.13C640.6,-360.8 656.15,-349.48 669.74,-339.59"/>
<polygon fill="black" stroke="black" points="671.53,-342.62 677.55,-333.91 667.41,-336.96 671.53,-342.62"/>
</g>
<!-- 6 -->
<g id="node6" class="node">
<title>6</title>
<polygon fill="none" stroke="purple" points="548.88,-259 448.12,-259 448.12,-263 436.12,-263 436.12,-223 548.88,-223 548.88,-259"/>
<polyline fill="none" stroke="purple" points="436.12,-259 448.12,-259"/>
<text text-anchor="middle" x="492.5" y="-235.57" font-family="Times New Roman,serif" font-size="14.00">(6) retry (arg=10)</text>
</g>
<!-- 4&#45;&gt;6 -->
<g id="edge5" class="edge">
<title>4&#45;&gt;6</title>
<path fill="none" stroke="black" d="M504.94,-294.52C503.18,-287.07 501.12,-278.4 499.2,-270.26"/>
<polygon fill="black" stroke="black" points="502.66,-269.71 496.95,-260.79 495.85,-271.33 502.66,-269.71"/>
</g>
<!-- 7 -->
<g id="node7" class="node">
<title>7</title>
<polygon fill="none" stroke="darkred" points="750.12,-259 662.88,-259 662.88,-223 750.12,-223 750.12,-259"/>
<text text-anchor="middle" x="706.5" y="-235.57" font-family="Times New Roman,serif" font-size="14.00">(7) sequence</text>
</g>
<!-- 5&#45;&gt;7 -->
<g id="edge6" class="edge">
<title>5&#45;&gt;7</title>
<path fill="none" stroke="black" d="M703.47,-296.38C703.9,-288.68 704.41,-279.42 704.9,-270.74"/>
<polygon fill="black" stroke="black" points="708.38,-271.15 705.44,-260.97 701.39,-270.76 708.38,-271.15"/>
</g>
<!-- 8 -->
<g id="node8" class="node">
<title>8</title>
<polygon fill="none" stroke="darkred" points="531.12,-185.25 443.88,-185.25 443.88,-149.25 531.12,-149.25 531.12,-185.25"/>
<text text-anchor="middle" x="487.5" y="-161.82" font-family="Times New Roman,serif" font-size="14.00">(8) sequence</text>
</g>
<!-- 6&#45;&gt;8 -->
<g id="edge7" class="edge">
<title>6&#45;&gt;8</title>
<path fill="none" stroke="black" d="M491.29,-222.63C490.75,-214.93 490.11,-205.67 489.5,-196.99"/>
<polygon fill="black" stroke="black" points="493.01,-196.95 488.82,-187.22 486.03,-197.44 493.01,-196.95"/>
</g>
<!-- 9 -->
<g id="node9" class="node">
<title>9</title>
<polygon fill="none" stroke="green" points="864.12,-185.25 548.88,-185.25 548.88,-181.25 544.88,-181.25 544.88,-177.25 548.88,-177.25 548.88,-157.25 544.88,-157.25 544.88,-153.25 548.88,-153.25 548.88,-149.25 864.12,-149.25 864.12,-185.25"/>
<polyline fill="none" stroke="green" points="548.88,-181.25 552.88,-181.25 552.88,-177.25 548.88,-177.25"/>
<polyline fill="none" stroke="green" points="548.88,-157.25 552.88,-157.25 552.88,-153.25 548.88,-153.25"/>
<text text-anchor="middle" x="706.5" y="-161.82" font-family="Times New Roman,serif" font-size="14.00">(9) FollowPath (path=path,controller_id=FollowPath)</text>
</g>
<!-- 7&#45;&gt;9 -->
<g id="edge8" class="edge">
<title>7&#45;&gt;9</title>
<path fill="none" stroke="black" d="M706.5,-222.63C706.5,-214.93 706.5,-205.67 706.5,-196.99"/>
<polygon fill="black" stroke="black" points="710,-197.22 706.5,-187.22 703,-197.22 710,-197.22"/>
</g>
<!-- 10 -->
<g id="node10" class="node">
<title>10</title>
<polygon fill="none" stroke="blue" points="1066.88,-187 882.12,-187 882.12,-147.5 1066.88,-147.5 1066.88,-187"/>
<text text-anchor="middle" x="974.5" y="-169.7" font-family="Times New Roman,serif" font-size="14.00">(10) r_fallback</text>
<text text-anchor="middle" x="974.5" y="-153.95" font-family="Times New Roman,serif" font-size="14.00">FollowPathRecoveryFallback </text>
</g>
<!-- 7&#45;&gt;10 -->
<g id="edge9" class="edge">
<title>7&#45;&gt;10</title>
<path fill="none" stroke="black" d="M750.45,-228.23C788.67,-218 845.08,-202.9 891.73,-190.41"/>
<polygon fill="black" stroke="black" points="892.53,-193.82 901.29,-187.85 890.72,-187.06 892.53,-193.82"/>
</g>
<!-- 11 -->
<g id="node11" class="node">
<title>11</title>
<polygon fill="none" stroke="green" points="421,-109.75 0,-109.75 0,-105.75 -4,-105.75 -4,-101.75 0,-101.75 0,-81.75 -4,-81.75 -4,-77.75 0,-77.75 0,-73.75 421,-73.75 421,-109.75"/>
<polyline fill="none" stroke="green" points="0,-105.75 4,-105.75 4,-101.75 0,-101.75"/>
<polyline fill="none" stroke="green" points="0,-81.75 4,-81.75 4,-77.75 0,-77.75"/>
<text text-anchor="middle" x="210.5" y="-86.33" font-family="Times New Roman,serif" font-size="14.00">(11) ComputePathToPose (goal=goal,path=path,planner_id=GridBased)</text>
</g>
<!-- 8&#45;&gt;11 -->
<g id="edge10" class="edge">
<title>8&#45;&gt;11</title>
<path fill="none" stroke="black" d="M443.61,-154.6C401.68,-143.48 337.6,-126.47 287.23,-113.11"/>
<polygon fill="black" stroke="black" points="288.4,-109.8 277.84,-110.62 286.61,-116.57 288.4,-109.8"/>
</g>
<!-- 12 -->
<g id="node12" class="node">
<title>12</title>
<polygon fill="none" stroke="blue" points="680.38,-111.5 438.62,-111.5 438.62,-72 680.38,-72 680.38,-111.5"/>
<text text-anchor="middle" x="559.5" y="-94.2" font-family="Times New Roman,serif" font-size="14.00">(12) r_fallback</text>
<text text-anchor="middle" x="559.5" y="-78.45" font-family="Times New Roman,serif" font-size="14.00">ComputePathToPoseRecoveryFallback </text>
</g>
<!-- 8&#45;&gt;12 -->
<g id="edge11" class="edge">
<title>8&#45;&gt;12</title>
<path fill="none" stroke="black" d="M504.56,-148.83C512.99,-140.23 523.35,-129.65 532.8,-120.01"/>
<polygon fill="black" stroke="black" points="535.23,-122.52 539.73,-112.93 530.23,-117.63 535.23,-122.52"/>
</g>
<!-- 13 -->
<g id="node13" class="node">
<title>13</title>
<polygon fill="none" stroke="green" points="963,-109.75 842,-109.75 842,-105.75 838,-105.75 838,-101.75 842,-101.75 842,-81.75 838,-81.75 838,-77.75 842,-77.75 842,-73.75 963,-73.75 963,-109.75"/>
<polyline fill="none" stroke="green" points="842,-105.75 846,-105.75 846,-101.75 842,-101.75"/>
<polyline fill="none" stroke="green" points="842,-81.75 846,-81.75 846,-77.75 842,-77.75"/>
<text text-anchor="middle" x="902.5" y="-86.33" font-family="Times New Roman,serif" font-size="14.00">(13) GoalUpdated </text>
</g>
<!-- 10&#45;&gt;13 -->
<g id="edge12" class="edge">
<title>10&#45;&gt;13</title>
<path fill="none" stroke="black" d="M955.96,-147.32C947.26,-138.44 936.76,-127.72 927.38,-118.15"/>
<polygon fill="black" stroke="black" points="930.06,-115.88 920.56,-111.18 925.06,-120.78 930.06,-115.88"/>
</g>
<!-- 14 -->
<g id="node14" class="node">
<title>14</title>
<polygon fill="none" stroke="green" points="1338.12,-109.75 980.88,-109.75 980.88,-105.75 976.88,-105.75 976.88,-101.75 980.88,-101.75 980.88,-81.75 976.88,-81.75 976.88,-77.75 980.88,-77.75 980.88,-73.75 1338.12,-73.75 1338.12,-109.75"/>
<polyline fill="none" stroke="green" points="980.88,-105.75 984.88,-105.75 984.88,-101.75 980.88,-101.75"/>
<polyline fill="none" stroke="green" points="980.88,-81.75 984.88,-81.75 984.88,-77.75 980.88,-77.75"/>
<text text-anchor="middle" x="1159.5" y="-86.33" font-family="Times New Roman,serif" font-size="14.00">(14) ClearEntireCostmap (name=Clea...,service_name=loc...)</text>
</g>
<!-- 10&#45;&gt;14 -->
<g id="edge13" class="edge">
<title>10&#45;&gt;14</title>
<path fill="none" stroke="black" d="M1022.62,-147.13C1047.94,-137.07 1079.06,-124.71 1105.23,-114.31"/>
<polygon fill="black" stroke="black" points="1106.32,-117.64 1114.33,-110.7 1103.74,-111.14 1106.32,-117.64"/>
</g>
<!-- 15 -->
<g id="node15" class="node">
<title>15</title>
<polygon fill="none" stroke="green" points="493,-36 372,-36 372,-32 368,-32 368,-28 372,-28 372,-8 368,-8 368,-4 372,-4 372,0 493,0 493,-36"/>
<polyline fill="none" stroke="green" points="372,-32 376,-32 376,-28 372,-28"/>
<polyline fill="none" stroke="green" points="372,-8 376,-8 376,-4 372,-4"/>
<text text-anchor="middle" x="432.5" y="-12.57" font-family="Times New Roman,serif" font-size="14.00">(15) GoalUpdated </text>
</g>
<!-- 12&#45;&gt;15 -->
<g id="edge14" class="edge">
<title>12&#45;&gt;15</title>
<path fill="none" stroke="black" d="M525.47,-71.52C509.25,-62.36 489.74,-51.34 472.79,-41.76"/>
<polygon fill="black" stroke="black" points="474.9,-38.93 464.47,-37.06 471.45,-45.03 474.9,-38.93"/>
</g>
<!-- 16 -->
<g id="node16" class="node">
<title>16</title>
<polygon fill="none" stroke="green" points="862.12,-36 510.88,-36 510.88,-32 506.88,-32 506.88,-28 510.88,-28 510.88,-8 506.88,-8 506.88,-4 510.88,-4 510.88,0 862.12,0 862.12,-36"/>
<polyline fill="none" stroke="green" points="510.88,-32 514.88,-32 514.88,-28 510.88,-28"/>
<polyline fill="none" stroke="green" points="510.88,-8 514.88,-8 514.88,-4 510.88,-4"/>
<text text-anchor="middle" x="686.5" y="-12.57" font-family="Times New Roman,serif" font-size="14.00">(16) ClearEntireCostmap (name=Cle...,service_name=glo...)</text>
</g>
<!-- 12&#45;&gt;16 -->
<g id="edge15" class="edge">
<title>12&#45;&gt;16</title>
<path fill="none" stroke="black" d="M593.53,-71.52C609.75,-62.36 629.26,-51.34 646.21,-41.76"/>
<polygon fill="black" stroke="black" points="647.55,-45.03 654.53,-37.06 644.1,-38.93 647.55,-45.03"/>
</g>
</g>
</svg>
